G04*
G04 #@! TF.GenerationSoftware,Altium Limited,Altium Designer,24.1.2 (44)*
G04*
G04 Layer_Color=32896*
%FSLAX44Y44*%
%MOMM*%
G71*
G04*
G04 #@! TF.SameCoordinates,6A4311CB-8E8A-427E-B903-E888CF1DD548*
G04*
G04*
G04 #@! TF.FilePolarity,Positive*
G04*
G01*
G75*
%ADD11C,0.2000*%
%ADD13C,0.1270*%
%ADD62C,0.3000*%
%ADD63C,0.1524*%
%ADD64C,0.0000*%
%ADD65C,0.2540*%
G36*
X283312Y259018D02*
X283763Y258948D01*
X284158Y258864D01*
X284341Y258807D01*
X284510Y258751D01*
X284665Y258694D01*
X284806Y258638D01*
X284919Y258596D01*
X285032Y258553D01*
X285102Y258511D01*
X285159Y258483D01*
X285201Y258469D01*
X285215Y258455D01*
X285596Y258215D01*
X285920Y257933D01*
X286202Y257651D01*
X286441Y257369D01*
X286625Y257115D01*
X286695Y257003D01*
X286752Y256904D01*
X286808Y256833D01*
X286836Y256777D01*
X286850Y256735D01*
X286864Y256721D01*
X287062Y256284D01*
X287203Y255833D01*
X287301Y255382D01*
X287372Y254973D01*
X287400Y254789D01*
X287414Y254606D01*
X287428Y254465D01*
Y254324D01*
X287442Y254226D01*
Y254141D01*
Y254085D01*
Y254070D01*
X287414Y253563D01*
X287358Y253070D01*
X287287Y252633D01*
X287231Y252421D01*
X287189Y252238D01*
X287146Y252069D01*
X287090Y251914D01*
X287048Y251773D01*
X287019Y251660D01*
X286977Y251575D01*
X286963Y251505D01*
X286935Y251462D01*
Y251448D01*
X286723Y251026D01*
X286484Y250645D01*
X286230Y250321D01*
X286103Y250194D01*
X285990Y250067D01*
X285878Y249954D01*
X285765Y249855D01*
X285666Y249771D01*
X285581Y249715D01*
X285525Y249658D01*
X285469Y249616D01*
X285441Y249602D01*
X285427Y249588D01*
X285229Y249475D01*
X285032Y249376D01*
X284609Y249221D01*
X284186Y249108D01*
X283777Y249038D01*
X283580Y249010D01*
X283411Y248981D01*
X283256Y248967D01*
X283129D01*
X283016Y248953D01*
X282861D01*
X282579Y248967D01*
X282311Y248996D01*
X282057Y249024D01*
X281818Y249080D01*
X281592Y249151D01*
X281381Y249221D01*
X281183Y249292D01*
X281000Y249376D01*
X280845Y249447D01*
X280690Y249517D01*
X280577Y249588D01*
X280464Y249658D01*
X280394Y249715D01*
X280323Y249743D01*
X280295Y249771D01*
X280281Y249785D01*
X280084Y249954D01*
X279914Y250123D01*
X279760Y250321D01*
X279604Y250518D01*
X279351Y250913D01*
X279153Y251308D01*
X279069Y251491D01*
X278998Y251660D01*
X278942Y251815D01*
X278899Y251942D01*
X278857Y252055D01*
X278829Y252139D01*
X278815Y252196D01*
Y252210D01*
X280112Y252534D01*
X280168Y252308D01*
X280239Y252097D01*
X280309Y251900D01*
X280380Y251716D01*
X280464Y251547D01*
X280549Y251406D01*
X280648Y251265D01*
X280732Y251138D01*
X280803Y251026D01*
X280887Y250941D01*
X280958Y250856D01*
X281014Y250786D01*
X281070Y250744D01*
X281113Y250701D01*
X281127Y250687D01*
X281141Y250673D01*
X281282Y250560D01*
X281437Y250476D01*
X281747Y250321D01*
X282043Y250208D01*
X282339Y250137D01*
X282593Y250081D01*
X282692Y250067D01*
X282790D01*
X282875Y250053D01*
X282974D01*
X283298Y250067D01*
X283608Y250123D01*
X283890Y250194D01*
X284144Y250278D01*
X284341Y250363D01*
X284426Y250405D01*
X284496Y250434D01*
X284552Y250462D01*
X284595Y250490D01*
X284623Y250504D01*
X284637D01*
X284905Y250701D01*
X285130Y250913D01*
X285328Y251152D01*
X285483Y251378D01*
X285610Y251575D01*
X285694Y251744D01*
X285723Y251815D01*
X285751Y251857D01*
X285765Y251885D01*
Y251900D01*
X285878Y252266D01*
X285962Y252633D01*
X286033Y252999D01*
X286075Y253337D01*
X286089Y253493D01*
X286103Y253633D01*
Y253760D01*
X286117Y253859D01*
Y253944D01*
Y254014D01*
Y254056D01*
Y254070D01*
X286103Y254437D01*
X286075Y254775D01*
X286019Y255086D01*
X285962Y255367D01*
X285920Y255607D01*
X285892Y255706D01*
X285863Y255790D01*
X285849Y255861D01*
X285835Y255903D01*
X285821Y255931D01*
Y255945D01*
X285680Y256270D01*
X285525Y256566D01*
X285356Y256805D01*
X285173Y257017D01*
X285018Y257186D01*
X284891Y257299D01*
X284792Y257369D01*
X284778Y257397D01*
X284764D01*
X284468Y257581D01*
X284144Y257722D01*
X283834Y257820D01*
X283538Y257877D01*
X283270Y257919D01*
X283157Y257933D01*
X283058D01*
X282988Y257947D01*
X282875D01*
X282523Y257933D01*
X282198Y257877D01*
X281930Y257792D01*
X281691Y257708D01*
X281507Y257609D01*
X281367Y257538D01*
X281282Y257482D01*
X281254Y257454D01*
X281028Y257242D01*
X280817Y257003D01*
X280648Y256749D01*
X280507Y256495D01*
X280394Y256270D01*
X280352Y256157D01*
X280323Y256072D01*
X280295Y256002D01*
X280267Y255945D01*
X280253Y255917D01*
Y255903D01*
X278984Y256199D01*
X279069Y256453D01*
X279153Y256678D01*
X279266Y256890D01*
X279365Y257101D01*
X279478Y257285D01*
X279604Y257454D01*
X279717Y257623D01*
X279830Y257764D01*
X279943Y257877D01*
X280041Y257990D01*
X280140Y258088D01*
X280211Y258159D01*
X280281Y258229D01*
X280337Y258271D01*
X280366Y258286D01*
X280380Y258300D01*
X280577Y258426D01*
X280774Y258553D01*
X280972Y258652D01*
X281183Y258737D01*
X281606Y258864D01*
X281987Y258948D01*
X282170Y258990D01*
X282325Y259004D01*
X282480Y259018D01*
X282607Y259033D01*
X282706Y259047D01*
X282847D01*
X283312Y259018D01*
D02*
G37*
G36*
X278124Y252562D02*
Y251462D01*
X273881D01*
Y249122D01*
X272683D01*
Y251462D01*
X271358D01*
Y252562D01*
X272683D01*
Y258878D01*
X273655D01*
X278124Y252562D01*
D02*
G37*
G36*
X300324Y289386D02*
X300550Y289358D01*
X300775Y289315D01*
X300973Y289259D01*
X301353Y289104D01*
X301522Y289033D01*
X301663Y288949D01*
X301804Y288850D01*
X301917Y288780D01*
X302030Y288695D01*
X302115Y288624D01*
X302185Y288568D01*
X302227Y288526D01*
X302255Y288498D01*
X302270Y288484D01*
X302425Y288314D01*
X302551Y288117D01*
X302678Y287934D01*
X302777Y287736D01*
X302862Y287525D01*
X302932Y287328D01*
X303031Y286961D01*
X303073Y286778D01*
X303101Y286623D01*
X303115Y286468D01*
X303130Y286341D01*
X303144Y286242D01*
Y286172D01*
Y286115D01*
Y286101D01*
X303130Y285833D01*
X303101Y285594D01*
X303073Y285354D01*
X303017Y285128D01*
X302946Y284931D01*
X302876Y284734D01*
X302805Y284565D01*
X302721Y284410D01*
X302650Y284268D01*
X302580Y284142D01*
X302509Y284043D01*
X302439Y283944D01*
X302382Y283874D01*
X302354Y283832D01*
X302326Y283803D01*
X302312Y283789D01*
X302157Y283634D01*
X301988Y283507D01*
X301819Y283380D01*
X301635Y283282D01*
X301466Y283197D01*
X301297Y283127D01*
X300973Y283028D01*
X300832Y282986D01*
X300691Y282957D01*
X300578Y282943D01*
X300465Y282929D01*
X300381Y282915D01*
X300268D01*
X300000Y282929D01*
X299746Y282972D01*
X299521Y283028D01*
X299309Y283099D01*
X299154Y283155D01*
X299027Y283211D01*
X298943Y283254D01*
X298915Y283268D01*
X298689Y283409D01*
X298492Y283564D01*
X298322Y283719D01*
X298181Y283860D01*
X298083Y284001D01*
X297998Y284099D01*
X297942Y284170D01*
X297928Y284198D01*
Y284085D01*
Y284015D01*
Y283972D01*
Y283958D01*
X297942Y283676D01*
X297956Y283409D01*
X297984Y283169D01*
X298012Y282943D01*
X298055Y282760D01*
X298083Y282619D01*
X298097Y282563D01*
Y282521D01*
X298111Y282506D01*
Y282492D01*
X298181Y282239D01*
X298252Y282013D01*
X298322Y281816D01*
X298393Y281646D01*
X298449Y281520D01*
X298506Y281421D01*
X298534Y281350D01*
X298548Y281336D01*
X298661Y281181D01*
X298773Y281054D01*
X298886Y280942D01*
X298999Y280843D01*
X299084Y280758D01*
X299168Y280702D01*
X299225Y280674D01*
X299239Y280660D01*
X299394Y280575D01*
X299563Y280519D01*
X299718Y280476D01*
X299873Y280448D01*
X300000Y280434D01*
X300099Y280420D01*
X300197D01*
X300423Y280434D01*
X300634Y280476D01*
X300818Y280533D01*
X300973Y280603D01*
X301085Y280660D01*
X301184Y280716D01*
X301241Y280758D01*
X301255Y280772D01*
X301396Y280928D01*
X301508Y281111D01*
X301607Y281308D01*
X301677Y281506D01*
X301734Y281675D01*
X301776Y281830D01*
X301790Y281886D01*
Y281914D01*
X301804Y281943D01*
Y281957D01*
X302960Y281858D01*
X302876Y281449D01*
X302763Y281097D01*
X302622Y280787D01*
X302481Y280533D01*
X302340Y280336D01*
X302270Y280251D01*
X302213Y280180D01*
X302171Y280138D01*
X302129Y280096D01*
X302115Y280082D01*
X302100Y280068D01*
X301959Y279955D01*
X301804Y279856D01*
X301494Y279701D01*
X301184Y279588D01*
X300888Y279518D01*
X300620Y279461D01*
X300508Y279447D01*
X300409D01*
X300338Y279433D01*
X300226D01*
X299831Y279461D01*
X299478Y279518D01*
X299154Y279617D01*
X298886Y279729D01*
X298773Y279772D01*
X298661Y279828D01*
X298576Y279884D01*
X298492Y279927D01*
X298435Y279955D01*
X298393Y279983D01*
X298365Y280011D01*
X298351D01*
X298069Y280251D01*
X297815Y280519D01*
X297618Y280801D01*
X297448Y281068D01*
X297307Y281308D01*
X297251Y281421D01*
X297209Y281506D01*
X297181Y281590D01*
X297152Y281646D01*
X297138Y281675D01*
Y281689D01*
X297068Y281900D01*
X296997Y282140D01*
X296899Y282619D01*
X296828Y283127D01*
X296786Y283606D01*
X296758Y283817D01*
X296744Y284029D01*
Y284212D01*
X296730Y284367D01*
Y284494D01*
Y284593D01*
Y284663D01*
Y284677D01*
Y285002D01*
X296744Y285312D01*
X296772Y285594D01*
X296800Y285861D01*
X296828Y286101D01*
X296856Y286327D01*
X296899Y286538D01*
X296941Y286721D01*
X296983Y286877D01*
X297011Y287017D01*
X297054Y287144D01*
X297082Y287243D01*
X297110Y287313D01*
X297138Y287370D01*
X297152Y287398D01*
Y287412D01*
X297321Y287750D01*
X297505Y288046D01*
X297716Y288300D01*
X297899Y288512D01*
X298083Y288667D01*
X298224Y288780D01*
X298280Y288822D01*
X298322Y288850D01*
X298337Y288878D01*
X298351D01*
X298647Y289047D01*
X298943Y289174D01*
X299239Y289273D01*
X299507Y289329D01*
X299746Y289372D01*
X299845Y289386D01*
X299915D01*
X299986Y289400D01*
X300084D01*
X300324Y289386D01*
D02*
G37*
G36*
X308740Y289499D02*
X309191Y289428D01*
X309586Y289343D01*
X309769Y289287D01*
X309938Y289231D01*
X310093Y289174D01*
X310234Y289118D01*
X310347Y289076D01*
X310460Y289033D01*
X310530Y288991D01*
X310587Y288963D01*
X310629Y288949D01*
X310643Y288935D01*
X311024Y288695D01*
X311348Y288413D01*
X311630Y288131D01*
X311870Y287849D01*
X312053Y287595D01*
X312123Y287483D01*
X312180Y287384D01*
X312236Y287313D01*
X312264Y287257D01*
X312278Y287215D01*
X312292Y287201D01*
X312490Y286764D01*
X312631Y286313D01*
X312729Y285861D01*
X312800Y285453D01*
X312828Y285269D01*
X312842Y285086D01*
X312856Y284945D01*
Y284804D01*
X312871Y284706D01*
Y284621D01*
Y284565D01*
Y284550D01*
X312842Y284043D01*
X312786Y283550D01*
X312715Y283113D01*
X312659Y282901D01*
X312617Y282718D01*
X312575Y282549D01*
X312518Y282394D01*
X312476Y282253D01*
X312448Y282140D01*
X312405Y282055D01*
X312391Y281985D01*
X312363Y281943D01*
Y281928D01*
X312152Y281506D01*
X311912Y281125D01*
X311658Y280801D01*
X311531Y280674D01*
X311418Y280547D01*
X311306Y280434D01*
X311193Y280336D01*
X311094Y280251D01*
X311010Y280194D01*
X310953Y280138D01*
X310897Y280096D01*
X310869Y280082D01*
X310855Y280068D01*
X310657Y279955D01*
X310460Y279856D01*
X310037Y279701D01*
X309614Y279588D01*
X309205Y279518D01*
X309008Y279490D01*
X308839Y279461D01*
X308684Y279447D01*
X308557D01*
X308444Y279433D01*
X308289D01*
X308007Y279447D01*
X307739Y279476D01*
X307486Y279504D01*
X307246Y279560D01*
X307020Y279631D01*
X306809Y279701D01*
X306611Y279772D01*
X306428Y279856D01*
X306273Y279927D01*
X306118Y279997D01*
X306005Y280068D01*
X305893Y280138D01*
X305822Y280194D01*
X305751Y280223D01*
X305723Y280251D01*
X305709Y280265D01*
X305512Y280434D01*
X305343Y280603D01*
X305188Y280801D01*
X305033Y280998D01*
X304779Y281393D01*
X304582Y281787D01*
X304497Y281971D01*
X304426Y282140D01*
X304370Y282295D01*
X304328Y282422D01*
X304285Y282535D01*
X304257Y282619D01*
X304243Y282676D01*
Y282690D01*
X305540Y283014D01*
X305597Y282788D01*
X305667Y282577D01*
X305737Y282379D01*
X305808Y282196D01*
X305893Y282027D01*
X305977Y281886D01*
X306076Y281745D01*
X306160Y281618D01*
X306231Y281506D01*
X306315Y281421D01*
X306386Y281336D01*
X306442Y281266D01*
X306499Y281224D01*
X306541Y281181D01*
X306555Y281167D01*
X306569Y281153D01*
X306710Y281040D01*
X306865Y280956D01*
X307175Y280801D01*
X307471Y280688D01*
X307767Y280617D01*
X308021Y280561D01*
X308120Y280547D01*
X308218D01*
X308303Y280533D01*
X308402D01*
X308726Y280547D01*
X309036Y280603D01*
X309318Y280674D01*
X309572Y280758D01*
X309769Y280843D01*
X309854Y280885D01*
X309924Y280914D01*
X309981Y280942D01*
X310023Y280970D01*
X310051Y280984D01*
X310065D01*
X310333Y281181D01*
X310559Y281393D01*
X310756Y281632D01*
X310911Y281858D01*
X311038Y282055D01*
X311122Y282225D01*
X311151Y282295D01*
X311179Y282337D01*
X311193Y282365D01*
Y282379D01*
X311306Y282746D01*
X311390Y283113D01*
X311461Y283479D01*
X311503Y283817D01*
X311517Y283972D01*
X311531Y284114D01*
Y284240D01*
X311545Y284339D01*
Y284424D01*
Y284494D01*
Y284536D01*
Y284550D01*
X311531Y284917D01*
X311503Y285255D01*
X311447Y285565D01*
X311390Y285847D01*
X311348Y286087D01*
X311320Y286186D01*
X311292Y286270D01*
X311278Y286341D01*
X311264Y286383D01*
X311249Y286411D01*
Y286425D01*
X311108Y286750D01*
X310953Y287046D01*
X310784Y287285D01*
X310601Y287497D01*
X310446Y287666D01*
X310319Y287779D01*
X310220Y287849D01*
X310206Y287877D01*
X310192D01*
X309896Y288061D01*
X309572Y288202D01*
X309262Y288300D01*
X308966Y288357D01*
X308698Y288399D01*
X308585Y288413D01*
X308486D01*
X308416Y288427D01*
X308303D01*
X307951Y288413D01*
X307626Y288357D01*
X307359Y288272D01*
X307119Y288188D01*
X306936Y288089D01*
X306795Y288018D01*
X306710Y287962D01*
X306682Y287934D01*
X306456Y287722D01*
X306245Y287483D01*
X306076Y287229D01*
X305935Y286975D01*
X305822Y286750D01*
X305780Y286637D01*
X305751Y286552D01*
X305723Y286482D01*
X305695Y286425D01*
X305681Y286397D01*
Y286383D01*
X304412Y286679D01*
X304497Y286933D01*
X304582Y287158D01*
X304694Y287370D01*
X304793Y287581D01*
X304906Y287765D01*
X305033Y287934D01*
X305145Y288103D01*
X305258Y288244D01*
X305371Y288357D01*
X305470Y288470D01*
X305568Y288568D01*
X305639Y288639D01*
X305709Y288709D01*
X305766Y288751D01*
X305794Y288766D01*
X305808Y288780D01*
X306005Y288906D01*
X306203Y289033D01*
X306400Y289132D01*
X306611Y289217D01*
X307034Y289343D01*
X307415Y289428D01*
X307598Y289470D01*
X307753Y289484D01*
X307908Y289499D01*
X308035Y289513D01*
X308134Y289527D01*
X308275D01*
X308740Y289499D01*
D02*
G37*
G36*
X368300Y147320D02*
X366021D01*
Y149599D01*
X368300D01*
Y147320D01*
D02*
G37*
G36*
X219048Y200465D02*
X219288Y200450D01*
X219513Y200408D01*
X219725Y200366D01*
X219922Y200310D01*
X220105Y200253D01*
X220274Y200183D01*
X220429Y200112D01*
X220571Y200042D01*
X220683Y199971D01*
X220782Y199915D01*
X220867Y199858D01*
X220937Y199816D01*
X220979Y199774D01*
X221007Y199760D01*
X221022Y199746D01*
X221162Y199605D01*
X221289Y199450D01*
X221416Y199280D01*
X221515Y199111D01*
X221684Y198773D01*
X221797Y198435D01*
X221839Y198280D01*
X221882Y198125D01*
X221910Y197998D01*
X221938Y197885D01*
X221952Y197786D01*
Y197716D01*
X221966Y197673D01*
Y197659D01*
X220740Y197532D01*
X220711Y197857D01*
X220655Y198139D01*
X220571Y198392D01*
X220472Y198590D01*
X220387Y198759D01*
X220303Y198872D01*
X220246Y198942D01*
X220218Y198970D01*
X220007Y199139D01*
X219781Y199266D01*
X219541Y199365D01*
X219330Y199421D01*
X219133Y199464D01*
X218963Y199478D01*
X218907Y199492D01*
X218822D01*
X218526Y199478D01*
X218259Y199421D01*
X218033Y199337D01*
X217836Y199252D01*
X217681Y199154D01*
X217582Y199083D01*
X217511Y199027D01*
X217483Y198999D01*
X217314Y198801D01*
X217187Y198604D01*
X217089Y198407D01*
X217032Y198209D01*
X216990Y198054D01*
X216976Y197913D01*
X216962Y197829D01*
Y197814D01*
Y197800D01*
X216990Y197547D01*
X217046Y197279D01*
X217145Y197039D01*
X217244Y196814D01*
X217356Y196630D01*
X217455Y196475D01*
X217483Y196419D01*
X217511Y196376D01*
X217540Y196362D01*
Y196348D01*
X217652Y196193D01*
X217793Y196038D01*
X217948Y195869D01*
X218118Y195700D01*
X218470Y195361D01*
X218822Y195023D01*
X219006Y194868D01*
X219161Y194727D01*
X219316Y194600D01*
X219443Y194487D01*
X219541Y194403D01*
X219626Y194332D01*
X219682Y194290D01*
X219697Y194276D01*
X220049Y193980D01*
X220373Y193698D01*
X220641Y193444D01*
X220852Y193233D01*
X221036Y193050D01*
X221162Y192923D01*
X221233Y192838D01*
X221261Y192824D01*
Y192810D01*
X221459Y192570D01*
X221614Y192345D01*
X221755Y192119D01*
X221867Y191922D01*
X221952Y191753D01*
X222008Y191626D01*
X222037Y191541D01*
X222051Y191527D01*
Y191513D01*
X222107Y191358D01*
X222135Y191217D01*
X222163Y191076D01*
X222178Y190949D01*
X222192Y190836D01*
Y190752D01*
Y190695D01*
Y190681D01*
X215721D01*
Y191837D01*
X220528D01*
X220359Y192077D01*
X220274Y192176D01*
X220204Y192274D01*
X220133Y192359D01*
X220077Y192415D01*
X220035Y192458D01*
X220021Y192472D01*
X219950Y192542D01*
X219866Y192613D01*
X219668Y192796D01*
X219443Y193007D01*
X219203Y193219D01*
X218978Y193402D01*
X218879Y193487D01*
X218794Y193571D01*
X218724Y193628D01*
X218667Y193670D01*
X218639Y193698D01*
X218625Y193712D01*
X218400Y193909D01*
X218174Y194093D01*
X217977Y194276D01*
X217793Y194431D01*
X217624Y194586D01*
X217483Y194727D01*
X217342Y194854D01*
X217229Y194967D01*
X217117Y195080D01*
X217032Y195164D01*
X216962Y195235D01*
X216891Y195305D01*
X216821Y195390D01*
X216793Y195418D01*
X216595Y195658D01*
X216426Y195869D01*
X216285Y196080D01*
X216172Y196250D01*
X216088Y196405D01*
X216031Y196518D01*
X216003Y196588D01*
X215989Y196616D01*
X215904Y196828D01*
X215848Y197039D01*
X215792Y197236D01*
X215763Y197406D01*
X215749Y197561D01*
X215735Y197673D01*
Y197744D01*
Y197772D01*
X215749Y197984D01*
X215777Y198181D01*
X215806Y198378D01*
X215862Y198547D01*
X216003Y198886D01*
X216144Y199154D01*
X216229Y199280D01*
X216299Y199379D01*
X216370Y199478D01*
X216440Y199548D01*
X216496Y199605D01*
X216525Y199661D01*
X216553Y199675D01*
X216567Y199689D01*
X216722Y199830D01*
X216891Y199957D01*
X217074Y200056D01*
X217258Y200140D01*
X217624Y200281D01*
X217991Y200380D01*
X218146Y200408D01*
X218301Y200436D01*
X218442Y200450D01*
X218555Y200465D01*
X218653Y200479D01*
X218794D01*
X219048Y200465D01*
D02*
G37*
G36*
X226012Y200239D02*
X226167Y200014D01*
X226350Y199788D01*
X226519Y199591D01*
X226689Y199421D01*
X226815Y199280D01*
X226872Y199238D01*
X226914Y199196D01*
X226928Y199182D01*
X226942Y199168D01*
X227238Y198928D01*
X227534Y198703D01*
X227816Y198505D01*
X228098Y198350D01*
X228338Y198209D01*
X228437Y198153D01*
X228521Y198110D01*
X228592Y198068D01*
X228648Y198054D01*
X228676Y198026D01*
X228690D01*
Y196870D01*
X228479Y196954D01*
X228267Y197053D01*
X228056Y197152D01*
X227859Y197250D01*
X227689Y197335D01*
X227549Y197406D01*
X227464Y197462D01*
X227450Y197476D01*
X227436D01*
X227182Y197631D01*
X226956Y197786D01*
X226759Y197927D01*
X226604Y198054D01*
X226463Y198153D01*
X226378Y198237D01*
X226308Y198294D01*
X226294Y198308D01*
Y190681D01*
X225096D01*
Y200479D01*
X225871D01*
X226012Y200239D01*
D02*
G37*
G36*
X238939Y190681D02*
X237642D01*
Y195009D01*
X235979D01*
X235823Y194995D01*
X235711D01*
X235612Y194981D01*
X235541Y194967D01*
X235485D01*
X235457Y194953D01*
X235443D01*
X235217Y194882D01*
X235119Y194840D01*
X235034Y194798D01*
X234949Y194755D01*
X234893Y194727D01*
X234865Y194713D01*
X234851Y194699D01*
X234738Y194614D01*
X234625Y194516D01*
X234414Y194304D01*
X234315Y194206D01*
X234245Y194121D01*
X234202Y194065D01*
X234188Y194051D01*
X234047Y193853D01*
X233892Y193642D01*
X233737Y193416D01*
X233582Y193205D01*
X233455Y193007D01*
X233356Y192852D01*
X233314Y192796D01*
X233286Y192754D01*
X233258Y192725D01*
Y192711D01*
X231975Y190681D01*
X230368D01*
X232045Y193332D01*
X232243Y193613D01*
X232426Y193867D01*
X232609Y194079D01*
X232764Y194276D01*
X232905Y194417D01*
X233018Y194530D01*
X233089Y194600D01*
X233117Y194629D01*
X233230Y194713D01*
X233356Y194812D01*
X233610Y194967D01*
X233723Y195023D01*
X233808Y195080D01*
X233864Y195108D01*
X233892Y195122D01*
X233638Y195164D01*
X233399Y195206D01*
X233187Y195277D01*
X232976Y195333D01*
X232793Y195404D01*
X232623Y195488D01*
X232468Y195559D01*
X232327Y195629D01*
X232215Y195714D01*
X232102Y195784D01*
X232017Y195841D01*
X231947Y195897D01*
X231890Y195940D01*
X231848Y195982D01*
X231834Y195996D01*
X231820Y196010D01*
X231707Y196151D01*
X231594Y196292D01*
X231425Y196588D01*
X231312Y196884D01*
X231228Y197166D01*
X231171Y197406D01*
X231157Y197504D01*
Y197603D01*
X231143Y197673D01*
Y197730D01*
Y197758D01*
Y197772D01*
X231157Y198068D01*
X231200Y198336D01*
X231270Y198590D01*
X231341Y198801D01*
X231425Y198984D01*
X231482Y199125D01*
X231538Y199210D01*
X231552Y199224D01*
Y199238D01*
X231721Y199464D01*
X231890Y199661D01*
X232074Y199830D01*
X232243Y199957D01*
X232398Y200056D01*
X232525Y200112D01*
X232609Y200154D01*
X232623Y200169D01*
X232638D01*
X232764Y200211D01*
X232919Y200253D01*
X233230Y200324D01*
X233568Y200366D01*
X233878Y200408D01*
X234174Y200422D01*
X234301D01*
X234414Y200436D01*
X238939D01*
Y190681D01*
D02*
G37*
G36*
X225117Y218019D02*
X225272Y217794D01*
X225455Y217568D01*
X225624Y217371D01*
X225793Y217201D01*
X225920Y217061D01*
X225977Y217018D01*
X226019Y216976D01*
X226033Y216962D01*
X226047Y216948D01*
X226343Y216708D01*
X226639Y216483D01*
X226921Y216285D01*
X227203Y216130D01*
X227443Y215989D01*
X227542Y215933D01*
X227626Y215890D01*
X227696Y215848D01*
X227753Y215834D01*
X227781Y215806D01*
X227795D01*
Y214650D01*
X227584Y214734D01*
X227372Y214833D01*
X227161Y214932D01*
X226964Y215030D01*
X226794Y215115D01*
X226653Y215186D01*
X226569Y215242D01*
X226555Y215256D01*
X226541D01*
X226287Y215411D01*
X226061Y215566D01*
X225864Y215707D01*
X225709Y215834D01*
X225568Y215933D01*
X225483Y216017D01*
X225413Y216074D01*
X225399Y216088D01*
Y208461D01*
X224200D01*
Y218259D01*
X224976D01*
X225117Y218019D01*
D02*
G37*
G36*
X217533D02*
X217688Y217794D01*
X217871Y217568D01*
X218040Y217371D01*
X218209Y217201D01*
X218336Y217061D01*
X218393Y217018D01*
X218435Y216976D01*
X218449Y216962D01*
X218463Y216948D01*
X218759Y216708D01*
X219055Y216483D01*
X219337Y216285D01*
X219619Y216130D01*
X219859Y215989D01*
X219957Y215933D01*
X220042Y215890D01*
X220112Y215848D01*
X220169Y215834D01*
X220197Y215806D01*
X220211D01*
Y214650D01*
X220000Y214734D01*
X219788Y214833D01*
X219577Y214932D01*
X219379Y215030D01*
X219210Y215115D01*
X219069Y215186D01*
X218985Y215242D01*
X218971Y215256D01*
X218956D01*
X218703Y215411D01*
X218477Y215566D01*
X218280Y215707D01*
X218125Y215834D01*
X217984Y215933D01*
X217899Y216017D01*
X217829Y216074D01*
X217815Y216088D01*
Y208461D01*
X216616D01*
Y218259D01*
X217392D01*
X217533Y218019D01*
D02*
G37*
G36*
X238044Y208461D02*
X236747D01*
Y212789D01*
X235083D01*
X234928Y212775D01*
X234816D01*
X234717Y212761D01*
X234646Y212747D01*
X234590D01*
X234562Y212733D01*
X234548D01*
X234322Y212662D01*
X234223Y212620D01*
X234139Y212578D01*
X234054Y212535D01*
X233998Y212507D01*
X233970Y212493D01*
X233956Y212479D01*
X233843Y212394D01*
X233730Y212296D01*
X233519Y212084D01*
X233420Y211986D01*
X233349Y211901D01*
X233307Y211845D01*
X233293Y211831D01*
X233152Y211633D01*
X232997Y211422D01*
X232842Y211196D01*
X232687Y210985D01*
X232560Y210787D01*
X232461Y210632D01*
X232419Y210576D01*
X232391Y210534D01*
X232363Y210505D01*
Y210491D01*
X231080Y208461D01*
X229473D01*
X231150Y211112D01*
X231348Y211394D01*
X231531Y211647D01*
X231714Y211859D01*
X231869Y212056D01*
X232010Y212197D01*
X232123Y212310D01*
X232194Y212380D01*
X232222Y212409D01*
X232334Y212493D01*
X232461Y212592D01*
X232715Y212747D01*
X232828Y212803D01*
X232912Y212860D01*
X232969Y212888D01*
X232997Y212902D01*
X232743Y212944D01*
X232504Y212986D01*
X232292Y213057D01*
X232081Y213113D01*
X231897Y213184D01*
X231728Y213268D01*
X231573Y213339D01*
X231432Y213409D01*
X231320Y213494D01*
X231207Y213564D01*
X231122Y213621D01*
X231052Y213677D01*
X230995Y213720D01*
X230953Y213762D01*
X230939Y213776D01*
X230925Y213790D01*
X230812Y213931D01*
X230699Y214072D01*
X230530Y214368D01*
X230417Y214664D01*
X230333Y214946D01*
X230276Y215186D01*
X230262Y215284D01*
Y215383D01*
X230248Y215453D01*
Y215510D01*
Y215538D01*
Y215552D01*
X230262Y215848D01*
X230305Y216116D01*
X230375Y216370D01*
X230445Y216581D01*
X230530Y216764D01*
X230586Y216905D01*
X230643Y216990D01*
X230657Y217004D01*
Y217018D01*
X230826Y217244D01*
X230995Y217441D01*
X231178Y217610D01*
X231348Y217737D01*
X231503Y217836D01*
X231630Y217892D01*
X231714Y217934D01*
X231728Y217949D01*
X231742D01*
X231869Y217991D01*
X232024Y218033D01*
X232334Y218104D01*
X232673Y218146D01*
X232983Y218188D01*
X233279Y218202D01*
X233406D01*
X233519Y218216D01*
X238044D01*
Y208461D01*
D02*
G37*
G36*
X519058Y234767D02*
X517930Y234612D01*
X517831Y234767D01*
X517704Y234894D01*
X517592Y235021D01*
X517479Y235119D01*
X517366Y235190D01*
X517281Y235260D01*
X517225Y235288D01*
X517211Y235302D01*
X517028Y235387D01*
X516844Y235457D01*
X516675Y235500D01*
X516506Y235542D01*
X516365Y235556D01*
X516252Y235570D01*
X515984D01*
X515815Y235542D01*
X515519Y235472D01*
X515266Y235373D01*
X515040Y235274D01*
X514871Y235161D01*
X514744Y235063D01*
X514674Y234992D01*
X514645Y234978D01*
Y234964D01*
X514448Y234724D01*
X514307Y234471D01*
X514208Y234203D01*
X514138Y233935D01*
X514095Y233710D01*
X514081Y233611D01*
Y233526D01*
X514067Y233456D01*
Y233399D01*
Y233371D01*
Y233357D01*
Y233160D01*
X514095Y232976D01*
X514166Y232624D01*
X514265Y232328D01*
X514363Y232088D01*
X514476Y231891D01*
X514575Y231736D01*
X514617Y231694D01*
X514645Y231651D01*
X514659Y231637D01*
X514674Y231623D01*
X514786Y231510D01*
X514899Y231412D01*
X515153Y231243D01*
X515392Y231130D01*
X515632Y231059D01*
X515830Y231003D01*
X515999Y230989D01*
X516055Y230975D01*
X516140D01*
X516408Y230989D01*
X516647Y231045D01*
X516859Y231116D01*
X517028Y231200D01*
X517183Y231285D01*
X517296Y231355D01*
X517352Y231412D01*
X517380Y231426D01*
X517549Y231623D01*
X517690Y231835D01*
X517803Y232074D01*
X517888Y232286D01*
X517944Y232497D01*
X517986Y232652D01*
X518000Y232723D01*
X518014Y232765D01*
Y232793D01*
Y232807D01*
X519269Y232709D01*
X519241Y232483D01*
X519199Y232272D01*
X519072Y231877D01*
X518917Y231539D01*
X518832Y231383D01*
X518748Y231257D01*
X518677Y231130D01*
X518592Y231017D01*
X518522Y230932D01*
X518451Y230862D01*
X518395Y230805D01*
X518367Y230749D01*
X518339Y230735D01*
X518325Y230721D01*
X518156Y230594D01*
X517986Y230481D01*
X517803Y230383D01*
X517620Y230298D01*
X517267Y230171D01*
X516915Y230086D01*
X516760Y230044D01*
X516605Y230030D01*
X516478Y230016D01*
X516365Y230002D01*
X516267Y229988D01*
X516140D01*
X515844Y230002D01*
X515562Y230044D01*
X515294Y230101D01*
X515054Y230171D01*
X514829Y230270D01*
X514617Y230368D01*
X514420Y230467D01*
X514251Y230580D01*
X514095Y230693D01*
X513955Y230791D01*
X513842Y230904D01*
X513743Y230989D01*
X513673Y231059D01*
X513616Y231116D01*
X513588Y231158D01*
X513574Y231172D01*
X513433Y231355D01*
X513320Y231553D01*
X513207Y231736D01*
X513123Y231933D01*
X512982Y232314D01*
X512897Y232680D01*
X512869Y232835D01*
X512841Y232990D01*
X512827Y233117D01*
X512813Y233230D01*
X512799Y233329D01*
Y233399D01*
Y233442D01*
Y233456D01*
X512813Y233710D01*
X512841Y233949D01*
X512883Y234189D01*
X512940Y234400D01*
X513010Y234598D01*
X513081Y234795D01*
X513165Y234964D01*
X513236Y235119D01*
X513320Y235260D01*
X513405Y235387D01*
X513475Y235486D01*
X513546Y235584D01*
X513602Y235655D01*
X513644Y235697D01*
X513673Y235725D01*
X513687Y235739D01*
X513856Y235895D01*
X514025Y236035D01*
X514208Y236148D01*
X514392Y236247D01*
X514575Y236346D01*
X514758Y236416D01*
X515096Y236515D01*
X515252Y236557D01*
X515392Y236585D01*
X515519Y236599D01*
X515632Y236613D01*
X515717Y236628D01*
X516027D01*
X516196Y236599D01*
X516534Y236529D01*
X516844Y236430D01*
X517126Y236317D01*
X517352Y236205D01*
X517451Y236148D01*
X517535Y236106D01*
X517606Y236064D01*
X517648Y236035D01*
X517676Y236021D01*
X517690Y236007D01*
X517169Y238643D01*
X513264D01*
Y239785D01*
X518113D01*
X519058Y234767D01*
D02*
G37*
G36*
X528601Y234273D02*
Y233991D01*
X528587Y233724D01*
X528573Y233470D01*
X528545Y233230D01*
X528517Y233019D01*
X528489Y232821D01*
X528446Y232638D01*
X528418Y232469D01*
X528390Y232314D01*
X528348Y232187D01*
X528319Y232074D01*
X528291Y231990D01*
X528263Y231919D01*
X528249Y231863D01*
X528235Y231835D01*
Y231821D01*
X528080Y231510D01*
X527882Y231228D01*
X527685Y231003D01*
X527474Y230805D01*
X527290Y230650D01*
X527135Y230538D01*
X527079Y230509D01*
X527037Y230481D01*
X527008Y230453D01*
X526994D01*
X526642Y230298D01*
X526275Y230185D01*
X525895Y230101D01*
X525542Y230044D01*
X525387Y230030D01*
X525232Y230016D01*
X525091Y230002D01*
X524978D01*
X524880Y229988D01*
X524753D01*
X524245Y230016D01*
X524020Y230044D01*
X523808Y230072D01*
X523597Y230115D01*
X523414Y230157D01*
X523245Y230199D01*
X523089Y230256D01*
X522948Y230312D01*
X522836Y230354D01*
X522723Y230397D01*
X522638Y230439D01*
X522568Y230481D01*
X522525Y230495D01*
X522497Y230523D01*
X522483D01*
X522173Y230735D01*
X521919Y230975D01*
X521722Y231200D01*
X521553Y231426D01*
X521426Y231623D01*
X521341Y231778D01*
X521313Y231835D01*
X521285Y231877D01*
X521271Y231905D01*
Y231919D01*
X521214Y232088D01*
X521158Y232272D01*
X521074Y232652D01*
X521017Y233047D01*
X520975Y233428D01*
X520961Y233597D01*
X520947Y233766D01*
Y233907D01*
X520933Y234034D01*
Y234132D01*
Y234203D01*
Y234259D01*
Y234273D01*
Y239912D01*
X522229D01*
Y234273D01*
Y233949D01*
X522258Y233639D01*
X522286Y233371D01*
X522328Y233117D01*
X522370Y232892D01*
X522427Y232680D01*
X522469Y232497D01*
X522525Y232342D01*
X522582Y232215D01*
X522638Y232088D01*
X522695Y232004D01*
X522737Y231919D01*
X522779Y231863D01*
X522808Y231821D01*
X522822Y231806D01*
X522836Y231792D01*
X522963Y231679D01*
X523103Y231581D01*
X523414Y231426D01*
X523738Y231313D01*
X524076Y231243D01*
X524386Y231186D01*
X524513Y231172D01*
X524640D01*
X524725Y231158D01*
X524866D01*
X525162Y231172D01*
X525429Y231214D01*
X525683Y231257D01*
X525881Y231327D01*
X526050Y231383D01*
X526177Y231426D01*
X526247Y231468D01*
X526275Y231482D01*
X526473Y231609D01*
X526642Y231764D01*
X526783Y231919D01*
X526881Y232060D01*
X526966Y232201D01*
X527037Y232300D01*
X527065Y232370D01*
X527079Y232398D01*
X527121Y232525D01*
X527149Y232652D01*
X527206Y232948D01*
X527248Y233258D01*
X527276Y233568D01*
X527290Y233836D01*
Y233963D01*
X527304Y234062D01*
Y234146D01*
Y234217D01*
Y234259D01*
Y234273D01*
Y239912D01*
X528601D01*
Y234273D01*
D02*
G37*
G36*
X344395Y196173D02*
Y195891D01*
X344381Y195624D01*
X344367Y195370D01*
X344339Y195130D01*
X344310Y194919D01*
X344282Y194721D01*
X344240Y194538D01*
X344212Y194369D01*
X344184Y194214D01*
X344141Y194087D01*
X344113Y193974D01*
X344085Y193890D01*
X344057Y193819D01*
X344043Y193763D01*
X344028Y193735D01*
Y193720D01*
X343873Y193410D01*
X343676Y193128D01*
X343479Y192903D01*
X343267Y192705D01*
X343084Y192550D01*
X342929Y192438D01*
X342873Y192409D01*
X342830Y192381D01*
X342802Y192353D01*
X342788D01*
X342435Y192198D01*
X342069Y192085D01*
X341688Y192001D01*
X341336Y191944D01*
X341181Y191930D01*
X341026Y191916D01*
X340885Y191902D01*
X340772D01*
X340673Y191888D01*
X340546D01*
X340039Y191916D01*
X339813Y191944D01*
X339602Y191972D01*
X339390Y192015D01*
X339207Y192057D01*
X339038Y192099D01*
X338883Y192156D01*
X338742Y192212D01*
X338629Y192254D01*
X338517Y192297D01*
X338432Y192339D01*
X338362Y192381D01*
X338319Y192395D01*
X338291Y192423D01*
X338277D01*
X337967Y192635D01*
X337713Y192875D01*
X337516Y193100D01*
X337346Y193326D01*
X337220Y193523D01*
X337135Y193678D01*
X337107Y193735D01*
X337079Y193777D01*
X337065Y193805D01*
Y193819D01*
X337008Y193988D01*
X336952Y194172D01*
X336867Y194552D01*
X336811Y194947D01*
X336768Y195327D01*
X336754Y195497D01*
X336740Y195666D01*
Y195807D01*
X336726Y195934D01*
Y196032D01*
Y196103D01*
Y196159D01*
Y196173D01*
Y201812D01*
X338023D01*
Y196173D01*
Y195849D01*
X338051Y195539D01*
X338079Y195271D01*
X338122Y195017D01*
X338164Y194792D01*
X338220Y194580D01*
X338263Y194397D01*
X338319Y194242D01*
X338376Y194115D01*
X338432Y193988D01*
X338488Y193904D01*
X338531Y193819D01*
X338573Y193763D01*
X338601Y193720D01*
X338615Y193706D01*
X338629Y193692D01*
X338756Y193580D01*
X338897Y193481D01*
X339207Y193326D01*
X339532Y193213D01*
X339870Y193143D01*
X340180Y193086D01*
X340307Y193072D01*
X340434D01*
X340518Y193058D01*
X340659D01*
X340955Y193072D01*
X341223Y193114D01*
X341477Y193157D01*
X341674Y193227D01*
X341843Y193284D01*
X341970Y193326D01*
X342041Y193368D01*
X342069Y193382D01*
X342266Y193509D01*
X342435Y193664D01*
X342576Y193819D01*
X342675Y193960D01*
X342760Y194101D01*
X342830Y194200D01*
X342858Y194270D01*
X342873Y194298D01*
X342915Y194425D01*
X342943Y194552D01*
X342999Y194848D01*
X343042Y195158D01*
X343070Y195469D01*
X343084Y195736D01*
Y195863D01*
X343098Y195962D01*
Y196047D01*
Y196117D01*
Y196159D01*
Y196173D01*
Y201812D01*
X344395D01*
Y196173D01*
D02*
G37*
G36*
X335472Y195497D02*
Y194397D01*
X331228D01*
Y192057D01*
X330030D01*
Y194397D01*
X328705D01*
Y195497D01*
X330030D01*
Y201812D01*
X331003D01*
X335472Y195497D01*
D02*
G37*
G36*
X173684Y203075D02*
X174064Y203005D01*
X174389Y202892D01*
X174671Y202779D01*
X174797Y202709D01*
X174896Y202652D01*
X174995Y202596D01*
X175065Y202539D01*
X175122Y202497D01*
X175164Y202469D01*
X175192Y202455D01*
X175206Y202441D01*
X175474Y202173D01*
X175685Y201877D01*
X175855Y201567D01*
X175996Y201257D01*
X176080Y200989D01*
X176122Y200876D01*
X176151Y200777D01*
X176165Y200693D01*
X176179Y200636D01*
X176193Y200594D01*
Y200580D01*
X174995Y200368D01*
X174938Y200679D01*
X174854Y200947D01*
X174755Y201172D01*
X174656Y201355D01*
X174558Y201496D01*
X174473Y201595D01*
X174417Y201665D01*
X174403Y201679D01*
X174219Y201821D01*
X174022Y201933D01*
X173839Y202004D01*
X173655Y202060D01*
X173486Y202088D01*
X173359Y202117D01*
X173247D01*
X172993Y202102D01*
X172767Y202046D01*
X172570Y201975D01*
X172401Y201905D01*
X172274Y201821D01*
X172175Y201750D01*
X172105Y201694D01*
X172091Y201679D01*
X171936Y201510D01*
X171823Y201327D01*
X171752Y201144D01*
X171696Y200975D01*
X171668Y200820D01*
X171640Y200707D01*
Y200622D01*
Y200608D01*
Y200594D01*
Y200439D01*
X171668Y200298D01*
X171738Y200058D01*
X171837Y199847D01*
X171950Y199664D01*
X172062Y199537D01*
X172161Y199438D01*
X172232Y199382D01*
X172246Y199368D01*
X172260D01*
X172500Y199241D01*
X172725Y199142D01*
X172965Y199072D01*
X173176Y199029D01*
X173359Y199001D01*
X173514Y198973D01*
X173698D01*
X173754Y198987D01*
X173825D01*
X173966Y197930D01*
X173782Y197972D01*
X173613Y198000D01*
X173472Y198028D01*
X173345Y198043D01*
X173247Y198057D01*
X173120D01*
X172824Y198028D01*
X172556Y197972D01*
X172316Y197887D01*
X172119Y197789D01*
X171964Y197690D01*
X171851Y197605D01*
X171781Y197549D01*
X171752Y197521D01*
X171569Y197309D01*
X171428Y197084D01*
X171329Y196858D01*
X171273Y196633D01*
X171231Y196450D01*
X171217Y196294D01*
X171203Y196238D01*
Y196196D01*
Y196168D01*
Y196154D01*
X171231Y195843D01*
X171301Y195561D01*
X171386Y195322D01*
X171499Y195110D01*
X171611Y194941D01*
X171696Y194814D01*
X171766Y194730D01*
X171795Y194701D01*
X172020Y194504D01*
X172260Y194363D01*
X172500Y194265D01*
X172725Y194194D01*
X172922Y194152D01*
X173078Y194138D01*
X173134Y194123D01*
X173218D01*
X173472Y194138D01*
X173712Y194194D01*
X173923Y194265D01*
X174093Y194349D01*
X174233Y194420D01*
X174346Y194490D01*
X174403Y194546D01*
X174431Y194561D01*
X174600Y194758D01*
X174741Y194983D01*
X174868Y195223D01*
X174967Y195477D01*
X175037Y195688D01*
X175065Y195787D01*
X175079Y195872D01*
X175093Y195942D01*
X175107Y195998D01*
X175122Y196027D01*
Y196041D01*
X176320Y195886D01*
X176292Y195660D01*
X176249Y195449D01*
X176122Y195054D01*
X175967Y194716D01*
X175883Y194575D01*
X175798Y194434D01*
X175714Y194307D01*
X175629Y194208D01*
X175559Y194109D01*
X175488Y194039D01*
X175446Y193983D01*
X175403Y193940D01*
X175375Y193912D01*
X175361Y193898D01*
X175192Y193771D01*
X175023Y193644D01*
X174854Y193545D01*
X174671Y193461D01*
X174318Y193320D01*
X173980Y193235D01*
X173825Y193207D01*
X173684Y193179D01*
X173557Y193165D01*
X173444Y193151D01*
X173359Y193137D01*
X173233D01*
X172965Y193151D01*
X172725Y193179D01*
X172485Y193221D01*
X172260Y193278D01*
X172048Y193348D01*
X171865Y193419D01*
X171682Y193503D01*
X171527Y193588D01*
X171372Y193658D01*
X171245Y193743D01*
X171132Y193813D01*
X171047Y193884D01*
X170977Y193940D01*
X170921Y193983D01*
X170893Y194011D01*
X170878Y194025D01*
X170709Y194194D01*
X170568Y194377D01*
X170441Y194561D01*
X170329Y194744D01*
X170244Y194913D01*
X170159Y195096D01*
X170047Y195434D01*
X170019Y195590D01*
X169990Y195731D01*
X169962Y195857D01*
X169948Y195970D01*
X169934Y196055D01*
Y196125D01*
Y196168D01*
Y196182D01*
X169948Y196520D01*
X170004Y196830D01*
X170089Y197098D01*
X170173Y197323D01*
X170258Y197507D01*
X170343Y197648D01*
X170399Y197732D01*
X170413Y197761D01*
X170611Y197972D01*
X170822Y198155D01*
X171047Y198296D01*
X171273Y198409D01*
X171470Y198494D01*
X171625Y198550D01*
X171682Y198564D01*
X171724Y198578D01*
X171752Y198592D01*
X171766D01*
X171527Y198719D01*
X171329Y198846D01*
X171160Y198987D01*
X171019Y199114D01*
X170907Y199227D01*
X170822Y199325D01*
X170780Y199382D01*
X170766Y199410D01*
X170653Y199607D01*
X170568Y199805D01*
X170498Y200002D01*
X170455Y200185D01*
X170427Y200340D01*
X170413Y200453D01*
Y200538D01*
Y200566D01*
X170427Y200805D01*
X170470Y201045D01*
X170526Y201257D01*
X170596Y201440D01*
X170667Y201595D01*
X170723Y201722D01*
X170766Y201792D01*
X170780Y201821D01*
X170921Y202032D01*
X171090Y202215D01*
X171259Y202370D01*
X171428Y202511D01*
X171569Y202610D01*
X171696Y202694D01*
X171781Y202737D01*
X171795Y202751D01*
X171809D01*
X172062Y202864D01*
X172316Y202948D01*
X172570Y203019D01*
X172796Y203061D01*
X172979Y203089D01*
X173134Y203103D01*
X173486D01*
X173684Y203075D01*
D02*
G37*
G36*
X185666Y197422D02*
Y197140D01*
X185652Y196872D01*
X185638Y196619D01*
X185610Y196379D01*
X185581Y196168D01*
X185553Y195970D01*
X185511Y195787D01*
X185483Y195618D01*
X185455Y195463D01*
X185412Y195336D01*
X185384Y195223D01*
X185356Y195138D01*
X185328Y195068D01*
X185314Y195012D01*
X185300Y194983D01*
Y194969D01*
X185145Y194659D01*
X184947Y194377D01*
X184750Y194152D01*
X184538Y193954D01*
X184355Y193799D01*
X184200Y193687D01*
X184144Y193658D01*
X184101Y193630D01*
X184073Y193602D01*
X184059D01*
X183707Y193447D01*
X183340Y193334D01*
X182959Y193249D01*
X182607Y193193D01*
X182452Y193179D01*
X182297Y193165D01*
X182156Y193151D01*
X182043D01*
X181945Y193137D01*
X181818D01*
X181310Y193165D01*
X181085Y193193D01*
X180873Y193221D01*
X180662Y193264D01*
X180478Y193306D01*
X180309Y193348D01*
X180154Y193405D01*
X180013Y193461D01*
X179900Y193503D01*
X179788Y193545D01*
X179703Y193588D01*
X179633Y193630D01*
X179590Y193644D01*
X179562Y193672D01*
X179548D01*
X179238Y193884D01*
X178984Y194123D01*
X178787Y194349D01*
X178618Y194575D01*
X178491Y194772D01*
X178406Y194927D01*
X178378Y194983D01*
X178350Y195026D01*
X178336Y195054D01*
Y195068D01*
X178279Y195237D01*
X178223Y195420D01*
X178138Y195801D01*
X178082Y196196D01*
X178040Y196576D01*
X178026Y196746D01*
X178011Y196915D01*
Y197056D01*
X177997Y197183D01*
Y197281D01*
Y197352D01*
Y197408D01*
Y197422D01*
Y203061D01*
X179294D01*
Y197422D01*
Y197098D01*
X179322Y196788D01*
X179351Y196520D01*
X179393Y196266D01*
X179435Y196041D01*
X179492Y195829D01*
X179534Y195646D01*
X179590Y195491D01*
X179647Y195364D01*
X179703Y195237D01*
X179760Y195153D01*
X179802Y195068D01*
X179844Y195012D01*
X179872Y194969D01*
X179886Y194955D01*
X179900Y194941D01*
X180027Y194828D01*
X180168Y194730D01*
X180478Y194575D01*
X180803Y194462D01*
X181141Y194391D01*
X181451Y194335D01*
X181578Y194321D01*
X181705D01*
X181789Y194307D01*
X181930D01*
X182227Y194321D01*
X182494Y194363D01*
X182748Y194405D01*
X182945Y194476D01*
X183115Y194532D01*
X183241Y194575D01*
X183312Y194617D01*
X183340Y194631D01*
X183538Y194758D01*
X183707Y194913D01*
X183848Y195068D01*
X183946Y195209D01*
X184031Y195350D01*
X184101Y195449D01*
X184130Y195519D01*
X184144Y195547D01*
X184186Y195674D01*
X184214Y195801D01*
X184270Y196097D01*
X184313Y196407D01*
X184341Y196717D01*
X184355Y196985D01*
Y197112D01*
X184369Y197211D01*
Y197295D01*
Y197366D01*
Y197408D01*
Y197422D01*
Y203061D01*
X185666D01*
Y197422D01*
D02*
G37*
G36*
X332060Y87519D02*
X332300Y87505D01*
X332525Y87463D01*
X332737Y87421D01*
X332934Y87364D01*
X333117Y87308D01*
X333287Y87237D01*
X333442Y87167D01*
X333583Y87096D01*
X333695Y87026D01*
X333794Y86969D01*
X333879Y86913D01*
X333949Y86871D01*
X333991Y86828D01*
X334020Y86814D01*
X334034Y86800D01*
X334175Y86659D01*
X334301Y86504D01*
X334428Y86335D01*
X334527Y86166D01*
X334696Y85828D01*
X334809Y85489D01*
X334851Y85334D01*
X334894Y85179D01*
X334922Y85052D01*
X334950Y84939D01*
X334964Y84841D01*
Y84770D01*
X334978Y84728D01*
Y84714D01*
X333752Y84587D01*
X333723Y84911D01*
X333667Y85193D01*
X333583Y85447D01*
X333484Y85644D01*
X333399Y85814D01*
X333315Y85926D01*
X333258Y85997D01*
X333230Y86025D01*
X333019Y86194D01*
X332793Y86321D01*
X332553Y86420D01*
X332342Y86476D01*
X332145Y86518D01*
X331976Y86532D01*
X331919Y86546D01*
X331834D01*
X331539Y86532D01*
X331271Y86476D01*
X331045Y86391D01*
X330848Y86307D01*
X330693Y86208D01*
X330594Y86138D01*
X330523Y86081D01*
X330495Y86053D01*
X330326Y85856D01*
X330199Y85658D01*
X330101Y85461D01*
X330044Y85264D01*
X330002Y85109D01*
X329988Y84968D01*
X329974Y84883D01*
Y84869D01*
Y84855D01*
X330002Y84601D01*
X330058Y84333D01*
X330157Y84094D01*
X330256Y83868D01*
X330368Y83685D01*
X330467Y83530D01*
X330495Y83473D01*
X330523Y83431D01*
X330552Y83417D01*
Y83403D01*
X330664Y83248D01*
X330806Y83093D01*
X330961Y82924D01*
X331130Y82754D01*
X331482Y82416D01*
X331834Y82078D01*
X332018Y81923D01*
X332173Y81782D01*
X332328Y81655D01*
X332455Y81542D01*
X332553Y81458D01*
X332638Y81387D01*
X332695Y81345D01*
X332709Y81331D01*
X333061Y81035D01*
X333385Y80753D01*
X333653Y80499D01*
X333865Y80287D01*
X334048Y80104D01*
X334175Y79977D01*
X334245Y79893D01*
X334273Y79879D01*
Y79865D01*
X334471Y79625D01*
X334626Y79399D01*
X334767Y79174D01*
X334879Y78976D01*
X334964Y78807D01*
X335020Y78680D01*
X335049Y78596D01*
X335063Y78582D01*
Y78568D01*
X335119Y78412D01*
X335147Y78272D01*
X335176Y78131D01*
X335190Y78004D01*
X335204Y77891D01*
Y77806D01*
Y77750D01*
Y77736D01*
X328733D01*
Y78892D01*
X333540D01*
X333371Y79131D01*
X333287Y79230D01*
X333216Y79329D01*
X333146Y79413D01*
X333089Y79470D01*
X333047Y79512D01*
X333033Y79526D01*
X332962Y79597D01*
X332878Y79667D01*
X332680Y79850D01*
X332455Y80062D01*
X332215Y80273D01*
X331990Y80457D01*
X331891Y80541D01*
X331806Y80626D01*
X331736Y80682D01*
X331679Y80724D01*
X331651Y80753D01*
X331637Y80767D01*
X331412Y80964D01*
X331186Y81147D01*
X330989Y81331D01*
X330806Y81486D01*
X330636Y81641D01*
X330495Y81782D01*
X330354Y81909D01*
X330242Y82021D01*
X330129Y82134D01*
X330044Y82219D01*
X329974Y82289D01*
X329903Y82360D01*
X329833Y82444D01*
X329805Y82472D01*
X329607Y82712D01*
X329438Y82924D01*
X329297Y83135D01*
X329184Y83304D01*
X329100Y83459D01*
X329043Y83572D01*
X329015Y83643D01*
X329001Y83671D01*
X328917Y83882D01*
X328860Y84094D01*
X328804Y84291D01*
X328775Y84460D01*
X328761Y84615D01*
X328747Y84728D01*
Y84798D01*
Y84827D01*
X328761Y85038D01*
X328790Y85236D01*
X328818Y85433D01*
X328874Y85602D01*
X329015Y85940D01*
X329156Y86208D01*
X329241Y86335D01*
X329311Y86434D01*
X329382Y86532D01*
X329452Y86603D01*
X329509Y86659D01*
X329537Y86716D01*
X329565Y86730D01*
X329579Y86744D01*
X329734Y86885D01*
X329903Y87012D01*
X330087Y87110D01*
X330270Y87195D01*
X330636Y87336D01*
X331003Y87435D01*
X331158Y87463D01*
X331313Y87491D01*
X331454Y87505D01*
X331567Y87519D01*
X331665Y87533D01*
X331806D01*
X332060Y87519D01*
D02*
G37*
G36*
X344367Y81852D02*
Y81570D01*
X344353Y81302D01*
X344339Y81049D01*
X344310Y80809D01*
X344282Y80598D01*
X344254Y80400D01*
X344212Y80217D01*
X344184Y80048D01*
X344155Y79893D01*
X344113Y79766D01*
X344085Y79653D01*
X344057Y79569D01*
X344028Y79498D01*
X344014Y79442D01*
X344000Y79413D01*
Y79399D01*
X343845Y79089D01*
X343648Y78807D01*
X343451Y78582D01*
X343239Y78384D01*
X343056Y78229D01*
X342901Y78116D01*
X342844Y78088D01*
X342802Y78060D01*
X342774Y78032D01*
X342760D01*
X342407Y77877D01*
X342041Y77764D01*
X341660Y77680D01*
X341308Y77623D01*
X341153Y77609D01*
X340998Y77595D01*
X340857Y77581D01*
X340744D01*
X340645Y77567D01*
X340518D01*
X340011Y77595D01*
X339785Y77623D01*
X339574Y77651D01*
X339362Y77694D01*
X339179Y77736D01*
X339010Y77778D01*
X338855Y77835D01*
X338714Y77891D01*
X338601Y77933D01*
X338488Y77976D01*
X338404Y78018D01*
X338333Y78060D01*
X338291Y78074D01*
X338263Y78102D01*
X338249D01*
X337938Y78314D01*
X337685Y78554D01*
X337487Y78779D01*
X337318Y79005D01*
X337191Y79202D01*
X337107Y79357D01*
X337079Y79413D01*
X337050Y79456D01*
X337036Y79484D01*
Y79498D01*
X336980Y79667D01*
X336924Y79850D01*
X336839Y80231D01*
X336783Y80626D01*
X336740Y81006D01*
X336726Y81176D01*
X336712Y81345D01*
Y81486D01*
X336698Y81613D01*
Y81711D01*
Y81782D01*
Y81838D01*
Y81852D01*
Y87491D01*
X337995D01*
Y81852D01*
Y81528D01*
X338023Y81218D01*
X338051Y80950D01*
X338094Y80696D01*
X338136Y80471D01*
X338192Y80259D01*
X338235Y80076D01*
X338291Y79921D01*
X338347Y79794D01*
X338404Y79667D01*
X338460Y79583D01*
X338502Y79498D01*
X338545Y79442D01*
X338573Y79399D01*
X338587Y79385D01*
X338601Y79371D01*
X338728Y79258D01*
X338869Y79160D01*
X339179Y79005D01*
X339503Y78892D01*
X339842Y78821D01*
X340152Y78765D01*
X340279Y78751D01*
X340406D01*
X340490Y78737D01*
X340631D01*
X340927Y78751D01*
X341195Y78793D01*
X341449Y78836D01*
X341646Y78906D01*
X341815Y78962D01*
X341942Y79005D01*
X342013Y79047D01*
X342041Y79061D01*
X342238Y79188D01*
X342407Y79343D01*
X342548Y79498D01*
X342647Y79639D01*
X342732Y79780D01*
X342802Y79879D01*
X342830Y79949D01*
X342844Y79977D01*
X342887Y80104D01*
X342915Y80231D01*
X342971Y80527D01*
X343013Y80837D01*
X343042Y81147D01*
X343056Y81415D01*
Y81542D01*
X343070Y81641D01*
Y81725D01*
Y81796D01*
Y81838D01*
Y81852D01*
Y87491D01*
X344367D01*
Y81852D01*
D02*
G37*
G36*
X331815Y246044D02*
X331970Y245818D01*
X332153Y245592D01*
X332322Y245395D01*
X332491Y245226D01*
X332618Y245085D01*
X332675Y245043D01*
X332717Y245000D01*
X332731Y244986D01*
X332745Y244972D01*
X333041Y244733D01*
X333337Y244507D01*
X333619Y244310D01*
X333901Y244155D01*
X334141Y244014D01*
X334239Y243957D01*
X334324Y243915D01*
X334394Y243873D01*
X334451Y243859D01*
X334479Y243830D01*
X334493D01*
Y242675D01*
X334282Y242759D01*
X334070Y242858D01*
X333859Y242956D01*
X333661Y243055D01*
X333492Y243140D01*
X333351Y243210D01*
X333267Y243267D01*
X333253Y243281D01*
X333238D01*
X332985Y243436D01*
X332759Y243591D01*
X332562Y243732D01*
X332407Y243859D01*
X332266Y243957D01*
X332181Y244042D01*
X332111Y244098D01*
X332097Y244112D01*
Y236486D01*
X330898D01*
Y246283D01*
X331674D01*
X331815Y246044D01*
D02*
G37*
G36*
X344742Y240602D02*
Y240320D01*
X344728Y240052D01*
X344713Y239799D01*
X344685Y239559D01*
X344657Y239348D01*
X344629Y239150D01*
X344587Y238967D01*
X344558Y238798D01*
X344530Y238643D01*
X344488Y238516D01*
X344460Y238403D01*
X344431Y238319D01*
X344403Y238248D01*
X344389Y238192D01*
X344375Y238163D01*
Y238149D01*
X344220Y237839D01*
X344023Y237557D01*
X343825Y237332D01*
X343614Y237134D01*
X343431Y236979D01*
X343275Y236866D01*
X343219Y236838D01*
X343177Y236810D01*
X343149Y236782D01*
X343135D01*
X342782Y236627D01*
X342416Y236514D01*
X342035Y236430D01*
X341683Y236373D01*
X341527Y236359D01*
X341372Y236345D01*
X341231Y236331D01*
X341119D01*
X341020Y236317D01*
X340893D01*
X340386Y236345D01*
X340160Y236373D01*
X339949Y236401D01*
X339737Y236444D01*
X339554Y236486D01*
X339385Y236528D01*
X339230Y236585D01*
X339089Y236641D01*
X338976Y236683D01*
X338863Y236726D01*
X338779Y236768D01*
X338708Y236810D01*
X338666Y236824D01*
X338638Y236852D01*
X338624D01*
X338313Y237064D01*
X338060Y237304D01*
X337862Y237529D01*
X337693Y237755D01*
X337566Y237952D01*
X337482Y238107D01*
X337453Y238163D01*
X337425Y238206D01*
X337411Y238234D01*
Y238248D01*
X337355Y238417D01*
X337298Y238600D01*
X337214Y238981D01*
X337157Y239376D01*
X337115Y239756D01*
X337101Y239926D01*
X337087Y240095D01*
Y240236D01*
X337073Y240363D01*
Y240461D01*
Y240532D01*
Y240588D01*
Y240602D01*
Y246241D01*
X338370D01*
Y240602D01*
Y240278D01*
X338398Y239968D01*
X338426Y239700D01*
X338469Y239446D01*
X338511Y239221D01*
X338567Y239009D01*
X338609Y238826D01*
X338666Y238671D01*
X338722Y238544D01*
X338779Y238417D01*
X338835Y238333D01*
X338877Y238248D01*
X338920Y238192D01*
X338948Y238149D01*
X338962Y238135D01*
X338976Y238121D01*
X339103Y238008D01*
X339244Y237910D01*
X339554Y237755D01*
X339878Y237642D01*
X340216Y237571D01*
X340527Y237515D01*
X340653Y237501D01*
X340780D01*
X340865Y237487D01*
X341006D01*
X341302Y237501D01*
X341570Y237543D01*
X341824Y237586D01*
X342021Y237656D01*
X342190Y237712D01*
X342317Y237755D01*
X342387Y237797D01*
X342416Y237811D01*
X342613Y237938D01*
X342782Y238093D01*
X342923Y238248D01*
X343022Y238389D01*
X343106Y238530D01*
X343177Y238629D01*
X343205Y238699D01*
X343219Y238727D01*
X343261Y238854D01*
X343290Y238981D01*
X343346Y239277D01*
X343388Y239587D01*
X343416Y239897D01*
X343431Y240165D01*
Y240292D01*
X343445Y240391D01*
Y240475D01*
Y240546D01*
Y240588D01*
Y240602D01*
Y246241D01*
X344742D01*
Y240602D01*
D02*
G37*
G36*
X104633Y148430D02*
X104788Y148205D01*
X104971Y147979D01*
X105140Y147782D01*
X105309Y147613D01*
X105436Y147472D01*
X105493Y147429D01*
X105535Y147387D01*
X105549Y147373D01*
X105563Y147359D01*
X105859Y147119D01*
X106155Y146894D01*
X106437Y146696D01*
X106719Y146541D01*
X106959Y146400D01*
X107057Y146344D01*
X107142Y146302D01*
X107212Y146259D01*
X107269Y146245D01*
X107297Y146217D01*
X107311D01*
Y145061D01*
X107100Y145146D01*
X106888Y145244D01*
X106677Y145343D01*
X106479Y145442D01*
X106310Y145526D01*
X106169Y145597D01*
X106085Y145653D01*
X106071Y145667D01*
X106056D01*
X105803Y145822D01*
X105577Y145977D01*
X105380Y146118D01*
X105225Y146245D01*
X105084Y146344D01*
X104999Y146428D01*
X104929Y146485D01*
X104915Y146499D01*
Y138872D01*
X103716D01*
Y148670D01*
X104492D01*
X104633Y148430D01*
D02*
G37*
G36*
X113838Y148783D02*
X114162Y148740D01*
X114472Y148684D01*
X114740Y148628D01*
X114952Y148571D01*
X115050Y148543D01*
X115121Y148515D01*
X115177Y148487D01*
X115219Y148472D01*
X115248Y148458D01*
X115262D01*
X115544Y148317D01*
X115798Y148162D01*
X116009Y147993D01*
X116178Y147838D01*
X116305Y147697D01*
X116404Y147584D01*
X116474Y147500D01*
X116488Y147486D01*
Y147472D01*
X116629Y147232D01*
X116728Y146992D01*
X116798Y146753D01*
X116841Y146541D01*
X116869Y146358D01*
X116897Y146217D01*
Y146161D01*
Y146118D01*
Y146104D01*
Y146090D01*
X116883Y145850D01*
X116841Y145625D01*
X116784Y145414D01*
X116728Y145230D01*
X116671Y145089D01*
X116615Y144976D01*
X116573Y144906D01*
X116559Y144878D01*
X116418Y144680D01*
X116249Y144497D01*
X116079Y144342D01*
X115910Y144215D01*
X115769Y144102D01*
X115642Y144032D01*
X115558Y143976D01*
X115544Y143961D01*
X115530D01*
X115417Y143905D01*
X115290Y143849D01*
X115008Y143750D01*
X114684Y143651D01*
X114374Y143553D01*
X114092Y143468D01*
X113965Y143440D01*
X113852Y143412D01*
X113767Y143384D01*
X113697Y143369D01*
X113655Y143355D01*
X113641D01*
X113401Y143299D01*
X113175Y143243D01*
X112978Y143186D01*
X112809Y143144D01*
X112640Y143102D01*
X112499Y143059D01*
X112372Y143031D01*
X112273Y142989D01*
X112175Y142961D01*
X112104Y142947D01*
X111991Y142904D01*
X111921Y142890D01*
X111907Y142876D01*
X111695Y142791D01*
X111512Y142693D01*
X111357Y142594D01*
X111244Y142509D01*
X111145Y142425D01*
X111089Y142368D01*
X111047Y142326D01*
X111033Y142312D01*
X110934Y142185D01*
X110864Y142044D01*
X110821Y141903D01*
X110779Y141791D01*
X110765Y141678D01*
X110751Y141593D01*
Y141523D01*
Y141509D01*
X110765Y141339D01*
X110793Y141184D01*
X110835Y141043D01*
X110892Y140931D01*
X110948Y140818D01*
X110990Y140747D01*
X111019Y140691D01*
X111033Y140677D01*
X111145Y140536D01*
X111286Y140423D01*
X111427Y140324D01*
X111554Y140226D01*
X111681Y140169D01*
X111780Y140113D01*
X111850Y140085D01*
X111878Y140071D01*
X112090Y140000D01*
X112316Y139944D01*
X112541Y139916D01*
X112739Y139887D01*
X112908Y139873D01*
X113049Y139859D01*
X113175D01*
X113486Y139873D01*
X113767Y139902D01*
X114021Y139944D01*
X114247Y140000D01*
X114430Y140057D01*
X114571Y140099D01*
X114613Y140113D01*
X114656Y140127D01*
X114670Y140141D01*
X114684D01*
X114909Y140254D01*
X115121Y140381D01*
X115276Y140508D01*
X115417Y140635D01*
X115530Y140733D01*
X115600Y140832D01*
X115642Y140888D01*
X115656Y140902D01*
X115755Y141086D01*
X115854Y141283D01*
X115910Y141495D01*
X115967Y141678D01*
X116009Y141861D01*
X116037Y141988D01*
Y142044D01*
X116051Y142087D01*
Y142101D01*
Y142115D01*
X117264Y142002D01*
X117235Y141650D01*
X117179Y141311D01*
X117094Y141015D01*
X116996Y140747D01*
X116897Y140536D01*
X116855Y140451D01*
X116827Y140381D01*
X116784Y140324D01*
X116770Y140282D01*
X116742Y140254D01*
Y140240D01*
X116531Y139972D01*
X116305Y139732D01*
X116065Y139535D01*
X115840Y139366D01*
X115642Y139239D01*
X115473Y139154D01*
X115417Y139126D01*
X115375Y139098D01*
X115346Y139084D01*
X115332D01*
X114980Y138957D01*
X114613Y138858D01*
X114247Y138802D01*
X113894Y138746D01*
X113725Y138731D01*
X113584Y138717D01*
X113457D01*
X113345Y138703D01*
X113119D01*
X112739Y138717D01*
X112386Y138760D01*
X112062Y138830D01*
X111794Y138901D01*
X111568Y138957D01*
X111470Y138999D01*
X111385Y139028D01*
X111329Y139056D01*
X111286Y139070D01*
X111258Y139084D01*
X111244D01*
X110948Y139239D01*
X110694Y139408D01*
X110469Y139591D01*
X110286Y139761D01*
X110145Y139902D01*
X110046Y140028D01*
X109975Y140113D01*
X109961Y140127D01*
Y140141D01*
X109806Y140409D01*
X109693Y140663D01*
X109623Y140902D01*
X109567Y141128D01*
X109538Y141325D01*
X109510Y141480D01*
Y141537D01*
Y141579D01*
Y141593D01*
Y141607D01*
X109524Y141889D01*
X109567Y142157D01*
X109637Y142397D01*
X109708Y142594D01*
X109792Y142763D01*
X109849Y142890D01*
X109905Y142961D01*
X109919Y142989D01*
X110088Y143200D01*
X110286Y143398D01*
X110497Y143567D01*
X110709Y143722D01*
X110892Y143835D01*
X111047Y143919D01*
X111103Y143947D01*
X111145Y143976D01*
X111174Y143990D01*
X111188D01*
X111301Y144046D01*
X111441Y144088D01*
X111597Y144145D01*
X111766Y144201D01*
X112118Y144300D01*
X112485Y144398D01*
X112654Y144441D01*
X112809Y144483D01*
X112964Y144525D01*
X113091Y144553D01*
X113190Y144582D01*
X113274Y144596D01*
X113330Y144610D01*
X113345D01*
X113627Y144680D01*
X113880Y144737D01*
X114106Y144807D01*
X114303Y144864D01*
X114487Y144934D01*
X114642Y144991D01*
X114782Y145047D01*
X114909Y145089D01*
X115008Y145146D01*
X115093Y145188D01*
X115149Y145216D01*
X115205Y145258D01*
X115276Y145301D01*
X115290Y145315D01*
X115417Y145456D01*
X115501Y145597D01*
X115572Y145738D01*
X115614Y145879D01*
X115642Y145991D01*
X115656Y146090D01*
Y146146D01*
Y146175D01*
X115628Y146400D01*
X115572Y146598D01*
X115487Y146767D01*
X115389Y146922D01*
X115304Y147035D01*
X115219Y147133D01*
X115163Y147190D01*
X115135Y147204D01*
X115022Y147274D01*
X114909Y147345D01*
X114642Y147458D01*
X114360Y147528D01*
X114078Y147584D01*
X113824Y147613D01*
X113711Y147627D01*
X113627Y147641D01*
X113429D01*
X113034Y147627D01*
X112682Y147570D01*
X112400Y147486D01*
X112161Y147401D01*
X111977Y147317D01*
X111836Y147232D01*
X111766Y147176D01*
X111738Y147162D01*
X111540Y146964D01*
X111385Y146753D01*
X111258Y146527D01*
X111174Y146302D01*
X111117Y146090D01*
X111075Y145935D01*
X111061Y145865D01*
X111047Y145822D01*
Y145794D01*
Y145780D01*
X109806Y145879D01*
X109834Y146189D01*
X109905Y146471D01*
X109975Y146739D01*
X110074Y146964D01*
X110159Y147147D01*
X110229Y147288D01*
X110257Y147331D01*
X110286Y147373D01*
X110300Y147387D01*
Y147401D01*
X110483Y147641D01*
X110680Y147852D01*
X110892Y148035D01*
X111103Y148176D01*
X111286Y148303D01*
X111427Y148374D01*
X111484Y148402D01*
X111526Y148430D01*
X111554Y148444D01*
X111568D01*
X111878Y148557D01*
X112217Y148642D01*
X112527Y148712D01*
X112823Y148754D01*
X113091Y148783D01*
X113190D01*
X113288Y148797D01*
X113471D01*
X113838Y148783D01*
D02*
G37*
G36*
X472134Y220855D02*
X472514Y220785D01*
X472839Y220672D01*
X473120Y220559D01*
X473247Y220489D01*
X473346Y220432D01*
X473445Y220376D01*
X473515Y220319D01*
X473572Y220277D01*
X473614Y220249D01*
X473642Y220235D01*
X473656Y220221D01*
X473924Y219953D01*
X474135Y219657D01*
X474305Y219347D01*
X474446Y219037D01*
X474530Y218769D01*
X474572Y218656D01*
X474601Y218557D01*
X474615Y218473D01*
X474629Y218416D01*
X474643Y218374D01*
Y218360D01*
X473445Y218148D01*
X473388Y218459D01*
X473304Y218727D01*
X473205Y218952D01*
X473106Y219135D01*
X473008Y219276D01*
X472923Y219375D01*
X472867Y219445D01*
X472853Y219459D01*
X472669Y219601D01*
X472472Y219713D01*
X472289Y219784D01*
X472105Y219840D01*
X471936Y219868D01*
X471809Y219897D01*
X471697D01*
X471443Y219882D01*
X471217Y219826D01*
X471020Y219755D01*
X470851Y219685D01*
X470724Y219601D01*
X470625Y219530D01*
X470555Y219474D01*
X470541Y219459D01*
X470386Y219290D01*
X470273Y219107D01*
X470202Y218924D01*
X470146Y218755D01*
X470118Y218600D01*
X470090Y218487D01*
Y218402D01*
Y218388D01*
Y218374D01*
Y218219D01*
X470118Y218078D01*
X470188Y217838D01*
X470287Y217627D01*
X470400Y217444D01*
X470513Y217317D01*
X470611Y217218D01*
X470682Y217162D01*
X470696Y217148D01*
X470710D01*
X470950Y217021D01*
X471175Y216922D01*
X471415Y216852D01*
X471626Y216809D01*
X471809Y216781D01*
X471964Y216753D01*
X472148D01*
X472204Y216767D01*
X472275D01*
X472416Y215710D01*
X472232Y215752D01*
X472063Y215780D01*
X471922Y215808D01*
X471795Y215823D01*
X471697Y215837D01*
X471570D01*
X471274Y215808D01*
X471006Y215752D01*
X470766Y215667D01*
X470569Y215569D01*
X470414Y215470D01*
X470301Y215385D01*
X470231Y215329D01*
X470202Y215301D01*
X470019Y215089D01*
X469878Y214864D01*
X469780Y214638D01*
X469723Y214413D01*
X469681Y214230D01*
X469667Y214074D01*
X469653Y214018D01*
Y213976D01*
Y213948D01*
Y213934D01*
X469681Y213623D01*
X469751Y213341D01*
X469836Y213102D01*
X469949Y212890D01*
X470061Y212721D01*
X470146Y212594D01*
X470216Y212510D01*
X470245Y212481D01*
X470470Y212284D01*
X470710Y212143D01*
X470950Y212045D01*
X471175Y211974D01*
X471372Y211932D01*
X471527Y211918D01*
X471584Y211903D01*
X471669D01*
X471922Y211918D01*
X472162Y211974D01*
X472373Y212045D01*
X472542Y212129D01*
X472683Y212200D01*
X472796Y212270D01*
X472853Y212326D01*
X472881Y212341D01*
X473050Y212538D01*
X473191Y212763D01*
X473318Y213003D01*
X473416Y213257D01*
X473487Y213468D01*
X473515Y213567D01*
X473529Y213652D01*
X473543Y213722D01*
X473558Y213778D01*
X473572Y213807D01*
Y213821D01*
X474770Y213666D01*
X474742Y213440D01*
X474699Y213229D01*
X474572Y212834D01*
X474417Y212496D01*
X474333Y212355D01*
X474248Y212214D01*
X474164Y212087D01*
X474079Y211988D01*
X474009Y211889D01*
X473938Y211819D01*
X473896Y211763D01*
X473853Y211720D01*
X473825Y211692D01*
X473811Y211678D01*
X473642Y211551D01*
X473473Y211424D01*
X473304Y211325D01*
X473120Y211241D01*
X472768Y211100D01*
X472430Y211015D01*
X472275Y210987D01*
X472134Y210959D01*
X472007Y210945D01*
X471894Y210931D01*
X471809Y210917D01*
X471683D01*
X471415Y210931D01*
X471175Y210959D01*
X470935Y211001D01*
X470710Y211058D01*
X470498Y211128D01*
X470315Y211199D01*
X470132Y211283D01*
X469977Y211368D01*
X469822Y211438D01*
X469695Y211523D01*
X469582Y211593D01*
X469497Y211664D01*
X469427Y211720D01*
X469371Y211763D01*
X469342Y211791D01*
X469328Y211805D01*
X469159Y211974D01*
X469018Y212157D01*
X468891Y212341D01*
X468779Y212524D01*
X468694Y212693D01*
X468609Y212876D01*
X468497Y213214D01*
X468469Y213370D01*
X468440Y213511D01*
X468412Y213637D01*
X468398Y213750D01*
X468384Y213835D01*
Y213905D01*
Y213948D01*
Y213962D01*
X468398Y214300D01*
X468454Y214610D01*
X468539Y214878D01*
X468624Y215103D01*
X468708Y215287D01*
X468793Y215428D01*
X468849Y215512D01*
X468863Y215541D01*
X469061Y215752D01*
X469272Y215935D01*
X469497Y216076D01*
X469723Y216189D01*
X469920Y216274D01*
X470075Y216330D01*
X470132Y216344D01*
X470174Y216358D01*
X470202Y216372D01*
X470216D01*
X469977Y216499D01*
X469780Y216626D01*
X469610Y216767D01*
X469469Y216894D01*
X469357Y217007D01*
X469272Y217105D01*
X469230Y217162D01*
X469216Y217190D01*
X469103Y217387D01*
X469018Y217585D01*
X468948Y217782D01*
X468905Y217965D01*
X468877Y218120D01*
X468863Y218233D01*
Y218318D01*
Y218346D01*
X468877Y218585D01*
X468920Y218825D01*
X468976Y219037D01*
X469046Y219220D01*
X469117Y219375D01*
X469173Y219502D01*
X469216Y219572D01*
X469230Y219601D01*
X469371Y219812D01*
X469540Y219995D01*
X469709Y220150D01*
X469878Y220291D01*
X470019Y220390D01*
X470146Y220474D01*
X470231Y220517D01*
X470245Y220531D01*
X470259D01*
X470513Y220644D01*
X470766Y220728D01*
X471020Y220799D01*
X471246Y220841D01*
X471429Y220869D01*
X471584Y220883D01*
X471936D01*
X472134Y220855D01*
D02*
G37*
G36*
X484116Y211086D02*
X482819D01*
Y215414D01*
X481156D01*
X481001Y215400D01*
X480888D01*
X480789Y215385D01*
X480719Y215371D01*
X480662D01*
X480634Y215357D01*
X480620D01*
X480395Y215287D01*
X480296Y215245D01*
X480211Y215202D01*
X480127Y215160D01*
X480070Y215132D01*
X480042Y215118D01*
X480028Y215103D01*
X479915Y215019D01*
X479802Y214920D01*
X479591Y214709D01*
X479492Y214610D01*
X479422Y214526D01*
X479380Y214469D01*
X479365Y214455D01*
X479225Y214258D01*
X479069Y214046D01*
X478914Y213821D01*
X478759Y213609D01*
X478632Y213412D01*
X478534Y213257D01*
X478491Y213200D01*
X478463Y213158D01*
X478435Y213130D01*
Y213116D01*
X477152Y211086D01*
X475545D01*
X477223Y213736D01*
X477420Y214018D01*
X477603Y214272D01*
X477787Y214483D01*
X477942Y214681D01*
X478083Y214822D01*
X478195Y214934D01*
X478266Y215005D01*
X478294Y215033D01*
X478407Y215118D01*
X478534Y215216D01*
X478787Y215371D01*
X478900Y215428D01*
X478985Y215484D01*
X479041Y215512D01*
X479069Y215526D01*
X478816Y215569D01*
X478576Y215611D01*
X478365Y215681D01*
X478153Y215738D01*
X477970Y215808D01*
X477801Y215893D01*
X477646Y215963D01*
X477505Y216034D01*
X477392Y216119D01*
X477279Y216189D01*
X477195Y216245D01*
X477124Y216302D01*
X477068Y216344D01*
X477025Y216386D01*
X477011Y216401D01*
X476997Y216415D01*
X476884Y216556D01*
X476772Y216696D01*
X476602Y216992D01*
X476490Y217289D01*
X476405Y217570D01*
X476349Y217810D01*
X476335Y217909D01*
Y218008D01*
X476320Y218078D01*
Y218134D01*
Y218163D01*
Y218177D01*
X476335Y218473D01*
X476377Y218741D01*
X476447Y218994D01*
X476518Y219206D01*
X476602Y219389D01*
X476659Y219530D01*
X476715Y219615D01*
X476729Y219629D01*
Y219643D01*
X476898Y219868D01*
X477068Y220066D01*
X477251Y220235D01*
X477420Y220362D01*
X477575Y220460D01*
X477702Y220517D01*
X477787Y220559D01*
X477801Y220573D01*
X477815D01*
X477942Y220616D01*
X478097Y220658D01*
X478407Y220728D01*
X478745Y220770D01*
X479055Y220813D01*
X479351Y220827D01*
X479478D01*
X479591Y220841D01*
X484116D01*
Y211086D01*
D02*
G37*
G36*
X440010Y246185D02*
X440250Y246171D01*
X440475Y246128D01*
X440687Y246086D01*
X440884Y246030D01*
X441067Y245973D01*
X441236Y245903D01*
X441392Y245832D01*
X441533Y245762D01*
X441645Y245691D01*
X441744Y245635D01*
X441829Y245578D01*
X441899Y245536D01*
X441941Y245494D01*
X441970Y245480D01*
X441984Y245466D01*
X442125Y245325D01*
X442252Y245170D01*
X442378Y245000D01*
X442477Y244831D01*
X442646Y244493D01*
X442759Y244155D01*
X442801Y244000D01*
X442844Y243845D01*
X442872Y243718D01*
X442900Y243605D01*
X442914Y243506D01*
Y243436D01*
X442928Y243393D01*
Y243379D01*
X441702Y243252D01*
X441674Y243577D01*
X441617Y243859D01*
X441533Y244112D01*
X441434Y244310D01*
X441349Y244479D01*
X441265Y244592D01*
X441208Y244662D01*
X441180Y244690D01*
X440969Y244860D01*
X440743Y244986D01*
X440504Y245085D01*
X440292Y245141D01*
X440095Y245184D01*
X439925Y245198D01*
X439869Y245212D01*
X439785D01*
X439488Y245198D01*
X439221Y245141D01*
X438995Y245057D01*
X438798Y244972D01*
X438643Y244874D01*
X438544Y244803D01*
X438474Y244747D01*
X438445Y244718D01*
X438276Y244521D01*
X438149Y244324D01*
X438051Y244126D01*
X437994Y243929D01*
X437952Y243774D01*
X437938Y243633D01*
X437924Y243549D01*
Y243534D01*
Y243520D01*
X437952Y243267D01*
X438008Y242999D01*
X438107Y242759D01*
X438206Y242533D01*
X438318Y242350D01*
X438417Y242195D01*
X438445Y242139D01*
X438474Y242097D01*
X438502Y242082D01*
Y242068D01*
X438615Y241913D01*
X438755Y241758D01*
X438910Y241589D01*
X439080Y241420D01*
X439432Y241082D01*
X439785Y240743D01*
X439968Y240588D01*
X440123Y240447D01*
X440278Y240320D01*
X440405Y240208D01*
X440504Y240123D01*
X440588Y240052D01*
X440644Y240010D01*
X440659Y239996D01*
X441011Y239700D01*
X441335Y239418D01*
X441603Y239164D01*
X441814Y238953D01*
X441998Y238770D01*
X442125Y238643D01*
X442195Y238558D01*
X442223Y238544D01*
Y238530D01*
X442421Y238290D01*
X442576Y238065D01*
X442717Y237839D01*
X442830Y237642D01*
X442914Y237473D01*
X442971Y237346D01*
X442999Y237261D01*
X443013Y237247D01*
Y237233D01*
X443069Y237078D01*
X443097Y236937D01*
X443125Y236796D01*
X443140Y236669D01*
X443154Y236556D01*
Y236472D01*
Y236415D01*
Y236401D01*
X436683D01*
Y237557D01*
X441490D01*
X441321Y237797D01*
X441236Y237896D01*
X441166Y237994D01*
X441096Y238079D01*
X441039Y238135D01*
X440997Y238178D01*
X440983Y238192D01*
X440912Y238262D01*
X440828Y238333D01*
X440630Y238516D01*
X440405Y238727D01*
X440165Y238939D01*
X439940Y239122D01*
X439841Y239207D01*
X439756Y239291D01*
X439686Y239348D01*
X439630Y239390D01*
X439601Y239418D01*
X439587Y239432D01*
X439362Y239629D01*
X439136Y239813D01*
X438939Y239996D01*
X438755Y240151D01*
X438586Y240306D01*
X438445Y240447D01*
X438304Y240574D01*
X438192Y240687D01*
X438079Y240800D01*
X437994Y240884D01*
X437924Y240955D01*
X437853Y241025D01*
X437783Y241110D01*
X437755Y241138D01*
X437557Y241378D01*
X437388Y241589D01*
X437247Y241800D01*
X437134Y241970D01*
X437050Y242125D01*
X436993Y242237D01*
X436965Y242308D01*
X436951Y242336D01*
X436866Y242548D01*
X436810Y242759D01*
X436754Y242956D01*
X436726Y243126D01*
X436711Y243281D01*
X436697Y243393D01*
Y243464D01*
Y243492D01*
X436711Y243704D01*
X436740Y243901D01*
X436768Y244098D01*
X436824Y244267D01*
X436965Y244606D01*
X437106Y244874D01*
X437191Y245000D01*
X437261Y245099D01*
X437332Y245198D01*
X437402Y245268D01*
X437458Y245325D01*
X437487Y245381D01*
X437515Y245395D01*
X437529Y245409D01*
X437684Y245550D01*
X437853Y245677D01*
X438036Y245776D01*
X438220Y245860D01*
X438586Y246001D01*
X438953Y246100D01*
X439108Y246128D01*
X439263Y246156D01*
X439404Y246171D01*
X439517Y246185D01*
X439615Y246199D01*
X439756D01*
X440010Y246185D01*
D02*
G37*
G36*
X452317Y236401D02*
X451020D01*
Y240729D01*
X449356D01*
X449201Y240715D01*
X449089D01*
X448990Y240701D01*
X448919Y240687D01*
X448863D01*
X448835Y240673D01*
X448821D01*
X448595Y240602D01*
X448497Y240560D01*
X448412Y240518D01*
X448327Y240475D01*
X448271Y240447D01*
X448243Y240433D01*
X448229Y240419D01*
X448116Y240334D01*
X448003Y240236D01*
X447792Y240024D01*
X447693Y239926D01*
X447622Y239841D01*
X447580Y239785D01*
X447566Y239771D01*
X447425Y239573D01*
X447270Y239362D01*
X447115Y239136D01*
X446960Y238925D01*
X446833Y238727D01*
X446734Y238572D01*
X446692Y238516D01*
X446664Y238474D01*
X446636Y238445D01*
Y238431D01*
X445353Y236401D01*
X443746D01*
X445423Y239051D01*
X445621Y239333D01*
X445804Y239587D01*
X445987Y239799D01*
X446142Y239996D01*
X446283Y240137D01*
X446396Y240250D01*
X446466Y240320D01*
X446495Y240348D01*
X446608Y240433D01*
X446734Y240532D01*
X446988Y240687D01*
X447101Y240743D01*
X447186Y240800D01*
X447242Y240828D01*
X447270Y240842D01*
X447016Y240884D01*
X446777Y240926D01*
X446565Y240997D01*
X446354Y241053D01*
X446171Y241124D01*
X446001Y241208D01*
X445846Y241279D01*
X445705Y241349D01*
X445592Y241434D01*
X445480Y241504D01*
X445395Y241561D01*
X445325Y241617D01*
X445268Y241660D01*
X445226Y241702D01*
X445212Y241716D01*
X445198Y241730D01*
X445085Y241871D01*
X444972Y242012D01*
X444803Y242308D01*
X444690Y242604D01*
X444606Y242886D01*
X444549Y243126D01*
X444535Y243224D01*
Y243323D01*
X444521Y243393D01*
Y243450D01*
Y243478D01*
Y243492D01*
X444535Y243788D01*
X444577Y244056D01*
X444648Y244310D01*
X444719Y244521D01*
X444803Y244704D01*
X444860Y244845D01*
X444916Y244930D01*
X444930Y244944D01*
Y244958D01*
X445099Y245184D01*
X445268Y245381D01*
X445452Y245550D01*
X445621Y245677D01*
X445776Y245776D01*
X445903Y245832D01*
X445987Y245875D01*
X446001Y245889D01*
X446015D01*
X446142Y245931D01*
X446297Y245973D01*
X446608Y246044D01*
X446946Y246086D01*
X447256Y246128D01*
X447552Y246142D01*
X447679D01*
X447792Y246156D01*
X452317D01*
Y236401D01*
D02*
G37*
G36*
X495645Y245959D02*
X495800Y245734D01*
X495983Y245508D01*
X496152Y245311D01*
X496321Y245141D01*
X496448Y245000D01*
X496505Y244958D01*
X496547Y244916D01*
X496561Y244902D01*
X496575Y244888D01*
X496871Y244648D01*
X497167Y244422D01*
X497449Y244225D01*
X497731Y244070D01*
X497971Y243929D01*
X498069Y243873D01*
X498154Y243830D01*
X498224Y243788D01*
X498281Y243774D01*
X498309Y243746D01*
X498323D01*
Y242590D01*
X498112Y242675D01*
X497900Y242773D01*
X497689Y242872D01*
X497491Y242971D01*
X497322Y243055D01*
X497181Y243126D01*
X497097Y243182D01*
X497083Y243196D01*
X497068D01*
X496815Y243351D01*
X496589Y243506D01*
X496392Y243647D01*
X496237Y243774D01*
X496096Y243873D01*
X496011Y243957D01*
X495941Y244014D01*
X495927Y244028D01*
Y236401D01*
X494728D01*
Y246199D01*
X495504D01*
X495645Y245959D01*
D02*
G37*
G36*
X508572Y236401D02*
X507275D01*
Y240729D01*
X505611D01*
X505456Y240715D01*
X505343D01*
X505245Y240701D01*
X505174Y240687D01*
X505118D01*
X505090Y240673D01*
X505076D01*
X504850Y240602D01*
X504751Y240560D01*
X504667Y240518D01*
X504582Y240475D01*
X504526Y240447D01*
X504498Y240433D01*
X504483Y240419D01*
X504371Y240334D01*
X504258Y240236D01*
X504047Y240024D01*
X503948Y239926D01*
X503877Y239841D01*
X503835Y239785D01*
X503821Y239771D01*
X503680Y239573D01*
X503525Y239362D01*
X503370Y239136D01*
X503215Y238925D01*
X503088Y238727D01*
X502989Y238572D01*
X502947Y238516D01*
X502919Y238474D01*
X502891Y238445D01*
Y238431D01*
X501608Y236401D01*
X500001D01*
X501678Y239051D01*
X501876Y239333D01*
X502059Y239587D01*
X502242Y239799D01*
X502397Y239996D01*
X502538Y240137D01*
X502651Y240250D01*
X502721Y240320D01*
X502750Y240348D01*
X502862Y240433D01*
X502989Y240532D01*
X503243Y240687D01*
X503356Y240743D01*
X503440Y240800D01*
X503497Y240828D01*
X503525Y240842D01*
X503271Y240884D01*
X503032Y240926D01*
X502820Y240997D01*
X502609Y241053D01*
X502425Y241124D01*
X502256Y241208D01*
X502101Y241279D01*
X501960Y241349D01*
X501847Y241434D01*
X501735Y241504D01*
X501650Y241561D01*
X501580Y241617D01*
X501523Y241660D01*
X501481Y241702D01*
X501467Y241716D01*
X501453Y241730D01*
X501340Y241871D01*
X501227Y242012D01*
X501058Y242308D01*
X500945Y242604D01*
X500861Y242886D01*
X500804Y243126D01*
X500790Y243224D01*
Y243323D01*
X500776Y243393D01*
Y243450D01*
Y243478D01*
Y243492D01*
X500790Y243788D01*
X500832Y244056D01*
X500903Y244310D01*
X500973Y244521D01*
X501058Y244704D01*
X501114Y244845D01*
X501171Y244930D01*
X501185Y244944D01*
Y244958D01*
X501354Y245184D01*
X501523Y245381D01*
X501706Y245550D01*
X501876Y245677D01*
X502031Y245776D01*
X502158Y245832D01*
X502242Y245875D01*
X502256Y245889D01*
X502270D01*
X502397Y245931D01*
X502552Y245973D01*
X502862Y246044D01*
X503201Y246086D01*
X503511Y246128D01*
X503807Y246142D01*
X503934D01*
X504047Y246156D01*
X508572D01*
Y236401D01*
D02*
G37*
G36*
X529389Y200312D02*
X529544Y200086D01*
X529727Y199861D01*
X529897Y199663D01*
X530066Y199494D01*
X530192Y199353D01*
X530249Y199311D01*
X530291Y199269D01*
X530305Y199254D01*
X530319Y199240D01*
X530615Y199001D01*
X530911Y198775D01*
X531193Y198578D01*
X531475Y198423D01*
X531715Y198282D01*
X531814Y198225D01*
X531898Y198183D01*
X531969Y198141D01*
X532025Y198127D01*
X532053Y198099D01*
X532067D01*
Y196943D01*
X531856Y197027D01*
X531645Y197126D01*
X531433Y197225D01*
X531236Y197323D01*
X531067Y197408D01*
X530925Y197478D01*
X530841Y197535D01*
X530827Y197549D01*
X530813D01*
X530559Y197704D01*
X530334Y197859D01*
X530136Y198000D01*
X529981Y198127D01*
X529840Y198225D01*
X529756Y198310D01*
X529685Y198366D01*
X529671Y198381D01*
Y190754D01*
X528473D01*
Y200551D01*
X529248D01*
X529389Y200312D01*
D02*
G37*
G36*
X535902Y193785D02*
Y193489D01*
X535930Y193235D01*
X535944Y193024D01*
X535972Y192854D01*
X536001Y192728D01*
X536015Y192629D01*
X536043Y192572D01*
Y192558D01*
X536099Y192417D01*
X536170Y192305D01*
X536254Y192206D01*
X536325Y192107D01*
X536409Y192051D01*
X536466Y191994D01*
X536508Y191966D01*
X536522Y191952D01*
X536663Y191882D01*
X536804Y191825D01*
X536945Y191797D01*
X537072Y191769D01*
X537199Y191755D01*
X537283Y191741D01*
X537368D01*
X537593Y191755D01*
X537805Y191811D01*
X537974Y191868D01*
X538129Y191952D01*
X538242Y192023D01*
X538326Y192093D01*
X538383Y192136D01*
X538397Y192150D01*
X538467Y192234D01*
X538524Y192333D01*
X538608Y192558D01*
X538693Y192812D01*
X538735Y193066D01*
X538778Y193306D01*
Y193404D01*
X538792Y193489D01*
X538806Y193573D01*
Y193630D01*
Y193658D01*
Y193672D01*
X539976Y193503D01*
Y193235D01*
X539962Y192995D01*
X539919Y192756D01*
X539891Y192544D01*
X539835Y192347D01*
X539778Y192178D01*
X539722Y192009D01*
X539666Y191868D01*
X539595Y191741D01*
X539539Y191628D01*
X539482Y191529D01*
X539426Y191459D01*
X539384Y191402D01*
X539356Y191346D01*
X539341Y191332D01*
X539327Y191318D01*
X539186Y191191D01*
X539045Y191078D01*
X538890Y190980D01*
X538721Y190895D01*
X538397Y190768D01*
X538087Y190683D01*
X537791Y190627D01*
X537678Y190613D01*
X537565Y190599D01*
X537481Y190585D01*
X537354D01*
X537044Y190599D01*
X536762Y190641D01*
X536508Y190698D01*
X536282Y190768D01*
X536099Y190825D01*
X535972Y190881D01*
X535888Y190923D01*
X535859Y190937D01*
X535634Y191078D01*
X535437Y191247D01*
X535281Y191417D01*
X535140Y191572D01*
X535042Y191727D01*
X534971Y191840D01*
X534929Y191924D01*
X534915Y191938D01*
Y191952D01*
X534816Y192234D01*
X534732Y192530D01*
X534675Y192854D01*
X534647Y193165D01*
X534619Y193432D01*
Y193545D01*
X534605Y193658D01*
Y193743D01*
Y193799D01*
Y193841D01*
Y193855D01*
Y200509D01*
X535902D01*
Y193785D01*
D02*
G37*
G36*
X459053Y246185D02*
X459293Y246171D01*
X459518Y246128D01*
X459730Y246086D01*
X459927Y246030D01*
X460110Y245973D01*
X460280Y245903D01*
X460435Y245832D01*
X460575Y245762D01*
X460688Y245691D01*
X460787Y245635D01*
X460872Y245578D01*
X460942Y245536D01*
X460984Y245494D01*
X461012Y245480D01*
X461027Y245466D01*
X461168Y245325D01*
X461295Y245170D01*
X461421Y245000D01*
X461520Y244831D01*
X461689Y244493D01*
X461802Y244155D01*
X461844Y244000D01*
X461887Y243845D01*
X461915Y243718D01*
X461943Y243605D01*
X461957Y243506D01*
Y243436D01*
X461971Y243393D01*
Y243379D01*
X460745Y243252D01*
X460717Y243577D01*
X460660Y243859D01*
X460575Y244112D01*
X460477Y244310D01*
X460392Y244479D01*
X460308Y244592D01*
X460251Y244662D01*
X460223Y244690D01*
X460012Y244860D01*
X459786Y244986D01*
X459547Y245085D01*
X459335Y245141D01*
X459138Y245184D01*
X458969Y245198D01*
X458912Y245212D01*
X458828D01*
X458531Y245198D01*
X458264Y245141D01*
X458038Y245057D01*
X457841Y244972D01*
X457686Y244874D01*
X457587Y244803D01*
X457517Y244747D01*
X457488Y244718D01*
X457319Y244521D01*
X457192Y244324D01*
X457094Y244126D01*
X457037Y243929D01*
X456995Y243774D01*
X456981Y243633D01*
X456967Y243549D01*
Y243534D01*
Y243520D01*
X456995Y243267D01*
X457051Y242999D01*
X457150Y242759D01*
X457249Y242533D01*
X457361Y242350D01*
X457460Y242195D01*
X457488Y242139D01*
X457517Y242097D01*
X457545Y242082D01*
Y242068D01*
X457658Y241913D01*
X457798Y241758D01*
X457953Y241589D01*
X458123Y241420D01*
X458475Y241082D01*
X458828Y240743D01*
X459011Y240588D01*
X459166Y240447D01*
X459321Y240320D01*
X459448Y240208D01*
X459547Y240123D01*
X459631Y240052D01*
X459687Y240010D01*
X459701Y239996D01*
X460054Y239700D01*
X460378Y239418D01*
X460646Y239164D01*
X460858Y238953D01*
X461041Y238770D01*
X461168Y238643D01*
X461238Y238558D01*
X461266Y238544D01*
Y238530D01*
X461464Y238290D01*
X461619Y238065D01*
X461760Y237839D01*
X461872Y237642D01*
X461957Y237473D01*
X462013Y237346D01*
X462042Y237261D01*
X462056Y237247D01*
Y237233D01*
X462112Y237078D01*
X462140Y236937D01*
X462169Y236796D01*
X462183Y236669D01*
X462197Y236556D01*
Y236472D01*
Y236415D01*
Y236401D01*
X455726D01*
Y237557D01*
X460533D01*
X460364Y237797D01*
X460280Y237896D01*
X460209Y237994D01*
X460139Y238079D01*
X460082Y238135D01*
X460040Y238178D01*
X460026Y238192D01*
X459955Y238262D01*
X459871Y238333D01*
X459673Y238516D01*
X459448Y238727D01*
X459208Y238939D01*
X458983Y239122D01*
X458884Y239207D01*
X458799Y239291D01*
X458729Y239348D01*
X458672Y239390D01*
X458644Y239418D01*
X458630Y239432D01*
X458405Y239629D01*
X458179Y239813D01*
X457982Y239996D01*
X457798Y240151D01*
X457629Y240306D01*
X457488Y240447D01*
X457347Y240574D01*
X457234Y240687D01*
X457122Y240800D01*
X457037Y240884D01*
X456967Y240955D01*
X456896Y241025D01*
X456826Y241110D01*
X456797Y241138D01*
X456600Y241378D01*
X456431Y241589D01*
X456290Y241800D01*
X456177Y241970D01*
X456093Y242125D01*
X456036Y242237D01*
X456008Y242308D01*
X455994Y242336D01*
X455909Y242548D01*
X455853Y242759D01*
X455797Y242956D01*
X455769Y243126D01*
X455754Y243281D01*
X455740Y243393D01*
Y243464D01*
Y243492D01*
X455754Y243704D01*
X455783Y243901D01*
X455811Y244098D01*
X455867Y244267D01*
X456008Y244606D01*
X456149Y244874D01*
X456234Y245000D01*
X456304Y245099D01*
X456375Y245198D01*
X456445Y245268D01*
X456502Y245325D01*
X456530Y245381D01*
X456558Y245395D01*
X456572Y245409D01*
X456727Y245550D01*
X456896Y245677D01*
X457080Y245776D01*
X457263Y245860D01*
X457629Y246001D01*
X457996Y246100D01*
X458151Y246128D01*
X458306Y246156D01*
X458447Y246171D01*
X458560Y246185D01*
X458658Y246199D01*
X458799D01*
X459053Y246185D01*
D02*
G37*
G36*
X471374Y236401D02*
X467864D01*
X467539Y236415D01*
X467243Y236430D01*
X466976Y236458D01*
X466750Y236486D01*
X466553Y236514D01*
X466412Y236528D01*
X466369Y236542D01*
X466327Y236556D01*
X466299D01*
X466045Y236627D01*
X465820Y236711D01*
X465622Y236782D01*
X465453Y236866D01*
X465312Y236937D01*
X465213Y236993D01*
X465157Y237036D01*
X465129Y237050D01*
X464946Y237177D01*
X464790Y237332D01*
X464636Y237473D01*
X464509Y237614D01*
X464396Y237740D01*
X464311Y237839D01*
X464255Y237910D01*
X464241Y237938D01*
X464100Y238163D01*
X463959Y238403D01*
X463846Y238629D01*
X463761Y238854D01*
X463677Y239051D01*
X463620Y239207D01*
X463606Y239263D01*
X463592Y239305D01*
X463578Y239333D01*
Y239348D01*
X463494Y239686D01*
X463423Y240024D01*
X463381Y240348D01*
X463339Y240659D01*
X463324Y240926D01*
Y241039D01*
X463310Y241138D01*
Y241208D01*
Y241279D01*
Y241307D01*
Y241321D01*
X463324Y241800D01*
X463367Y242237D01*
X463437Y242632D01*
X463465Y242815D01*
X463508Y242971D01*
X463550Y243126D01*
X463578Y243252D01*
X463606Y243365D01*
X463649Y243464D01*
X463663Y243549D01*
X463691Y243605D01*
X463705Y243633D01*
Y243647D01*
X463860Y244014D01*
X464043Y244338D01*
X464241Y244620D01*
X464424Y244860D01*
X464593Y245057D01*
X464734Y245198D01*
X464790Y245240D01*
X464833Y245282D01*
X464847Y245296D01*
X464861Y245311D01*
X465087Y245494D01*
X465326Y245635D01*
X465566Y245762D01*
X465791Y245860D01*
X465989Y245931D01*
X466144Y245973D01*
X466200Y246001D01*
X466242D01*
X466271Y246015D01*
X466285D01*
X466525Y246058D01*
X466806Y246100D01*
X467088Y246128D01*
X467370Y246142D01*
X467624Y246156D01*
X471374D01*
Y236401D01*
D02*
G37*
G36*
X476588Y245959D02*
X476743Y245734D01*
X476926Y245508D01*
X477095Y245311D01*
X477264Y245141D01*
X477391Y245000D01*
X477448Y244958D01*
X477490Y244916D01*
X477504Y244902D01*
X477518Y244888D01*
X477814Y244648D01*
X478110Y244422D01*
X478392Y244225D01*
X478674Y244070D01*
X478914Y243929D01*
X479012Y243873D01*
X479097Y243830D01*
X479167Y243788D01*
X479224Y243774D01*
X479252Y243746D01*
X479266D01*
Y242590D01*
X479055Y242675D01*
X478843Y242773D01*
X478632Y242872D01*
X478434Y242971D01*
X478265Y243055D01*
X478124Y243126D01*
X478040Y243182D01*
X478026Y243196D01*
X478011D01*
X477758Y243351D01*
X477532Y243506D01*
X477335Y243647D01*
X477180Y243774D01*
X477039Y243873D01*
X476954Y243957D01*
X476884Y244014D01*
X476870Y244028D01*
Y236401D01*
X475671D01*
Y246199D01*
X476447D01*
X476588Y245959D01*
D02*
G37*
G36*
X489529Y236401D02*
X486018D01*
X485694Y236415D01*
X485398Y236430D01*
X485130Y236458D01*
X484905Y236486D01*
X484707Y236514D01*
X484566Y236528D01*
X484524Y236542D01*
X484482Y236556D01*
X484454D01*
X484200Y236627D01*
X483974Y236711D01*
X483777Y236782D01*
X483608Y236866D01*
X483467Y236937D01*
X483368Y236993D01*
X483312Y237036D01*
X483284Y237050D01*
X483100Y237177D01*
X482945Y237332D01*
X482790Y237473D01*
X482663Y237614D01*
X482551Y237740D01*
X482466Y237839D01*
X482410Y237910D01*
X482396Y237938D01*
X482255Y238163D01*
X482114Y238403D01*
X482001Y238629D01*
X481916Y238854D01*
X481832Y239051D01*
X481775Y239207D01*
X481761Y239263D01*
X481747Y239305D01*
X481733Y239333D01*
Y239348D01*
X481648Y239686D01*
X481578Y240024D01*
X481536Y240348D01*
X481493Y240659D01*
X481479Y240926D01*
Y241039D01*
X481465Y241138D01*
Y241208D01*
Y241279D01*
Y241307D01*
Y241321D01*
X481479Y241800D01*
X481522Y242237D01*
X481592Y242632D01*
X481620Y242815D01*
X481662Y242971D01*
X481705Y243126D01*
X481733Y243252D01*
X481761Y243365D01*
X481804Y243464D01*
X481818Y243549D01*
X481846Y243605D01*
X481860Y243633D01*
Y243647D01*
X482015Y244014D01*
X482198Y244338D01*
X482396Y244620D01*
X482579Y244860D01*
X482748Y245057D01*
X482889Y245198D01*
X482945Y245240D01*
X482988Y245282D01*
X483002Y245296D01*
X483016Y245311D01*
X483241Y245494D01*
X483481Y245635D01*
X483721Y245762D01*
X483946Y245860D01*
X484144Y245931D01*
X484299Y245973D01*
X484355Y246001D01*
X484397D01*
X484426Y246015D01*
X484440D01*
X484679Y246058D01*
X484961Y246100D01*
X485243Y246128D01*
X485525Y246142D01*
X485779Y246156D01*
X489529D01*
Y236401D01*
D02*
G37*
G36*
X372240Y195518D02*
X372691Y195448D01*
X373086Y195364D01*
X373269Y195307D01*
X373438Y195251D01*
X373593Y195194D01*
X373734Y195138D01*
X373847Y195096D01*
X373960Y195053D01*
X374030Y195011D01*
X374087Y194983D01*
X374129Y194969D01*
X374143Y194955D01*
X374524Y194715D01*
X374848Y194433D01*
X375130Y194151D01*
X375370Y193869D01*
X375553Y193615D01*
X375623Y193503D01*
X375680Y193404D01*
X375736Y193333D01*
X375764Y193277D01*
X375778Y193235D01*
X375793Y193221D01*
X375990Y192784D01*
X376131Y192333D01*
X376230Y191882D01*
X376300Y191473D01*
X376328Y191289D01*
X376342Y191106D01*
X376356Y190965D01*
Y190824D01*
X376371Y190726D01*
Y190641D01*
Y190585D01*
Y190571D01*
X376342Y190063D01*
X376286Y189570D01*
X376216Y189133D01*
X376159Y188921D01*
X376117Y188738D01*
X376074Y188569D01*
X376018Y188414D01*
X375976Y188273D01*
X375948Y188160D01*
X375905Y188075D01*
X375891Y188005D01*
X375863Y187962D01*
Y187948D01*
X375652Y187526D01*
X375412Y187145D01*
X375158Y186821D01*
X375031Y186694D01*
X374919Y186567D01*
X374806Y186454D01*
X374693Y186355D01*
X374594Y186271D01*
X374510Y186215D01*
X374453Y186158D01*
X374397Y186116D01*
X374369Y186102D01*
X374355Y186088D01*
X374157Y185975D01*
X373960Y185876D01*
X373537Y185721D01*
X373114Y185608D01*
X372705Y185538D01*
X372508Y185510D01*
X372339Y185481D01*
X372184Y185467D01*
X372057D01*
X371944Y185453D01*
X371789D01*
X371507Y185467D01*
X371239Y185496D01*
X370985Y185524D01*
X370746Y185580D01*
X370520Y185651D01*
X370309Y185721D01*
X370112Y185792D01*
X369928Y185876D01*
X369773Y185947D01*
X369618Y186017D01*
X369505Y186088D01*
X369393Y186158D01*
X369322Y186215D01*
X369252Y186243D01*
X369223Y186271D01*
X369209Y186285D01*
X369012Y186454D01*
X368843Y186623D01*
X368688Y186821D01*
X368533Y187018D01*
X368279Y187413D01*
X368082Y187808D01*
X367997Y187991D01*
X367926Y188160D01*
X367870Y188315D01*
X367828Y188442D01*
X367785Y188555D01*
X367757Y188639D01*
X367743Y188696D01*
Y188710D01*
X369040Y189034D01*
X369096Y188808D01*
X369167Y188597D01*
X369237Y188400D01*
X369308Y188216D01*
X369393Y188047D01*
X369477Y187906D01*
X369576Y187765D01*
X369660Y187638D01*
X369731Y187526D01*
X369815Y187441D01*
X369886Y187356D01*
X369942Y187286D01*
X369999Y187244D01*
X370041Y187201D01*
X370055Y187187D01*
X370069Y187173D01*
X370210Y187060D01*
X370365Y186976D01*
X370675Y186821D01*
X370971Y186708D01*
X371267Y186637D01*
X371521Y186581D01*
X371620Y186567D01*
X371718D01*
X371803Y186553D01*
X371902D01*
X372226Y186567D01*
X372536Y186623D01*
X372818Y186694D01*
X373072Y186778D01*
X373269Y186863D01*
X373354Y186905D01*
X373424Y186933D01*
X373481Y186962D01*
X373523Y186990D01*
X373551Y187004D01*
X373565D01*
X373833Y187201D01*
X374059Y187413D01*
X374256Y187652D01*
X374411Y187878D01*
X374538Y188075D01*
X374622Y188244D01*
X374651Y188315D01*
X374679Y188357D01*
X374693Y188385D01*
Y188400D01*
X374806Y188766D01*
X374890Y189133D01*
X374961Y189499D01*
X375003Y189837D01*
X375017Y189993D01*
X375031Y190133D01*
Y190260D01*
X375045Y190359D01*
Y190444D01*
Y190514D01*
Y190556D01*
Y190571D01*
X375031Y190937D01*
X375003Y191275D01*
X374947Y191586D01*
X374890Y191867D01*
X374848Y192107D01*
X374820Y192206D01*
X374792Y192290D01*
X374778Y192361D01*
X374763Y192403D01*
X374749Y192431D01*
Y192445D01*
X374608Y192770D01*
X374453Y193066D01*
X374284Y193305D01*
X374101Y193517D01*
X373946Y193686D01*
X373819Y193799D01*
X373720Y193869D01*
X373706Y193897D01*
X373692D01*
X373396Y194081D01*
X373072Y194222D01*
X372762Y194320D01*
X372466Y194377D01*
X372198Y194419D01*
X372085Y194433D01*
X371986D01*
X371916Y194447D01*
X371803D01*
X371451Y194433D01*
X371126Y194377D01*
X370859Y194292D01*
X370619Y194207D01*
X370436Y194109D01*
X370295Y194038D01*
X370210Y193982D01*
X370182Y193954D01*
X369956Y193742D01*
X369745Y193503D01*
X369576Y193249D01*
X369435Y192995D01*
X369322Y192770D01*
X369280Y192657D01*
X369252Y192572D01*
X369223Y192502D01*
X369195Y192445D01*
X369181Y192417D01*
Y192403D01*
X367912Y192699D01*
X367997Y192953D01*
X368082Y193178D01*
X368194Y193390D01*
X368293Y193601D01*
X368406Y193785D01*
X368533Y193954D01*
X368645Y194123D01*
X368758Y194264D01*
X368871Y194377D01*
X368970Y194489D01*
X369068Y194588D01*
X369139Y194659D01*
X369209Y194729D01*
X369266Y194771D01*
X369294Y194785D01*
X369308Y194800D01*
X369505Y194926D01*
X369703Y195053D01*
X369900Y195152D01*
X370112Y195237D01*
X370534Y195364D01*
X370915Y195448D01*
X371098Y195490D01*
X371253Y195504D01*
X371408Y195518D01*
X371535Y195533D01*
X371634Y195547D01*
X371775D01*
X372240Y195518D01*
D02*
G37*
G36*
X363697Y195406D02*
X363923Y195392D01*
X364318Y195307D01*
X364501Y195251D01*
X364670Y195194D01*
X364825Y195124D01*
X364966Y195053D01*
X365079Y194983D01*
X365192Y194912D01*
X365290Y194856D01*
X365361Y194800D01*
X365417Y194757D01*
X365459Y194715D01*
X365488Y194701D01*
X365502Y194687D01*
X365629Y194546D01*
X365756Y194405D01*
X365854Y194250D01*
X365939Y194095D01*
X366080Y193799D01*
X366164Y193517D01*
X366221Y193277D01*
X366235Y193164D01*
X366249Y193080D01*
X366263Y192995D01*
Y192939D01*
Y192911D01*
Y192896D01*
X366249Y192643D01*
X366207Y192403D01*
X366150Y192192D01*
X366080Y192008D01*
X366023Y191867D01*
X365967Y191755D01*
X365925Y191698D01*
X365910Y191670D01*
X365756Y191501D01*
X365586Y191346D01*
X365403Y191205D01*
X365220Y191092D01*
X365051Y191007D01*
X364924Y190951D01*
X364867Y190923D01*
X364825Y190909D01*
X364811Y190895D01*
X364797D01*
X365121Y190796D01*
X365389Y190669D01*
X365629Y190514D01*
X365826Y190373D01*
X365981Y190232D01*
X366094Y190119D01*
X366150Y190049D01*
X366178Y190035D01*
Y190021D01*
X366334Y189767D01*
X366460Y189499D01*
X366545Y189245D01*
X366601Y188992D01*
X366629Y188766D01*
X366644Y188667D01*
Y188583D01*
X366658Y188526D01*
Y188470D01*
Y188442D01*
Y188428D01*
X366644Y188202D01*
X366615Y187977D01*
X366573Y187765D01*
X366517Y187554D01*
X366376Y187201D01*
X366305Y187032D01*
X366221Y186891D01*
X366136Y186750D01*
X366066Y186637D01*
X365981Y186539D01*
X365925Y186454D01*
X365868Y186384D01*
X365826Y186341D01*
X365798Y186313D01*
X365784Y186299D01*
X365615Y186144D01*
X365431Y186017D01*
X365234Y185904D01*
X365037Y185806D01*
X364853Y185735D01*
X364656Y185665D01*
X364275Y185566D01*
X364106Y185524D01*
X363951Y185496D01*
X363810Y185481D01*
X363683Y185467D01*
X363585Y185453D01*
X363444D01*
X363176Y185467D01*
X362936Y185496D01*
X362696Y185538D01*
X362471Y185580D01*
X362273Y185651D01*
X362076Y185721D01*
X361893Y185792D01*
X361738Y185876D01*
X361597Y185961D01*
X361470Y186031D01*
X361371Y186102D01*
X361273Y186172D01*
X361202Y186215D01*
X361160Y186257D01*
X361132Y186285D01*
X361118Y186299D01*
X360962Y186468D01*
X360821Y186637D01*
X360709Y186807D01*
X360610Y186990D01*
X360511Y187159D01*
X360441Y187342D01*
X360342Y187666D01*
X360300Y187822D01*
X360272Y187962D01*
X360258Y188089D01*
X360244Y188188D01*
X360229Y188273D01*
Y188343D01*
Y188385D01*
Y188400D01*
X360244Y188724D01*
X360300Y189020D01*
X360384Y189288D01*
X360469Y189513D01*
X360554Y189697D01*
X360638Y189837D01*
X360695Y189922D01*
X360709Y189936D01*
Y189950D01*
X360906Y190176D01*
X361118Y190373D01*
X361343Y190528D01*
X361555Y190669D01*
X361752Y190768D01*
X361921Y190838D01*
X361978Y190867D01*
X362020Y190881D01*
X362048Y190895D01*
X362062D01*
X361808Y191007D01*
X361597Y191134D01*
X361414Y191261D01*
X361259Y191388D01*
X361146Y191501D01*
X361061Y191586D01*
X361005Y191642D01*
X360991Y191670D01*
X360864Y191867D01*
X360779Y192065D01*
X360709Y192262D01*
X360667Y192460D01*
X360638Y192614D01*
X360624Y192741D01*
Y192826D01*
Y192840D01*
Y192854D01*
X360638Y193052D01*
X360652Y193235D01*
X360751Y193587D01*
X360878Y193897D01*
X361019Y194165D01*
X361160Y194377D01*
X361230Y194461D01*
X361287Y194546D01*
X361343Y194602D01*
X361385Y194645D01*
X361399Y194659D01*
X361414Y194673D01*
X361569Y194800D01*
X361724Y194926D01*
X361893Y195025D01*
X362062Y195110D01*
X362400Y195237D01*
X362739Y195321D01*
X362880Y195364D01*
X363021Y195378D01*
X363148Y195392D01*
X363260Y195406D01*
X363345Y195420D01*
X363472D01*
X363697Y195406D01*
D02*
G37*
G36*
X308733Y158688D02*
X309184Y158618D01*
X309579Y158533D01*
X309762Y158477D01*
X309931Y158421D01*
X310086Y158364D01*
X310227Y158308D01*
X310340Y158266D01*
X310453Y158223D01*
X310523Y158181D01*
X310580Y158153D01*
X310622Y158139D01*
X310636Y158125D01*
X311017Y157885D01*
X311341Y157603D01*
X311623Y157321D01*
X311863Y157039D01*
X312046Y156785D01*
X312116Y156673D01*
X312173Y156574D01*
X312229Y156503D01*
X312257Y156447D01*
X312271Y156405D01*
X312285Y156391D01*
X312483Y155954D01*
X312624Y155503D01*
X312722Y155051D01*
X312793Y154643D01*
X312821Y154459D01*
X312835Y154276D01*
X312849Y154135D01*
Y153994D01*
X312864Y153896D01*
Y153811D01*
Y153755D01*
Y153741D01*
X312835Y153233D01*
X312779Y152740D01*
X312708Y152303D01*
X312652Y152091D01*
X312610Y151908D01*
X312567Y151739D01*
X312511Y151584D01*
X312469Y151443D01*
X312441Y151330D01*
X312398Y151245D01*
X312384Y151175D01*
X312356Y151132D01*
Y151118D01*
X312145Y150695D01*
X311905Y150315D01*
X311651Y149991D01*
X311524Y149864D01*
X311411Y149737D01*
X311299Y149624D01*
X311186Y149525D01*
X311087Y149441D01*
X311003Y149384D01*
X310946Y149328D01*
X310890Y149286D01*
X310862Y149272D01*
X310848Y149258D01*
X310650Y149145D01*
X310453Y149046D01*
X310030Y148891D01*
X309607Y148778D01*
X309198Y148708D01*
X309001Y148680D01*
X308832Y148652D01*
X308677Y148637D01*
X308550D01*
X308437Y148623D01*
X308282D01*
X308000Y148637D01*
X307732Y148666D01*
X307478Y148694D01*
X307239Y148750D01*
X307013Y148821D01*
X306802Y148891D01*
X306604Y148962D01*
X306421Y149046D01*
X306266Y149117D01*
X306111Y149187D01*
X305998Y149258D01*
X305886Y149328D01*
X305815Y149384D01*
X305744Y149413D01*
X305716Y149441D01*
X305702Y149455D01*
X305505Y149624D01*
X305336Y149793D01*
X305181Y149991D01*
X305026Y150188D01*
X304772Y150583D01*
X304574Y150977D01*
X304490Y151161D01*
X304419Y151330D01*
X304363Y151485D01*
X304321Y151612D01*
X304278Y151725D01*
X304250Y151809D01*
X304236Y151866D01*
Y151880D01*
X305533Y152204D01*
X305589Y151978D01*
X305660Y151767D01*
X305730Y151569D01*
X305801Y151386D01*
X305886Y151217D01*
X305970Y151076D01*
X306069Y150935D01*
X306153Y150808D01*
X306224Y150695D01*
X306308Y150611D01*
X306379Y150526D01*
X306435Y150456D01*
X306492Y150414D01*
X306534Y150371D01*
X306548Y150357D01*
X306562Y150343D01*
X306703Y150230D01*
X306858Y150146D01*
X307168Y149991D01*
X307464Y149878D01*
X307760Y149807D01*
X308014Y149751D01*
X308113Y149737D01*
X308211D01*
X308296Y149723D01*
X308395D01*
X308719Y149737D01*
X309029Y149793D01*
X309311Y149864D01*
X309565Y149948D01*
X309762Y150033D01*
X309847Y150075D01*
X309917Y150104D01*
X309974Y150132D01*
X310016Y150160D01*
X310044Y150174D01*
X310058D01*
X310326Y150371D01*
X310552Y150583D01*
X310749Y150822D01*
X310904Y151048D01*
X311031Y151245D01*
X311115Y151414D01*
X311144Y151485D01*
X311172Y151527D01*
X311186Y151555D01*
Y151569D01*
X311299Y151936D01*
X311383Y152303D01*
X311454Y152669D01*
X311496Y153007D01*
X311510Y153162D01*
X311524Y153303D01*
Y153430D01*
X311538Y153529D01*
Y153614D01*
Y153684D01*
Y153726D01*
Y153741D01*
X311524Y154107D01*
X311496Y154445D01*
X311440Y154755D01*
X311383Y155037D01*
X311341Y155277D01*
X311313Y155376D01*
X311285Y155460D01*
X311271Y155531D01*
X311256Y155573D01*
X311242Y155601D01*
Y155615D01*
X311101Y155940D01*
X310946Y156236D01*
X310777Y156475D01*
X310594Y156687D01*
X310439Y156856D01*
X310312Y156969D01*
X310213Y157039D01*
X310199Y157067D01*
X310185D01*
X309889Y157251D01*
X309565Y157392D01*
X309255Y157490D01*
X308959Y157547D01*
X308691Y157589D01*
X308578Y157603D01*
X308479D01*
X308409Y157617D01*
X308296D01*
X307944Y157603D01*
X307619Y157547D01*
X307352Y157462D01*
X307112Y157378D01*
X306929Y157279D01*
X306788Y157208D01*
X306703Y157152D01*
X306675Y157124D01*
X306449Y156912D01*
X306238Y156673D01*
X306069Y156419D01*
X305928Y156165D01*
X305815Y155940D01*
X305773Y155827D01*
X305744Y155742D01*
X305716Y155672D01*
X305688Y155615D01*
X305674Y155587D01*
Y155573D01*
X304405Y155869D01*
X304490Y156123D01*
X304574Y156348D01*
X304687Y156560D01*
X304786Y156771D01*
X304899Y156955D01*
X305026Y157124D01*
X305138Y157293D01*
X305251Y157434D01*
X305364Y157547D01*
X305463Y157660D01*
X305561Y157758D01*
X305632Y157829D01*
X305702Y157899D01*
X305759Y157941D01*
X305787Y157956D01*
X305801Y157970D01*
X305998Y158097D01*
X306196Y158223D01*
X306393Y158322D01*
X306604Y158407D01*
X307027Y158533D01*
X307408Y158618D01*
X307591Y158660D01*
X307746Y158674D01*
X307901Y158688D01*
X308028Y158703D01*
X308127Y158717D01*
X308268D01*
X308733Y158688D01*
D02*
G37*
G36*
X303052Y157265D02*
X298273D01*
X298611Y156856D01*
X298936Y156419D01*
X299218Y155996D01*
X299485Y155587D01*
X299598Y155404D01*
X299697Y155235D01*
X299796Y155080D01*
X299866Y154953D01*
X299922Y154840D01*
X299965Y154770D01*
X299993Y154713D01*
X300007Y154699D01*
X300289Y154135D01*
X300543Y153571D01*
X300754Y153036D01*
X300839Y152796D01*
X300923Y152556D01*
X301008Y152345D01*
X301064Y152148D01*
X301121Y151978D01*
X301163Y151837D01*
X301205Y151711D01*
X301234Y151626D01*
X301248Y151569D01*
Y151555D01*
X301388Y150977D01*
X301445Y150695D01*
X301487Y150442D01*
X301530Y150202D01*
X301572Y149963D01*
X301600Y149765D01*
X301628Y149568D01*
X301642Y149399D01*
X301656Y149243D01*
X301670Y149103D01*
Y148990D01*
X301685Y148905D01*
Y148849D01*
Y148806D01*
Y148792D01*
X300458D01*
X300416Y149328D01*
X300345Y149822D01*
X300275Y150273D01*
X300233Y150484D01*
X300190Y150681D01*
X300162Y150851D01*
X300120Y151006D01*
X300092Y151147D01*
X300063Y151259D01*
X300035Y151344D01*
X300021Y151414D01*
X300007Y151457D01*
Y151471D01*
X299796Y152119D01*
X299570Y152725D01*
X299457Y153021D01*
X299345Y153303D01*
X299218Y153557D01*
X299105Y153811D01*
X299006Y154037D01*
X298908Y154234D01*
X298823Y154403D01*
X298752Y154558D01*
X298682Y154685D01*
X298640Y154770D01*
X298611Y154826D01*
X298597Y154840D01*
X298428Y155136D01*
X298259Y155432D01*
X298090Y155700D01*
X297921Y155954D01*
X297766Y156179D01*
X297610Y156405D01*
X297456Y156602D01*
X297329Y156771D01*
X297202Y156940D01*
X297089Y157081D01*
X296976Y157194D01*
X296892Y157293D01*
X296835Y157378D01*
X296779Y157434D01*
X296751Y157462D01*
X296737Y157476D01*
Y158421D01*
X303052D01*
Y157265D01*
D02*
G37*
G36*
X274565Y119206D02*
X274833Y119178D01*
X275086Y119121D01*
X275326Y119051D01*
X275537Y118952D01*
X275749Y118867D01*
X275932Y118755D01*
X276101Y118656D01*
X276242Y118557D01*
X276383Y118444D01*
X276496Y118360D01*
X276581Y118275D01*
X276651Y118191D01*
X276707Y118134D01*
X276736Y118106D01*
X276750Y118092D01*
X276933Y117838D01*
X277088Y117542D01*
X277229Y117232D01*
X277356Y116908D01*
X277455Y116570D01*
X277539Y116231D01*
X277610Y115879D01*
X277666Y115555D01*
X277708Y115230D01*
X277737Y114934D01*
X277765Y114667D01*
X277779Y114441D01*
Y114244D01*
X277793Y114103D01*
Y114046D01*
Y114004D01*
Y113990D01*
Y113976D01*
X277779Y113525D01*
X277751Y113102D01*
X277708Y112707D01*
X277638Y112340D01*
X277567Y112016D01*
X277497Y111720D01*
X277412Y111452D01*
X277314Y111213D01*
X277229Y111015D01*
X277145Y110832D01*
X277074Y110691D01*
X276989Y110564D01*
X276933Y110466D01*
X276891Y110409D01*
X276863Y110367D01*
X276848Y110353D01*
X276665Y110155D01*
X276468Y109986D01*
X276271Y109845D01*
X276073Y109719D01*
X275862Y109606D01*
X275664Y109521D01*
X275467Y109451D01*
X275270Y109394D01*
X275100Y109352D01*
X274931Y109310D01*
X274790Y109282D01*
X274663Y109267D01*
X274551D01*
X274480Y109253D01*
X274410D01*
X274085Y109267D01*
X273789Y109324D01*
X273522Y109380D01*
X273282Y109465D01*
X273099Y109535D01*
X272958Y109606D01*
X272901Y109620D01*
X272859Y109648D01*
X272845Y109662D01*
X272831D01*
X272591Y109831D01*
X272366Y110029D01*
X272182Y110226D01*
X272027Y110423D01*
X271900Y110607D01*
X271816Y110748D01*
X271788Y110804D01*
X271759Y110846D01*
X271745Y110860D01*
Y110874D01*
X271604Y111171D01*
X271506Y111481D01*
X271435Y111763D01*
X271393Y112030D01*
X271351Y112256D01*
Y112340D01*
X271336Y112425D01*
Y112496D01*
Y112538D01*
Y112566D01*
Y112580D01*
X271351Y112834D01*
X271379Y113074D01*
X271421Y113313D01*
X271463Y113525D01*
X271534Y113722D01*
X271604Y113919D01*
X271675Y114088D01*
X271759Y114244D01*
X271844Y114385D01*
X271915Y114511D01*
X271985Y114610D01*
X272055Y114709D01*
X272098Y114779D01*
X272140Y114822D01*
X272168Y114850D01*
X272182Y114864D01*
X272337Y115019D01*
X272507Y115160D01*
X272690Y115273D01*
X272859Y115371D01*
X273028Y115470D01*
X273197Y115541D01*
X273522Y115639D01*
X273662Y115681D01*
X273804Y115710D01*
X273916Y115724D01*
X274029Y115738D01*
X274114Y115752D01*
X274226D01*
X274480Y115738D01*
X274720Y115696D01*
X274945Y115653D01*
X275143Y115597D01*
X275312Y115526D01*
X275439Y115484D01*
X275523Y115442D01*
X275537Y115428D01*
X275551D01*
X275777Y115287D01*
X275974Y115132D01*
X276158Y114977D01*
X276299Y114808D01*
X276425Y114667D01*
X276524Y114554D01*
X276581Y114469D01*
X276595Y114455D01*
Y114709D01*
X276581Y114963D01*
X276567Y115188D01*
X276538Y115414D01*
X276524Y115611D01*
X276496Y115794D01*
X276468Y115963D01*
X276425Y116118D01*
X276397Y116259D01*
X276369Y116372D01*
X276341Y116471D01*
X276327Y116556D01*
X276299Y116612D01*
X276285Y116654D01*
X276271Y116682D01*
Y116697D01*
X276129Y116978D01*
X275989Y117232D01*
X275833Y117430D01*
X275693Y117599D01*
X275566Y117740D01*
X275467Y117838D01*
X275396Y117895D01*
X275368Y117909D01*
X275199Y118022D01*
X275030Y118092D01*
X274861Y118148D01*
X274692Y118191D01*
X274565Y118219D01*
X274452Y118233D01*
X274353D01*
X274100Y118205D01*
X273860Y118148D01*
X273662Y118064D01*
X273479Y117979D01*
X273338Y117881D01*
X273240Y117796D01*
X273183Y117740D01*
X273155Y117711D01*
X273056Y117585D01*
X272958Y117430D01*
X272873Y117260D01*
X272817Y117091D01*
X272760Y116936D01*
X272718Y116809D01*
X272704Y116725D01*
X272690Y116711D01*
Y116697D01*
X271492Y116795D01*
X271576Y117190D01*
X271703Y117542D01*
X271844Y117852D01*
X271999Y118106D01*
X272154Y118303D01*
X272211Y118388D01*
X272281Y118459D01*
X272323Y118501D01*
X272366Y118543D01*
X272380Y118557D01*
X272394Y118571D01*
X272535Y118684D01*
X272690Y118783D01*
X273000Y118952D01*
X273310Y119065D01*
X273606Y119135D01*
X273874Y119192D01*
X273987Y119206D01*
X274085D01*
X274170Y119220D01*
X274283D01*
X274565Y119206D01*
D02*
G37*
G36*
X283333Y119319D02*
X283784Y119248D01*
X284179Y119164D01*
X284362Y119107D01*
X284531Y119051D01*
X284686Y118994D01*
X284827Y118938D01*
X284940Y118896D01*
X285053Y118853D01*
X285123Y118811D01*
X285180Y118783D01*
X285222Y118769D01*
X285236Y118755D01*
X285617Y118515D01*
X285941Y118233D01*
X286223Y117951D01*
X286463Y117669D01*
X286646Y117415D01*
X286716Y117303D01*
X286773Y117204D01*
X286829Y117134D01*
X286857Y117077D01*
X286871Y117035D01*
X286886Y117021D01*
X287083Y116584D01*
X287224Y116133D01*
X287323Y115681D01*
X287393Y115273D01*
X287421Y115089D01*
X287435Y114906D01*
X287449Y114765D01*
Y114624D01*
X287463Y114526D01*
Y114441D01*
Y114385D01*
Y114370D01*
X287435Y113863D01*
X287379Y113370D01*
X287308Y112933D01*
X287252Y112721D01*
X287210Y112538D01*
X287167Y112369D01*
X287111Y112214D01*
X287069Y112073D01*
X287041Y111960D01*
X286998Y111875D01*
X286984Y111805D01*
X286956Y111763D01*
Y111748D01*
X286744Y111326D01*
X286505Y110945D01*
X286251Y110621D01*
X286124Y110494D01*
X286012Y110367D01*
X285899Y110254D01*
X285786Y110155D01*
X285687Y110071D01*
X285603Y110014D01*
X285546Y109958D01*
X285490Y109916D01*
X285462Y109902D01*
X285448Y109888D01*
X285250Y109775D01*
X285053Y109676D01*
X284630Y109521D01*
X284207Y109408D01*
X283798Y109338D01*
X283601Y109310D01*
X283432Y109282D01*
X283277Y109267D01*
X283150D01*
X283037Y109253D01*
X282882D01*
X282600Y109267D01*
X282332Y109296D01*
X282078Y109324D01*
X281839Y109380D01*
X281613Y109451D01*
X281402Y109521D01*
X281204Y109592D01*
X281021Y109676D01*
X280866Y109747D01*
X280711Y109817D01*
X280598Y109888D01*
X280485Y109958D01*
X280415Y110014D01*
X280345Y110043D01*
X280316Y110071D01*
X280302Y110085D01*
X280105Y110254D01*
X279936Y110423D01*
X279781Y110621D01*
X279626Y110818D01*
X279372Y111213D01*
X279174Y111608D01*
X279090Y111791D01*
X279019Y111960D01*
X278963Y112115D01*
X278921Y112242D01*
X278878Y112355D01*
X278850Y112439D01*
X278836Y112496D01*
Y112510D01*
X280133Y112834D01*
X280189Y112608D01*
X280260Y112397D01*
X280330Y112199D01*
X280401Y112016D01*
X280485Y111847D01*
X280570Y111706D01*
X280669Y111565D01*
X280753Y111438D01*
X280824Y111326D01*
X280908Y111241D01*
X280979Y111156D01*
X281035Y111086D01*
X281092Y111044D01*
X281134Y111001D01*
X281148Y110987D01*
X281162Y110973D01*
X281303Y110860D01*
X281458Y110776D01*
X281768Y110621D01*
X282064Y110508D01*
X282360Y110437D01*
X282614Y110381D01*
X282713Y110367D01*
X282812D01*
X282896Y110353D01*
X282995D01*
X283319Y110367D01*
X283629Y110423D01*
X283911Y110494D01*
X284165Y110578D01*
X284362Y110663D01*
X284447Y110705D01*
X284517Y110733D01*
X284574Y110762D01*
X284616Y110790D01*
X284644Y110804D01*
X284658D01*
X284926Y111001D01*
X285152Y111213D01*
X285349Y111452D01*
X285504Y111678D01*
X285631Y111875D01*
X285716Y112044D01*
X285744Y112115D01*
X285772Y112157D01*
X285786Y112185D01*
Y112199D01*
X285899Y112566D01*
X285983Y112933D01*
X286054Y113299D01*
X286096Y113637D01*
X286110Y113792D01*
X286124Y113933D01*
Y114060D01*
X286138Y114159D01*
Y114244D01*
Y114314D01*
Y114356D01*
Y114370D01*
X286124Y114737D01*
X286096Y115075D01*
X286040Y115386D01*
X285983Y115667D01*
X285941Y115907D01*
X285913Y116006D01*
X285885Y116090D01*
X285870Y116161D01*
X285856Y116203D01*
X285842Y116231D01*
Y116245D01*
X285701Y116570D01*
X285546Y116866D01*
X285377Y117105D01*
X285194Y117317D01*
X285039Y117486D01*
X284912Y117599D01*
X284813Y117669D01*
X284799Y117697D01*
X284785D01*
X284489Y117881D01*
X284165Y118022D01*
X283855Y118120D01*
X283559Y118177D01*
X283291Y118219D01*
X283178Y118233D01*
X283079D01*
X283009Y118247D01*
X282896D01*
X282544Y118233D01*
X282219Y118177D01*
X281952Y118092D01*
X281712Y118007D01*
X281529Y117909D01*
X281388Y117838D01*
X281303Y117782D01*
X281275Y117754D01*
X281049Y117542D01*
X280838Y117303D01*
X280669Y117049D01*
X280528Y116795D01*
X280415Y116570D01*
X280373Y116457D01*
X280345Y116372D01*
X280316Y116302D01*
X280288Y116245D01*
X280274Y116217D01*
Y116203D01*
X279005Y116499D01*
X279090Y116753D01*
X279174Y116978D01*
X279287Y117190D01*
X279386Y117401D01*
X279499Y117585D01*
X279626Y117754D01*
X279738Y117923D01*
X279851Y118064D01*
X279964Y118177D01*
X280063Y118289D01*
X280161Y118388D01*
X280232Y118459D01*
X280302Y118529D01*
X280359Y118571D01*
X280387Y118586D01*
X280401Y118600D01*
X280598Y118727D01*
X280796Y118853D01*
X280993Y118952D01*
X281204Y119037D01*
X281627Y119164D01*
X282008Y119248D01*
X282191Y119290D01*
X282346Y119304D01*
X282501Y119319D01*
X282628Y119333D01*
X282727Y119347D01*
X282868D01*
X283333Y119319D01*
D02*
G37*
G36*
X104840Y253732D02*
X103713Y253577D01*
X103614Y253732D01*
X103487Y253859D01*
X103374Y253986D01*
X103261Y254085D01*
X103149Y254155D01*
X103064Y254226D01*
X103008Y254254D01*
X102994Y254268D01*
X102810Y254352D01*
X102627Y254423D01*
X102458Y254465D01*
X102289Y254508D01*
X102148Y254522D01*
X102035Y254536D01*
X101767D01*
X101598Y254508D01*
X101302Y254437D01*
X101048Y254338D01*
X100823Y254240D01*
X100653Y254127D01*
X100527Y254028D01*
X100456Y253958D01*
X100428Y253944D01*
Y253930D01*
X100231Y253690D01*
X100090Y253436D01*
X99991Y253168D01*
X99921Y252900D01*
X99878Y252675D01*
X99864Y252576D01*
Y252492D01*
X99850Y252421D01*
Y252365D01*
Y252337D01*
Y252323D01*
Y252125D01*
X99878Y251942D01*
X99949Y251589D01*
X100047Y251293D01*
X100146Y251054D01*
X100259Y250856D01*
X100358Y250701D01*
X100400Y250659D01*
X100428Y250617D01*
X100442Y250603D01*
X100456Y250588D01*
X100569Y250476D01*
X100682Y250377D01*
X100935Y250208D01*
X101175Y250095D01*
X101415Y250025D01*
X101612Y249968D01*
X101781Y249954D01*
X101838Y249940D01*
X101922D01*
X102190Y249954D01*
X102430Y250011D01*
X102641Y250081D01*
X102810Y250166D01*
X102965Y250250D01*
X103078Y250321D01*
X103135Y250377D01*
X103163Y250391D01*
X103332Y250588D01*
X103473Y250800D01*
X103586Y251040D01*
X103670Y251251D01*
X103727Y251462D01*
X103769Y251618D01*
X103783Y251688D01*
X103797Y251730D01*
Y251759D01*
Y251773D01*
X105052Y251674D01*
X105024Y251448D01*
X104981Y251237D01*
X104854Y250842D01*
X104699Y250504D01*
X104615Y250349D01*
X104530Y250222D01*
X104460Y250095D01*
X104375Y249982D01*
X104305Y249898D01*
X104234Y249827D01*
X104178Y249771D01*
X104150Y249715D01*
X104121Y249700D01*
X104107Y249686D01*
X103938Y249559D01*
X103769Y249447D01*
X103586Y249348D01*
X103402Y249263D01*
X103050Y249137D01*
X102698Y249052D01*
X102542Y249010D01*
X102388Y248996D01*
X102261Y248981D01*
X102148Y248967D01*
X102049Y248953D01*
X101922D01*
X101626Y248967D01*
X101344Y249010D01*
X101076Y249066D01*
X100837Y249137D01*
X100611Y249235D01*
X100400Y249334D01*
X100202Y249433D01*
X100033Y249545D01*
X99878Y249658D01*
X99737Y249757D01*
X99624Y249870D01*
X99526Y249954D01*
X99455Y250025D01*
X99399Y250081D01*
X99371Y250123D01*
X99357Y250137D01*
X99216Y250321D01*
X99103Y250518D01*
X98990Y250701D01*
X98905Y250899D01*
X98764Y251279D01*
X98680Y251646D01*
X98652Y251801D01*
X98624Y251956D01*
X98610Y252083D01*
X98595Y252196D01*
X98581Y252294D01*
Y252365D01*
Y252407D01*
Y252421D01*
X98595Y252675D01*
X98624Y252915D01*
X98666Y253154D01*
X98722Y253366D01*
X98793Y253563D01*
X98863Y253760D01*
X98948Y253930D01*
X99018Y254085D01*
X99103Y254226D01*
X99187Y254352D01*
X99258Y254451D01*
X99328Y254550D01*
X99385Y254620D01*
X99427Y254663D01*
X99455Y254691D01*
X99469Y254705D01*
X99639Y254860D01*
X99808Y255001D01*
X99991Y255114D01*
X100174Y255212D01*
X100358Y255311D01*
X100541Y255382D01*
X100879Y255480D01*
X101034Y255522D01*
X101175Y255551D01*
X101302Y255565D01*
X101415Y255579D01*
X101499Y255593D01*
X101810D01*
X101979Y255565D01*
X102317Y255494D01*
X102627Y255396D01*
X102909Y255283D01*
X103135Y255170D01*
X103233Y255114D01*
X103318Y255071D01*
X103388Y255029D01*
X103431Y255001D01*
X103459Y254987D01*
X103473Y254973D01*
X102951Y257609D01*
X99046D01*
Y258751D01*
X103896D01*
X104840Y253732D01*
D02*
G37*
G36*
X110648Y259018D02*
X111099Y258948D01*
X111494Y258864D01*
X111677Y258807D01*
X111847Y258751D01*
X112002Y258694D01*
X112143Y258638D01*
X112255Y258596D01*
X112368Y258553D01*
X112439Y258511D01*
X112495Y258483D01*
X112537Y258469D01*
X112551Y258455D01*
X112932Y258215D01*
X113256Y257933D01*
X113538Y257651D01*
X113778Y257369D01*
X113961Y257115D01*
X114032Y257003D01*
X114088Y256904D01*
X114144Y256833D01*
X114172Y256777D01*
X114187Y256735D01*
X114201Y256721D01*
X114398Y256284D01*
X114539Y255833D01*
X114638Y255382D01*
X114708Y254973D01*
X114736Y254789D01*
X114750Y254606D01*
X114765Y254465D01*
Y254324D01*
X114779Y254226D01*
Y254141D01*
Y254085D01*
Y254070D01*
X114750Y253563D01*
X114694Y253070D01*
X114624Y252633D01*
X114567Y252421D01*
X114525Y252238D01*
X114483Y252069D01*
X114426Y251914D01*
X114384Y251773D01*
X114356Y251660D01*
X114313Y251575D01*
X114299Y251505D01*
X114271Y251462D01*
Y251448D01*
X114060Y251026D01*
X113820Y250645D01*
X113566Y250321D01*
X113440Y250194D01*
X113327Y250067D01*
X113214Y249954D01*
X113101Y249855D01*
X113003Y249771D01*
X112918Y249715D01*
X112861Y249658D01*
X112805Y249616D01*
X112777Y249602D01*
X112763Y249588D01*
X112565Y249475D01*
X112368Y249376D01*
X111945Y249221D01*
X111522Y249108D01*
X111114Y249038D01*
X110916Y249010D01*
X110747Y248981D01*
X110592Y248967D01*
X110465D01*
X110352Y248953D01*
X110197D01*
X109915Y248967D01*
X109647Y248996D01*
X109394Y249024D01*
X109154Y249080D01*
X108928Y249151D01*
X108717Y249221D01*
X108520Y249292D01*
X108336Y249376D01*
X108181Y249447D01*
X108026Y249517D01*
X107914Y249588D01*
X107801Y249658D01*
X107730Y249715D01*
X107660Y249743D01*
X107632Y249771D01*
X107617Y249785D01*
X107420Y249954D01*
X107251Y250123D01*
X107096Y250321D01*
X106941Y250518D01*
X106687Y250913D01*
X106490Y251308D01*
X106405Y251491D01*
X106335Y251660D01*
X106278Y251815D01*
X106236Y251942D01*
X106194Y252055D01*
X106165Y252139D01*
X106151Y252196D01*
Y252210D01*
X107448Y252534D01*
X107505Y252308D01*
X107575Y252097D01*
X107646Y251900D01*
X107716Y251716D01*
X107801Y251547D01*
X107885Y251406D01*
X107984Y251265D01*
X108069Y251138D01*
X108139Y251026D01*
X108224Y250941D01*
X108294Y250856D01*
X108350Y250786D01*
X108407Y250744D01*
X108449Y250701D01*
X108463Y250687D01*
X108477Y250673D01*
X108618Y250560D01*
X108773Y250476D01*
X109083Y250321D01*
X109380Y250208D01*
X109676Y250137D01*
X109929Y250081D01*
X110028Y250067D01*
X110127D01*
X110211Y250053D01*
X110310D01*
X110634Y250067D01*
X110944Y250123D01*
X111226Y250194D01*
X111480Y250278D01*
X111677Y250363D01*
X111762Y250405D01*
X111832Y250434D01*
X111889Y250462D01*
X111931Y250490D01*
X111959Y250504D01*
X111973D01*
X112241Y250701D01*
X112467Y250913D01*
X112664Y251152D01*
X112819Y251378D01*
X112946Y251575D01*
X113031Y251744D01*
X113059Y251815D01*
X113087Y251857D01*
X113101Y251885D01*
Y251900D01*
X113214Y252266D01*
X113299Y252633D01*
X113369Y252999D01*
X113411Y253337D01*
X113425Y253493D01*
X113440Y253633D01*
Y253760D01*
X113454Y253859D01*
Y253944D01*
Y254014D01*
Y254056D01*
Y254070D01*
X113440Y254437D01*
X113411Y254775D01*
X113355Y255086D01*
X113299Y255367D01*
X113256Y255607D01*
X113228Y255706D01*
X113200Y255790D01*
X113186Y255861D01*
X113172Y255903D01*
X113158Y255931D01*
Y255945D01*
X113017Y256270D01*
X112861Y256566D01*
X112692Y256805D01*
X112509Y257017D01*
X112354Y257186D01*
X112227Y257299D01*
X112128Y257369D01*
X112114Y257397D01*
X112100D01*
X111804Y257581D01*
X111480Y257722D01*
X111170Y257820D01*
X110874Y257877D01*
X110606Y257919D01*
X110493Y257933D01*
X110394D01*
X110324Y257947D01*
X110211D01*
X109859Y257933D01*
X109535Y257877D01*
X109267Y257792D01*
X109027Y257708D01*
X108844Y257609D01*
X108703Y257538D01*
X108618Y257482D01*
X108590Y257454D01*
X108365Y257242D01*
X108153Y257003D01*
X107984Y256749D01*
X107843Y256495D01*
X107730Y256270D01*
X107688Y256157D01*
X107660Y256072D01*
X107632Y256002D01*
X107603Y255945D01*
X107589Y255917D01*
Y255903D01*
X106320Y256199D01*
X106405Y256453D01*
X106490Y256678D01*
X106602Y256890D01*
X106701Y257101D01*
X106814Y257285D01*
X106941Y257454D01*
X107054Y257623D01*
X107166Y257764D01*
X107279Y257877D01*
X107378Y257990D01*
X107477Y258088D01*
X107547Y258159D01*
X107617Y258229D01*
X107674Y258271D01*
X107702Y258286D01*
X107716Y258300D01*
X107914Y258426D01*
X108111Y258553D01*
X108308Y258652D01*
X108520Y258737D01*
X108943Y258864D01*
X109323Y258948D01*
X109506Y258990D01*
X109662Y259004D01*
X109817Y259018D01*
X109943Y259033D01*
X110042Y259047D01*
X110183D01*
X110648Y259018D01*
D02*
G37*
G36*
X490986Y157292D02*
X491367Y157221D01*
X491691Y157108D01*
X491973Y156996D01*
X492100Y156925D01*
X492199Y156869D01*
X492297Y156812D01*
X492368Y156756D01*
X492424Y156714D01*
X492467Y156685D01*
X492495Y156671D01*
X492509Y156657D01*
X492777Y156390D01*
X492988Y156093D01*
X493157Y155783D01*
X493298Y155473D01*
X493383Y155205D01*
X493425Y155092D01*
X493453Y154994D01*
X493467Y154909D01*
X493481Y154853D01*
X493496Y154811D01*
Y154796D01*
X492297Y154585D01*
X492241Y154895D01*
X492156Y155163D01*
X492058Y155389D01*
X491959Y155572D01*
X491860Y155713D01*
X491776Y155812D01*
X491719Y155882D01*
X491705Y155896D01*
X491522Y156037D01*
X491325Y156150D01*
X491141Y156220D01*
X490958Y156277D01*
X490789Y156305D01*
X490662Y156333D01*
X490549D01*
X490296Y156319D01*
X490070Y156263D01*
X489873Y156192D01*
X489703Y156122D01*
X489577Y156037D01*
X489478Y155967D01*
X489408Y155910D01*
X489393Y155896D01*
X489238Y155727D01*
X489126Y155544D01*
X489055Y155360D01*
X488999Y155191D01*
X488970Y155036D01*
X488942Y154923D01*
Y154839D01*
Y154825D01*
Y154811D01*
Y154656D01*
X488970Y154515D01*
X489041Y154275D01*
X489140Y154063D01*
X489252Y153880D01*
X489365Y153753D01*
X489464Y153655D01*
X489534Y153598D01*
X489548Y153584D01*
X489562D01*
X489802Y153457D01*
X490028Y153359D01*
X490267Y153288D01*
X490479Y153246D01*
X490662Y153218D01*
X490817Y153189D01*
X491000D01*
X491057Y153203D01*
X491127D01*
X491268Y152146D01*
X491085Y152189D01*
X490916Y152217D01*
X490775Y152245D01*
X490648Y152259D01*
X490549Y152273D01*
X490422D01*
X490126Y152245D01*
X489859Y152189D01*
X489619Y152104D01*
X489422Y152005D01*
X489267Y151907D01*
X489154Y151822D01*
X489083Y151766D01*
X489055Y151737D01*
X488872Y151526D01*
X488731Y151300D01*
X488632Y151075D01*
X488576Y150849D01*
X488533Y150666D01*
X488519Y150511D01*
X488505Y150455D01*
Y150412D01*
Y150384D01*
Y150370D01*
X488533Y150060D01*
X488604Y149778D01*
X488689Y149538D01*
X488801Y149327D01*
X488914Y149158D01*
X488999Y149031D01*
X489069Y148946D01*
X489097Y148918D01*
X489323Y148721D01*
X489562Y148580D01*
X489802Y148481D01*
X490028Y148411D01*
X490225Y148368D01*
X490380Y148354D01*
X490437Y148340D01*
X490521D01*
X490775Y148354D01*
X491015Y148411D01*
X491226Y148481D01*
X491395Y148566D01*
X491536Y148636D01*
X491649Y148707D01*
X491705Y148763D01*
X491734Y148777D01*
X491903Y148974D01*
X492044Y149200D01*
X492170Y149440D01*
X492269Y149693D01*
X492340Y149905D01*
X492368Y150003D01*
X492382Y150088D01*
X492396Y150159D01*
X492410Y150215D01*
X492424Y150243D01*
Y150257D01*
X493623Y150102D01*
X493594Y149877D01*
X493552Y149665D01*
X493425Y149270D01*
X493270Y148932D01*
X493185Y148791D01*
X493101Y148650D01*
X493016Y148523D01*
X492932Y148425D01*
X492861Y148326D01*
X492791Y148256D01*
X492748Y148199D01*
X492706Y148157D01*
X492678Y148129D01*
X492664Y148115D01*
X492495Y147988D01*
X492326Y147861D01*
X492156Y147762D01*
X491973Y147677D01*
X491621Y147536D01*
X491282Y147452D01*
X491127Y147424D01*
X490986Y147396D01*
X490859Y147381D01*
X490747Y147367D01*
X490662Y147353D01*
X490535D01*
X490267Y147367D01*
X490028Y147396D01*
X489788Y147438D01*
X489562Y147494D01*
X489351Y147565D01*
X489168Y147635D01*
X488984Y147720D01*
X488829Y147804D01*
X488674Y147875D01*
X488548Y147959D01*
X488435Y148030D01*
X488350Y148100D01*
X488280Y148157D01*
X488223Y148199D01*
X488195Y148227D01*
X488181Y148241D01*
X488012Y148411D01*
X487871Y148594D01*
X487744Y148777D01*
X487631Y148960D01*
X487547Y149129D01*
X487462Y149313D01*
X487349Y149651D01*
X487321Y149806D01*
X487293Y149947D01*
X487265Y150074D01*
X487251Y150187D01*
X487237Y150271D01*
Y150342D01*
Y150384D01*
Y150398D01*
X487251Y150737D01*
X487307Y151047D01*
X487392Y151314D01*
X487476Y151540D01*
X487561Y151723D01*
X487645Y151864D01*
X487702Y151949D01*
X487716Y151977D01*
X487913Y152189D01*
X488125Y152372D01*
X488350Y152513D01*
X488576Y152626D01*
X488773Y152710D01*
X488928Y152767D01*
X488984Y152781D01*
X489027Y152795D01*
X489055Y152809D01*
X489069D01*
X488829Y152936D01*
X488632Y153063D01*
X488463Y153203D01*
X488322Y153330D01*
X488209Y153443D01*
X488125Y153542D01*
X488082Y153598D01*
X488068Y153626D01*
X487956Y153824D01*
X487871Y154021D01*
X487800Y154219D01*
X487758Y154402D01*
X487730Y154557D01*
X487716Y154670D01*
Y154754D01*
Y154782D01*
X487730Y155022D01*
X487772Y155262D01*
X487829Y155473D01*
X487899Y155656D01*
X487970Y155812D01*
X488026Y155938D01*
X488068Y156009D01*
X488082Y156037D01*
X488223Y156249D01*
X488392Y156432D01*
X488562Y156587D01*
X488731Y156728D01*
X488872Y156826D01*
X488999Y156911D01*
X489083Y156953D01*
X489097Y156967D01*
X489111D01*
X489365Y157080D01*
X489619Y157165D01*
X489873Y157235D01*
X490098Y157278D01*
X490281Y157306D01*
X490437Y157320D01*
X490789D01*
X490986Y157292D01*
D02*
G37*
G36*
X499233Y157418D02*
X499684Y157348D01*
X500079Y157263D01*
X500262Y157207D01*
X500431Y157151D01*
X500586Y157094D01*
X500727Y157038D01*
X500840Y156996D01*
X500953Y156953D01*
X501023Y156911D01*
X501080Y156883D01*
X501122Y156869D01*
X501136Y156855D01*
X501517Y156615D01*
X501841Y156333D01*
X502123Y156051D01*
X502363Y155769D01*
X502546Y155515D01*
X502616Y155403D01*
X502673Y155304D01*
X502729Y155233D01*
X502757Y155177D01*
X502771Y155135D01*
X502785Y155121D01*
X502983Y154684D01*
X503124Y154233D01*
X503223Y153781D01*
X503293Y153373D01*
X503321Y153189D01*
X503335Y153006D01*
X503349Y152865D01*
Y152724D01*
X503363Y152626D01*
Y152541D01*
Y152485D01*
Y152471D01*
X503335Y151963D01*
X503279Y151470D01*
X503208Y151033D01*
X503152Y150821D01*
X503110Y150638D01*
X503067Y150469D01*
X503011Y150314D01*
X502969Y150173D01*
X502941Y150060D01*
X502898Y149975D01*
X502884Y149905D01*
X502856Y149862D01*
Y149848D01*
X502645Y149425D01*
X502405Y149045D01*
X502151Y148721D01*
X502024Y148594D01*
X501912Y148467D01*
X501799Y148354D01*
X501686Y148256D01*
X501587Y148171D01*
X501503Y148115D01*
X501446Y148058D01*
X501390Y148016D01*
X501362Y148002D01*
X501348Y147988D01*
X501150Y147875D01*
X500953Y147776D01*
X500530Y147621D01*
X500107Y147508D01*
X499698Y147438D01*
X499501Y147410D01*
X499332Y147381D01*
X499177Y147367D01*
X499050D01*
X498937Y147353D01*
X498782D01*
X498500Y147367D01*
X498232Y147396D01*
X497978Y147424D01*
X497739Y147480D01*
X497513Y147551D01*
X497302Y147621D01*
X497104Y147692D01*
X496921Y147776D01*
X496766Y147847D01*
X496611Y147917D01*
X496498Y147988D01*
X496385Y148058D01*
X496315Y148115D01*
X496245Y148143D01*
X496216Y148171D01*
X496202Y148185D01*
X496005Y148354D01*
X495836Y148523D01*
X495681Y148721D01*
X495526Y148918D01*
X495272Y149313D01*
X495074Y149707D01*
X494990Y149891D01*
X494919Y150060D01*
X494863Y150215D01*
X494821Y150342D01*
X494778Y150455D01*
X494750Y150539D01*
X494736Y150596D01*
Y150610D01*
X496033Y150934D01*
X496089Y150708D01*
X496160Y150497D01*
X496230Y150300D01*
X496301Y150116D01*
X496385Y149947D01*
X496470Y149806D01*
X496569Y149665D01*
X496653Y149538D01*
X496724Y149425D01*
X496808Y149341D01*
X496879Y149256D01*
X496935Y149186D01*
X496992Y149144D01*
X497034Y149101D01*
X497048Y149087D01*
X497062Y149073D01*
X497203Y148960D01*
X497358Y148876D01*
X497668Y148721D01*
X497964Y148608D01*
X498260Y148537D01*
X498514Y148481D01*
X498613Y148467D01*
X498712D01*
X498796Y148453D01*
X498895D01*
X499219Y148467D01*
X499529Y148523D01*
X499811Y148594D01*
X500065Y148678D01*
X500262Y148763D01*
X500347Y148805D01*
X500417Y148834D01*
X500474Y148862D01*
X500516Y148890D01*
X500544Y148904D01*
X500558D01*
X500826Y149101D01*
X501052Y149313D01*
X501249Y149552D01*
X501404Y149778D01*
X501531Y149975D01*
X501615Y150145D01*
X501644Y150215D01*
X501672Y150257D01*
X501686Y150285D01*
Y150300D01*
X501799Y150666D01*
X501883Y151033D01*
X501954Y151399D01*
X501996Y151737D01*
X502010Y151892D01*
X502024Y152034D01*
Y152160D01*
X502038Y152259D01*
Y152344D01*
Y152414D01*
Y152456D01*
Y152471D01*
X502024Y152837D01*
X501996Y153175D01*
X501940Y153485D01*
X501883Y153767D01*
X501841Y154007D01*
X501813Y154106D01*
X501785Y154190D01*
X501771Y154261D01*
X501756Y154303D01*
X501742Y154331D01*
Y154345D01*
X501601Y154670D01*
X501446Y154966D01*
X501277Y155205D01*
X501094Y155417D01*
X500939Y155586D01*
X500812Y155699D01*
X500713Y155769D01*
X500699Y155797D01*
X500685D01*
X500389Y155981D01*
X500065Y156122D01*
X499755Y156220D01*
X499459Y156277D01*
X499191Y156319D01*
X499078Y156333D01*
X498979D01*
X498909Y156347D01*
X498796D01*
X498444Y156333D01*
X498119Y156277D01*
X497852Y156192D01*
X497612Y156108D01*
X497429Y156009D01*
X497288Y155938D01*
X497203Y155882D01*
X497175Y155854D01*
X496949Y155642D01*
X496738Y155403D01*
X496569Y155149D01*
X496428Y154895D01*
X496315Y154670D01*
X496273Y154557D01*
X496245Y154472D01*
X496216Y154402D01*
X496188Y154345D01*
X496174Y154317D01*
Y154303D01*
X494905Y154599D01*
X494990Y154853D01*
X495074Y155078D01*
X495187Y155290D01*
X495286Y155501D01*
X495399Y155685D01*
X495526Y155854D01*
X495638Y156023D01*
X495751Y156164D01*
X495864Y156277D01*
X495963Y156390D01*
X496061Y156488D01*
X496132Y156559D01*
X496202Y156629D01*
X496259Y156671D01*
X496287Y156685D01*
X496301Y156700D01*
X496498Y156826D01*
X496696Y156953D01*
X496893Y157052D01*
X497104Y157137D01*
X497527Y157263D01*
X497908Y157348D01*
X498091Y157390D01*
X498246Y157404D01*
X498401Y157418D01*
X498528Y157433D01*
X498627Y157447D01*
X498768D01*
X499233Y157418D01*
D02*
G37*
G36*
X152793Y147146D02*
X153032Y147132D01*
X153258Y147089D01*
X153469Y147047D01*
X153667Y146991D01*
X153850Y146934D01*
X154019Y146864D01*
X154174Y146793D01*
X154315Y146723D01*
X154428Y146652D01*
X154527Y146596D01*
X154611Y146540D01*
X154682Y146497D01*
X154724Y146455D01*
X154752Y146441D01*
X154766Y146427D01*
X154907Y146286D01*
X155034Y146131D01*
X155161Y145962D01*
X155260Y145792D01*
X155429Y145454D01*
X155542Y145116D01*
X155584Y144961D01*
X155626Y144806D01*
X155654Y144679D01*
X155683Y144566D01*
X155697Y144467D01*
Y144397D01*
X155711Y144354D01*
Y144340D01*
X154484Y144214D01*
X154456Y144538D01*
X154400Y144820D01*
X154315Y145073D01*
X154216Y145271D01*
X154132Y145440D01*
X154047Y145553D01*
X153991Y145623D01*
X153963Y145652D01*
X153751Y145821D01*
X153526Y145948D01*
X153286Y146046D01*
X153075Y146103D01*
X152877Y146145D01*
X152708Y146159D01*
X152652Y146173D01*
X152567D01*
X152271Y146159D01*
X152003Y146103D01*
X151778Y146018D01*
X151580Y145933D01*
X151425Y145835D01*
X151327Y145764D01*
X151256Y145708D01*
X151228Y145680D01*
X151059Y145482D01*
X150932Y145285D01*
X150833Y145088D01*
X150777Y144890D01*
X150735Y144735D01*
X150721Y144594D01*
X150706Y144510D01*
Y144495D01*
Y144481D01*
X150735Y144228D01*
X150791Y143960D01*
X150890Y143720D01*
X150988Y143495D01*
X151101Y143311D01*
X151200Y143156D01*
X151228Y143100D01*
X151256Y143058D01*
X151284Y143043D01*
Y143029D01*
X151397Y142874D01*
X151538Y142719D01*
X151693Y142550D01*
X151862Y142381D01*
X152215Y142043D01*
X152567Y141704D01*
X152750Y141549D01*
X152906Y141408D01*
X153061Y141281D01*
X153188Y141169D01*
X153286Y141084D01*
X153371Y141014D01*
X153427Y140971D01*
X153441Y140957D01*
X153794Y140661D01*
X154118Y140379D01*
X154386Y140125D01*
X154597Y139914D01*
X154780Y139731D01*
X154907Y139604D01*
X154978Y139519D01*
X155006Y139505D01*
Y139491D01*
X155203Y139251D01*
X155358Y139026D01*
X155499Y138800D01*
X155612Y138603D01*
X155697Y138434D01*
X155753Y138307D01*
X155781Y138222D01*
X155795Y138208D01*
Y138194D01*
X155852Y138039D01*
X155880Y137898D01*
X155908Y137757D01*
X155922Y137630D01*
X155936Y137517D01*
Y137433D01*
Y137376D01*
Y137362D01*
X149466D01*
Y138518D01*
X154273D01*
X154104Y138758D01*
X154019Y138857D01*
X153949Y138955D01*
X153878Y139040D01*
X153822Y139096D01*
X153779Y139139D01*
X153765Y139153D01*
X153695Y139223D01*
X153610Y139294D01*
X153413Y139477D01*
X153188Y139688D01*
X152948Y139900D01*
X152722Y140083D01*
X152624Y140168D01*
X152539Y140252D01*
X152469Y140309D01*
X152412Y140351D01*
X152384Y140379D01*
X152370Y140393D01*
X152144Y140591D01*
X151919Y140774D01*
X151721Y140957D01*
X151538Y141112D01*
X151369Y141267D01*
X151228Y141408D01*
X151087Y141535D01*
X150974Y141648D01*
X150861Y141761D01*
X150777Y141845D01*
X150706Y141916D01*
X150636Y141986D01*
X150565Y142071D01*
X150537Y142099D01*
X150340Y142339D01*
X150171Y142550D01*
X150030Y142762D01*
X149917Y142931D01*
X149832Y143086D01*
X149776Y143199D01*
X149748Y143269D01*
X149734Y143297D01*
X149649Y143509D01*
X149593Y143720D01*
X149536Y143918D01*
X149508Y144087D01*
X149494Y144242D01*
X149480Y144354D01*
Y144425D01*
Y144453D01*
X149494Y144665D01*
X149522Y144862D01*
X149550Y145059D01*
X149607Y145229D01*
X149748Y145567D01*
X149889Y145835D01*
X149973Y145962D01*
X150044Y146060D01*
X150114Y146159D01*
X150185Y146229D01*
X150241Y146286D01*
X150269Y146342D01*
X150298Y146356D01*
X150312Y146370D01*
X150467Y146511D01*
X150636Y146638D01*
X150819Y146737D01*
X151002Y146821D01*
X151369Y146962D01*
X151735Y147061D01*
X151890Y147089D01*
X152046Y147118D01*
X152187Y147132D01*
X152299Y147146D01*
X152398Y147160D01*
X152539D01*
X152793Y147146D01*
D02*
G37*
G36*
X161364Y147259D02*
X161815Y147188D01*
X162209Y147104D01*
X162393Y147047D01*
X162562Y146991D01*
X162717Y146934D01*
X162858Y146878D01*
X162971Y146836D01*
X163083Y146793D01*
X163154Y146751D01*
X163210Y146723D01*
X163253Y146709D01*
X163267Y146695D01*
X163647Y146455D01*
X163972Y146173D01*
X164254Y145891D01*
X164493Y145609D01*
X164676Y145355D01*
X164747Y145243D01*
X164803Y145144D01*
X164860Y145073D01*
X164888Y145017D01*
X164902Y144975D01*
X164916Y144961D01*
X165114Y144524D01*
X165254Y144073D01*
X165353Y143622D01*
X165424Y143213D01*
X165452Y143029D01*
X165466Y142846D01*
X165480Y142705D01*
Y142564D01*
X165494Y142466D01*
Y142381D01*
Y142325D01*
Y142310D01*
X165466Y141803D01*
X165410Y141310D01*
X165339Y140873D01*
X165283Y140661D01*
X165240Y140478D01*
X165198Y140309D01*
X165142Y140154D01*
X165099Y140013D01*
X165071Y139900D01*
X165029Y139815D01*
X165015Y139745D01*
X164987Y139703D01*
Y139688D01*
X164775Y139265D01*
X164536Y138885D01*
X164282Y138561D01*
X164155Y138434D01*
X164042Y138307D01*
X163929Y138194D01*
X163817Y138096D01*
X163718Y138011D01*
X163633Y137955D01*
X163577Y137898D01*
X163521Y137856D01*
X163492Y137842D01*
X163478Y137828D01*
X163281Y137715D01*
X163083Y137616D01*
X162661Y137461D01*
X162238Y137348D01*
X161829Y137278D01*
X161632Y137250D01*
X161462Y137221D01*
X161307Y137207D01*
X161180D01*
X161068Y137193D01*
X160913D01*
X160631Y137207D01*
X160363Y137236D01*
X160109Y137264D01*
X159869Y137320D01*
X159644Y137391D01*
X159432Y137461D01*
X159235Y137532D01*
X159052Y137616D01*
X158897Y137687D01*
X158742Y137757D01*
X158629Y137828D01*
X158516Y137898D01*
X158446Y137955D01*
X158375Y137983D01*
X158347Y138011D01*
X158333Y138025D01*
X158135Y138194D01*
X157966Y138363D01*
X157811Y138561D01*
X157656Y138758D01*
X157402Y139153D01*
X157205Y139548D01*
X157121Y139731D01*
X157050Y139900D01*
X156994Y140055D01*
X156951Y140182D01*
X156909Y140295D01*
X156881Y140379D01*
X156867Y140436D01*
Y140450D01*
X158164Y140774D01*
X158220Y140548D01*
X158291Y140337D01*
X158361Y140140D01*
X158432Y139956D01*
X158516Y139787D01*
X158601Y139646D01*
X158699Y139505D01*
X158784Y139378D01*
X158854Y139265D01*
X158939Y139181D01*
X159010Y139096D01*
X159066Y139026D01*
X159122Y138984D01*
X159165Y138941D01*
X159179Y138927D01*
X159193Y138913D01*
X159334Y138800D01*
X159489Y138716D01*
X159799Y138561D01*
X160095Y138448D01*
X160391Y138377D01*
X160645Y138321D01*
X160743Y138307D01*
X160842D01*
X160927Y138293D01*
X161025D01*
X161350Y138307D01*
X161660Y138363D01*
X161942Y138434D01*
X162195Y138518D01*
X162393Y138603D01*
X162477Y138645D01*
X162548Y138673D01*
X162604Y138702D01*
X162647Y138730D01*
X162675Y138744D01*
X162689D01*
X162957Y138941D01*
X163182Y139153D01*
X163380Y139392D01*
X163535Y139618D01*
X163661Y139815D01*
X163746Y139985D01*
X163774Y140055D01*
X163803Y140097D01*
X163817Y140125D01*
Y140140D01*
X163929Y140506D01*
X164014Y140873D01*
X164084Y141239D01*
X164127Y141577D01*
X164141Y141733D01*
X164155Y141874D01*
Y142000D01*
X164169Y142099D01*
Y142184D01*
Y142254D01*
Y142296D01*
Y142310D01*
X164155Y142677D01*
X164127Y143015D01*
X164070Y143326D01*
X164014Y143607D01*
X163972Y143847D01*
X163944Y143946D01*
X163915Y144030D01*
X163901Y144101D01*
X163887Y144143D01*
X163873Y144171D01*
Y144185D01*
X163732Y144510D01*
X163577Y144806D01*
X163408Y145045D01*
X163225Y145257D01*
X163069Y145426D01*
X162943Y145539D01*
X162844Y145609D01*
X162830Y145637D01*
X162816D01*
X162520Y145821D01*
X162195Y145962D01*
X161885Y146060D01*
X161589Y146117D01*
X161321Y146159D01*
X161209Y146173D01*
X161110D01*
X161040Y146187D01*
X160927D01*
X160574Y146173D01*
X160250Y146117D01*
X159982Y146032D01*
X159743Y145948D01*
X159559Y145849D01*
X159418Y145778D01*
X159334Y145722D01*
X159305Y145694D01*
X159080Y145482D01*
X158869Y145243D01*
X158699Y144989D01*
X158558Y144735D01*
X158446Y144510D01*
X158403Y144397D01*
X158375Y144312D01*
X158347Y144242D01*
X158319Y144185D01*
X158305Y144157D01*
Y144143D01*
X157036Y144439D01*
X157121Y144693D01*
X157205Y144918D01*
X157318Y145130D01*
X157417Y145341D01*
X157529Y145525D01*
X157656Y145694D01*
X157769Y145863D01*
X157882Y146004D01*
X157994Y146117D01*
X158093Y146229D01*
X158192Y146328D01*
X158262Y146399D01*
X158333Y146469D01*
X158389Y146511D01*
X158417Y146525D01*
X158432Y146540D01*
X158629Y146666D01*
X158826Y146793D01*
X159024Y146892D01*
X159235Y146977D01*
X159658Y147104D01*
X160039Y147188D01*
X160222Y147230D01*
X160377Y147244D01*
X160532Y147259D01*
X160659Y147273D01*
X160758Y147287D01*
X160898D01*
X161364Y147259D01*
D02*
G37*
G36*
X514497Y118980D02*
X514652Y118755D01*
X514836Y118529D01*
X515005Y118332D01*
X515174Y118163D01*
X515301Y118022D01*
X515357Y117979D01*
X515400Y117937D01*
X515414Y117923D01*
X515428Y117909D01*
X515724Y117669D01*
X516020Y117444D01*
X516302Y117246D01*
X516584Y117091D01*
X516823Y116950D01*
X516922Y116894D01*
X517007Y116852D01*
X517077Y116809D01*
X517133Y116795D01*
X517162Y116767D01*
X517176D01*
Y115611D01*
X516964Y115696D01*
X516753Y115794D01*
X516541Y115893D01*
X516344Y115992D01*
X516175Y116076D01*
X516034Y116147D01*
X515949Y116203D01*
X515935Y116217D01*
X515921D01*
X515667Y116372D01*
X515442Y116527D01*
X515244Y116668D01*
X515089Y116795D01*
X514948Y116894D01*
X514864Y116978D01*
X514793Y117035D01*
X514779Y117049D01*
Y109422D01*
X513581D01*
Y119220D01*
X514356D01*
X514497Y118980D01*
D02*
G37*
G36*
X523689Y119319D02*
X524140Y119248D01*
X524534Y119164D01*
X524718Y119107D01*
X524887Y119051D01*
X525042Y118994D01*
X525183Y118938D01*
X525296Y118896D01*
X525408Y118853D01*
X525479Y118811D01*
X525535Y118783D01*
X525578Y118769D01*
X525592Y118755D01*
X525972Y118515D01*
X526297Y118233D01*
X526578Y117951D01*
X526818Y117669D01*
X527001Y117415D01*
X527072Y117303D01*
X527128Y117204D01*
X527185Y117134D01*
X527213Y117077D01*
X527227Y117035D01*
X527241Y117021D01*
X527438Y116584D01*
X527579Y116133D01*
X527678Y115681D01*
X527748Y115273D01*
X527777Y115089D01*
X527791Y114906D01*
X527805Y114765D01*
Y114624D01*
X527819Y114526D01*
Y114441D01*
Y114385D01*
Y114370D01*
X527791Y113863D01*
X527734Y113370D01*
X527664Y112933D01*
X527607Y112721D01*
X527565Y112538D01*
X527523Y112369D01*
X527467Y112214D01*
X527424Y112073D01*
X527396Y111960D01*
X527354Y111875D01*
X527340Y111805D01*
X527312Y111763D01*
Y111748D01*
X527100Y111326D01*
X526860Y110945D01*
X526607Y110621D01*
X526480Y110494D01*
X526367Y110367D01*
X526254Y110254D01*
X526141Y110155D01*
X526043Y110071D01*
X525958Y110014D01*
X525902Y109958D01*
X525845Y109916D01*
X525817Y109902D01*
X525803Y109888D01*
X525606Y109775D01*
X525408Y109676D01*
X524986Y109521D01*
X524563Y109408D01*
X524154Y109338D01*
X523956Y109310D01*
X523787Y109282D01*
X523632Y109267D01*
X523505D01*
X523392Y109253D01*
X523237D01*
X522956Y109267D01*
X522688Y109296D01*
X522434Y109324D01*
X522194Y109380D01*
X521969Y109451D01*
X521757Y109521D01*
X521560Y109592D01*
X521377Y109676D01*
X521222Y109747D01*
X521067Y109817D01*
X520954Y109888D01*
X520841Y109958D01*
X520770Y110014D01*
X520700Y110043D01*
X520672Y110071D01*
X520658Y110085D01*
X520460Y110254D01*
X520291Y110423D01*
X520136Y110621D01*
X519981Y110818D01*
X519727Y111213D01*
X519530Y111608D01*
X519445Y111791D01*
X519375Y111960D01*
X519319Y112115D01*
X519276Y112242D01*
X519234Y112355D01*
X519206Y112439D01*
X519192Y112496D01*
Y112510D01*
X520489Y112834D01*
X520545Y112608D01*
X520615Y112397D01*
X520686Y112199D01*
X520756Y112016D01*
X520841Y111847D01*
X520926Y111706D01*
X521024Y111565D01*
X521109Y111438D01*
X521179Y111326D01*
X521264Y111241D01*
X521334Y111156D01*
X521391Y111086D01*
X521447Y111044D01*
X521489Y111001D01*
X521503Y110987D01*
X521518Y110973D01*
X521659Y110860D01*
X521814Y110776D01*
X522124Y110621D01*
X522420Y110508D01*
X522716Y110437D01*
X522970Y110381D01*
X523068Y110367D01*
X523167D01*
X523252Y110353D01*
X523350D01*
X523675Y110367D01*
X523985Y110423D01*
X524267Y110494D01*
X524520Y110578D01*
X524718Y110663D01*
X524802Y110705D01*
X524873Y110733D01*
X524929Y110762D01*
X524971Y110790D01*
X525000Y110804D01*
X525014D01*
X525281Y111001D01*
X525507Y111213D01*
X525704Y111452D01*
X525859Y111678D01*
X525986Y111875D01*
X526071Y112044D01*
X526099Y112115D01*
X526127Y112157D01*
X526141Y112185D01*
Y112199D01*
X526254Y112566D01*
X526339Y112933D01*
X526409Y113299D01*
X526452Y113637D01*
X526466Y113792D01*
X526480Y113933D01*
Y114060D01*
X526494Y114159D01*
Y114244D01*
Y114314D01*
Y114356D01*
Y114370D01*
X526480Y114737D01*
X526452Y115075D01*
X526395Y115386D01*
X526339Y115667D01*
X526297Y115907D01*
X526268Y116006D01*
X526240Y116090D01*
X526226Y116161D01*
X526212Y116203D01*
X526198Y116231D01*
Y116245D01*
X526057Y116570D01*
X525902Y116866D01*
X525733Y117105D01*
X525549Y117317D01*
X525394Y117486D01*
X525267Y117599D01*
X525169Y117669D01*
X525155Y117697D01*
X525141D01*
X524845Y117881D01*
X524520Y118022D01*
X524210Y118120D01*
X523914Y118177D01*
X523646Y118219D01*
X523534Y118233D01*
X523435D01*
X523364Y118247D01*
X523252D01*
X522899Y118233D01*
X522575Y118177D01*
X522307Y118092D01*
X522067Y118007D01*
X521884Y117909D01*
X521743Y117838D01*
X521659Y117782D01*
X521630Y117754D01*
X521405Y117542D01*
X521193Y117303D01*
X521024Y117049D01*
X520883Y116795D01*
X520770Y116570D01*
X520728Y116457D01*
X520700Y116372D01*
X520672Y116302D01*
X520644Y116245D01*
X520630Y116217D01*
Y116203D01*
X519361Y116499D01*
X519445Y116753D01*
X519530Y116978D01*
X519643Y117190D01*
X519741Y117401D01*
X519854Y117585D01*
X519981Y117754D01*
X520094Y117923D01*
X520207Y118064D01*
X520319Y118177D01*
X520418Y118289D01*
X520517Y118388D01*
X520587Y118459D01*
X520658Y118529D01*
X520714Y118571D01*
X520742Y118586D01*
X520756Y118600D01*
X520954Y118727D01*
X521151Y118853D01*
X521348Y118952D01*
X521560Y119037D01*
X521983Y119164D01*
X522363Y119248D01*
X522547Y119290D01*
X522702Y119304D01*
X522857Y119319D01*
X522984Y119333D01*
X523082Y119347D01*
X523223D01*
X523689Y119319D01*
D02*
G37*
%LPC*%
G36*
X273881Y256932D02*
Y252562D01*
X276954D01*
X273881Y256932D01*
D02*
G37*
G36*
X300014Y288413D02*
X299788D01*
X299648Y288385D01*
X299394Y288314D01*
X299168Y288216D01*
X298971Y288117D01*
X298816Y288004D01*
X298703Y287906D01*
X298633Y287835D01*
X298604Y287821D01*
Y287807D01*
X298421Y287567D01*
X298280Y287299D01*
X298181Y287017D01*
X298125Y286750D01*
X298083Y286524D01*
X298069Y286425D01*
Y286327D01*
X298055Y286256D01*
Y286200D01*
Y286172D01*
Y286157D01*
X298083Y285791D01*
X298139Y285467D01*
X298224Y285199D01*
X298322Y284973D01*
X298435Y284790D01*
X298520Y284663D01*
X298576Y284579D01*
X298604Y284550D01*
X298816Y284353D01*
X299041Y284212D01*
X299267Y284114D01*
X299492Y284043D01*
X299676Y284001D01*
X299831Y283987D01*
X299887Y283972D01*
X299972D01*
X300268Y284001D01*
X300536Y284057D01*
X300775Y284156D01*
X300987Y284268D01*
X301142Y284367D01*
X301269Y284466D01*
X301339Y284522D01*
X301367Y284550D01*
X301551Y284776D01*
X301692Y285030D01*
X301776Y285284D01*
X301847Y285523D01*
X301889Y285735D01*
X301903Y285819D01*
Y285904D01*
X301917Y285974D01*
Y286017D01*
Y286045D01*
Y286059D01*
X301889Y286425D01*
X301833Y286764D01*
X301734Y287060D01*
X301621Y287299D01*
X301522Y287497D01*
X301424Y287638D01*
X301396Y287680D01*
X301367Y287722D01*
X301339Y287736D01*
Y287750D01*
X301226Y287863D01*
X301114Y287976D01*
X300874Y288131D01*
X300634Y288258D01*
X300409Y288328D01*
X300226Y288385D01*
X300070Y288399D01*
X300014Y288413D01*
D02*
G37*
G36*
X237642Y199351D02*
X234569D01*
X234188Y199337D01*
X233864Y199280D01*
X233582Y199210D01*
X233371Y199125D01*
X233187Y199041D01*
X233074Y198970D01*
X233004Y198914D01*
X232976Y198900D01*
X232807Y198717D01*
X232680Y198533D01*
X232595Y198336D01*
X232525Y198167D01*
X232496Y197998D01*
X232482Y197871D01*
X232468Y197786D01*
Y197772D01*
Y197758D01*
X232482Y197589D01*
X232511Y197420D01*
X232553Y197279D01*
X232595Y197152D01*
X232652Y197039D01*
X232694Y196954D01*
X232722Y196898D01*
X232736Y196884D01*
X232835Y196743D01*
X232962Y196616D01*
X233089Y196518D01*
X233216Y196433D01*
X233328Y196376D01*
X233413Y196334D01*
X233469Y196306D01*
X233497Y196292D01*
X233695Y196236D01*
X233920Y196193D01*
X234146Y196165D01*
X234371Y196151D01*
X234569Y196137D01*
X234738Y196123D01*
X237642D01*
Y199351D01*
D02*
G37*
G36*
X236747Y217131D02*
X233674D01*
X233293Y217117D01*
X232969Y217061D01*
X232687Y216990D01*
X232475Y216905D01*
X232292Y216821D01*
X232179Y216750D01*
X232109Y216694D01*
X232081Y216680D01*
X231912Y216497D01*
X231785Y216313D01*
X231700Y216116D01*
X231630Y215947D01*
X231601Y215778D01*
X231587Y215651D01*
X231573Y215566D01*
Y215552D01*
Y215538D01*
X231587Y215369D01*
X231616Y215200D01*
X231658Y215059D01*
X231700Y214932D01*
X231756Y214819D01*
X231799Y214734D01*
X231827Y214678D01*
X231841Y214664D01*
X231940Y214523D01*
X232067Y214396D01*
X232194Y214298D01*
X232320Y214213D01*
X232433Y214156D01*
X232518Y214114D01*
X232574Y214086D01*
X232602Y214072D01*
X232800Y214016D01*
X233025Y213973D01*
X233251Y213945D01*
X233476Y213931D01*
X233674Y213917D01*
X233843Y213903D01*
X236747D01*
Y217131D01*
D02*
G37*
G36*
X331228Y199867D02*
Y195497D01*
X334301D01*
X331228Y199867D01*
D02*
G37*
G36*
X482819Y219755D02*
X479746D01*
X479365Y219741D01*
X479041Y219685D01*
X478759Y219615D01*
X478548Y219530D01*
X478365Y219445D01*
X478252Y219375D01*
X478181Y219319D01*
X478153Y219304D01*
X477984Y219121D01*
X477857Y218938D01*
X477772Y218741D01*
X477702Y218571D01*
X477674Y218402D01*
X477660Y218275D01*
X477646Y218191D01*
Y218177D01*
Y218163D01*
X477660Y217993D01*
X477688Y217824D01*
X477730Y217683D01*
X477772Y217556D01*
X477829Y217444D01*
X477871Y217359D01*
X477899Y217303D01*
X477913Y217289D01*
X478012Y217148D01*
X478139Y217021D01*
X478266Y216922D01*
X478393Y216838D01*
X478506Y216781D01*
X478590Y216739D01*
X478647Y216711D01*
X478675Y216696D01*
X478872Y216640D01*
X479098Y216598D01*
X479323Y216570D01*
X479549Y216556D01*
X479746Y216541D01*
X479915Y216527D01*
X482819D01*
Y219755D01*
D02*
G37*
G36*
X451020Y245071D02*
X447947D01*
X447566Y245057D01*
X447242Y245000D01*
X446960Y244930D01*
X446749Y244845D01*
X446565Y244761D01*
X446452Y244690D01*
X446382Y244634D01*
X446354Y244620D01*
X446185Y244437D01*
X446058Y244253D01*
X445973Y244056D01*
X445903Y243887D01*
X445874Y243718D01*
X445860Y243591D01*
X445846Y243506D01*
Y243492D01*
Y243478D01*
X445860Y243309D01*
X445888Y243140D01*
X445931Y242999D01*
X445973Y242872D01*
X446030Y242759D01*
X446072Y242675D01*
X446100Y242618D01*
X446114Y242604D01*
X446213Y242463D01*
X446340Y242336D01*
X446466Y242237D01*
X446593Y242153D01*
X446706Y242097D01*
X446791Y242054D01*
X446847Y242026D01*
X446875Y242012D01*
X447073Y241956D01*
X447298Y241913D01*
X447524Y241885D01*
X447749Y241871D01*
X447947Y241857D01*
X448116Y241843D01*
X451020D01*
Y245071D01*
D02*
G37*
G36*
X507275D02*
X504202D01*
X503821Y245057D01*
X503497Y245000D01*
X503215Y244930D01*
X503003Y244845D01*
X502820Y244761D01*
X502707Y244690D01*
X502637Y244634D01*
X502609Y244620D01*
X502439Y244437D01*
X502313Y244253D01*
X502228Y244056D01*
X502158Y243887D01*
X502129Y243718D01*
X502115Y243591D01*
X502101Y243506D01*
Y243492D01*
Y243478D01*
X502115Y243309D01*
X502143Y243140D01*
X502186Y242999D01*
X502228Y242872D01*
X502284Y242759D01*
X502327Y242675D01*
X502355Y242618D01*
X502369Y242604D01*
X502468Y242463D01*
X502594Y242336D01*
X502721Y242237D01*
X502848Y242153D01*
X502961Y242097D01*
X503046Y242054D01*
X503102Y242026D01*
X503130Y242012D01*
X503327Y241956D01*
X503553Y241913D01*
X503779Y241885D01*
X504004Y241871D01*
X504202Y241857D01*
X504371Y241843D01*
X507275D01*
Y245071D01*
D02*
G37*
G36*
X470077Y245000D02*
X467821D01*
X467638Y244986D01*
X467455D01*
X467286Y244972D01*
X467004Y244930D01*
X466778Y244902D01*
X466595Y244860D01*
X466468Y244817D01*
X466398Y244803D01*
X466369Y244789D01*
X466116Y244662D01*
X465876Y244507D01*
X465664Y244324D01*
X465481Y244141D01*
X465340Y243971D01*
X465228Y243830D01*
X465199Y243774D01*
X465171Y243732D01*
X465143Y243704D01*
Y243689D01*
X465058Y243534D01*
X464974Y243351D01*
X464847Y242985D01*
X464762Y242590D01*
X464692Y242209D01*
X464678Y242040D01*
X464664Y241871D01*
X464650Y241730D01*
Y241603D01*
X464636Y241490D01*
Y241420D01*
Y241363D01*
Y241349D01*
X464650Y240955D01*
X464678Y240588D01*
X464720Y240264D01*
X464762Y239982D01*
X464790Y239869D01*
X464819Y239771D01*
X464847Y239672D01*
X464861Y239601D01*
X464875Y239545D01*
X464889Y239503D01*
X464903Y239475D01*
Y239460D01*
X465002Y239193D01*
X465115Y238953D01*
X465242Y238741D01*
X465354Y238558D01*
X465453Y238417D01*
X465538Y238319D01*
X465594Y238262D01*
X465608Y238234D01*
X465749Y238121D01*
X465890Y238022D01*
X466031Y237938D01*
X466172Y237853D01*
X466299Y237797D01*
X466398Y237755D01*
X466468Y237740D01*
X466496Y237726D01*
X466708Y237670D01*
X466962Y237628D01*
X467215Y237600D01*
X467455Y237586D01*
X467666Y237571D01*
X467765Y237557D01*
X470077D01*
Y245000D01*
D02*
G37*
G36*
X488232D02*
X485976D01*
X485793Y244986D01*
X485610D01*
X485440Y244972D01*
X485159Y244930D01*
X484933Y244902D01*
X484750Y244860D01*
X484623Y244817D01*
X484552Y244803D01*
X484524Y244789D01*
X484271Y244662D01*
X484031Y244507D01*
X483819Y244324D01*
X483636Y244141D01*
X483495Y243971D01*
X483382Y243830D01*
X483354Y243774D01*
X483326Y243732D01*
X483298Y243704D01*
Y243689D01*
X483213Y243534D01*
X483129Y243351D01*
X483002Y242985D01*
X482917Y242590D01*
X482847Y242209D01*
X482833Y242040D01*
X482818Y241871D01*
X482804Y241730D01*
Y241603D01*
X482790Y241490D01*
Y241420D01*
Y241363D01*
Y241349D01*
X482804Y240955D01*
X482833Y240588D01*
X482875Y240264D01*
X482917Y239982D01*
X482945Y239869D01*
X482974Y239771D01*
X483002Y239672D01*
X483016Y239601D01*
X483030Y239545D01*
X483044Y239503D01*
X483058Y239475D01*
Y239460D01*
X483157Y239193D01*
X483270Y238953D01*
X483396Y238741D01*
X483509Y238558D01*
X483608Y238417D01*
X483693Y238319D01*
X483749Y238262D01*
X483763Y238234D01*
X483904Y238121D01*
X484045Y238022D01*
X484186Y237938D01*
X484327Y237853D01*
X484454Y237797D01*
X484552Y237755D01*
X484623Y237740D01*
X484651Y237726D01*
X484863Y237670D01*
X485116Y237628D01*
X485370Y237600D01*
X485610Y237586D01*
X485821Y237571D01*
X485920Y237557D01*
X488232D01*
Y245000D01*
D02*
G37*
G36*
X363556Y194433D02*
X363444D01*
X363204Y194419D01*
X362978Y194363D01*
X362795Y194292D01*
X362626Y194207D01*
X362499Y194123D01*
X362400Y194052D01*
X362330Y193996D01*
X362316Y193982D01*
X362161Y193799D01*
X362048Y193615D01*
X361963Y193432D01*
X361907Y193263D01*
X361879Y193108D01*
X361851Y192981D01*
Y192896D01*
Y192882D01*
Y192868D01*
X361865Y192643D01*
X361921Y192431D01*
X361992Y192248D01*
X362076Y192093D01*
X362161Y191966D01*
X362231Y191882D01*
X362288Y191811D01*
X362302Y191797D01*
X362471Y191656D01*
X362668Y191543D01*
X362851Y191473D01*
X363035Y191416D01*
X363204Y191388D01*
X363331Y191374D01*
X363415Y191360D01*
X363444D01*
X363697Y191374D01*
X363923Y191430D01*
X364120Y191501D01*
X364289Y191586D01*
X364416Y191656D01*
X364515Y191726D01*
X364585Y191783D01*
X364599Y191797D01*
X364740Y191966D01*
X364853Y192163D01*
X364924Y192347D01*
X364980Y192530D01*
X365008Y192685D01*
X365022Y192812D01*
X365037Y192896D01*
Y192911D01*
Y192925D01*
X365022Y193150D01*
X364966Y193348D01*
X364896Y193531D01*
X364811Y193686D01*
X364740Y193813D01*
X364670Y193911D01*
X364614Y193968D01*
X364599Y193982D01*
X364416Y194137D01*
X364233Y194250D01*
X364036Y194320D01*
X363852Y194377D01*
X363683Y194405D01*
X363556Y194433D01*
D02*
G37*
G36*
X363570Y190387D02*
X363486D01*
X363176Y190359D01*
X362894Y190303D01*
X362640Y190204D01*
X362429Y190105D01*
X362259Y189993D01*
X362132Y189894D01*
X362062Y189837D01*
X362034Y189809D01*
X361837Y189584D01*
X361696Y189344D01*
X361597Y189104D01*
X361526Y188893D01*
X361484Y188682D01*
X361470Y188526D01*
X361456Y188470D01*
Y188428D01*
Y188400D01*
Y188385D01*
X361484Y188089D01*
X361540Y187808D01*
X361639Y187568D01*
X361738Y187370D01*
X361837Y187215D01*
X361935Y187089D01*
X361992Y187018D01*
X362020Y186990D01*
X362245Y186807D01*
X362471Y186666D01*
X362710Y186581D01*
X362936Y186511D01*
X363133Y186468D01*
X363303Y186454D01*
X363359Y186440D01*
X363444D01*
X363641Y186454D01*
X363838Y186482D01*
X364021Y186525D01*
X364177Y186567D01*
X364304Y186609D01*
X364402Y186651D01*
X364459Y186680D01*
X364487Y186694D01*
X364656Y186807D01*
X364797Y186919D01*
X364924Y187046D01*
X365022Y187173D01*
X365107Y187272D01*
X365163Y187356D01*
X365192Y187427D01*
X365206Y187441D01*
X365276Y187624D01*
X365333Y187793D01*
X365375Y187962D01*
X365403Y188118D01*
X365417Y188244D01*
X365431Y188343D01*
Y188400D01*
Y188428D01*
X365403Y188724D01*
X365347Y188992D01*
X365262Y189231D01*
X365149Y189443D01*
X365051Y189598D01*
X364966Y189725D01*
X364910Y189795D01*
X364882Y189823D01*
X364670Y190007D01*
X364430Y190148D01*
X364205Y190246D01*
X363979Y190317D01*
X363782Y190359D01*
X363627Y190373D01*
X363570Y190387D01*
D02*
G37*
G36*
X274551Y114695D02*
X274466D01*
X274170Y114667D01*
X273902Y114596D01*
X273677Y114511D01*
X273479Y114399D01*
X273324Y114286D01*
X273211Y114201D01*
X273141Y114131D01*
X273113Y114103D01*
X272929Y113863D01*
X272789Y113609D01*
X272690Y113341D01*
X272633Y113088D01*
X272591Y112862D01*
X272577Y112763D01*
Y112679D01*
X272563Y112608D01*
Y112552D01*
Y112524D01*
Y112510D01*
X272591Y112129D01*
X272647Y111805D01*
X272732Y111523D01*
X272831Y111283D01*
X272944Y111100D01*
X273028Y110959D01*
X273085Y110874D01*
X273113Y110860D01*
Y110846D01*
X273211Y110733D01*
X273324Y110649D01*
X273550Y110494D01*
X273775Y110395D01*
X273973Y110310D01*
X274156Y110268D01*
X274297Y110254D01*
X274353Y110240D01*
X274424D01*
X274621Y110254D01*
X274804Y110282D01*
X274974Y110339D01*
X275114Y110395D01*
X275241Y110437D01*
X275340Y110494D01*
X275396Y110522D01*
X275425Y110536D01*
X275594Y110663D01*
X275735Y110790D01*
X275862Y110945D01*
X275960Y111072D01*
X276045Y111199D01*
X276101Y111297D01*
X276144Y111368D01*
X276158Y111396D01*
X276242Y111608D01*
X276299Y111819D01*
X276355Y112016D01*
X276383Y112199D01*
X276397Y112355D01*
X276411Y112481D01*
Y112552D01*
Y112580D01*
X276383Y112919D01*
X276327Y113215D01*
X276228Y113482D01*
X276129Y113694D01*
X276031Y113877D01*
X275932Y114004D01*
X275876Y114074D01*
X275848Y114103D01*
X275622Y114300D01*
X275396Y114441D01*
X275157Y114554D01*
X274945Y114624D01*
X274748Y114667D01*
X274607Y114681D01*
X274551Y114695D01*
D02*
G37*
%LPD*%
D11*
X139660Y171260D02*
G03*
X139660Y171260I-1000J0D01*
G01*
X531500Y155900D02*
G03*
X531500Y155900I-1000J0D01*
G01*
X142900Y220950D02*
G03*
X142900Y220950I-1000J0D01*
G01*
D13*
X314550Y206800D02*
X358550D01*
X314550Y275800D02*
X358550D01*
X105410Y228050D02*
X110490D01*
X105410Y161050D02*
X110490D01*
X120950Y179550D02*
Y194550D01*
X94950Y166250D02*
Y222850D01*
X134300Y263000D02*
X145100D01*
X134300Y245000D02*
X145100D01*
X543000Y179400D02*
X560550D01*
X582450D02*
X586000D01*
X543000Y105400D02*
X560550D01*
X582450D02*
X586000D01*
X543000Y178600D02*
Y179400D01*
Y105400D02*
Y106200D01*
X586000Y105400D02*
Y179400D01*
X502600Y162450D02*
X513400D01*
X502600Y180450D02*
X513400D01*
X137900Y193550D02*
Y200150D01*
X149050Y188850D02*
X155750D01*
X166900Y193550D02*
Y200150D01*
D62*
X293650Y211760D02*
G03*
X293650Y211760I-1500J0D01*
G01*
D63*
X333502Y147574D02*
G03*
X339598Y147574I3048J0D01*
G01*
X355854D01*
X333502D02*
X339598D01*
X317246D02*
X333502D01*
X317246Y68326D02*
X355854D01*
X328740Y163322D02*
X344360D01*
X328740Y192278D02*
X344360D01*
D64*
X342550Y189300D02*
G03*
X342550Y189300I-1000J0D01*
G01*
D65*
X352316Y195580D02*
G03*
X352316Y195580I-1796J0D01*
G01*
X498199Y222250D02*
G03*
X498199Y222250I-359J0D01*
G01*
M02*
