G04*
G04 #@! TF.GenerationSoftware,Altium Limited,Altium Designer,24.1.2 (44)*
G04*
G04 Layer_Color=8421504*
%FSLAX44Y44*%
%MOMM*%
G71*
G04*
G04 #@! TF.SameCoordinates,6A4311CB-8E8A-427E-B903-E888CF1DD548*
G04*
G04*
G04 #@! TF.FilePolarity,Positive*
G04*
G01*
G75*
%ADD14R,1.0300X1.4200*%
%ADD15R,1.2000X1.2000*%
D14*
X207970Y198120D02*
D03*
X226370D02*
D03*
X404170Y116840D02*
D03*
X385770D02*
D03*
X404170Y198120D02*
D03*
X385770D02*
D03*
X162870Y116840D02*
D03*
X144470D02*
D03*
X162870Y198120D02*
D03*
X144470D02*
D03*
X271470Y279400D02*
D03*
X289870D02*
D03*
X512770Y280670D02*
D03*
X531170D02*
D03*
X162870Y279400D02*
D03*
X144470D02*
D03*
X404170D02*
D03*
X385770D02*
D03*
X512770Y198120D02*
D03*
X531170D02*
D03*
X449270D02*
D03*
X467670D02*
D03*
X512770Y116840D02*
D03*
X531170D02*
D03*
X271470Y198120D02*
D03*
X289870D02*
D03*
X271470Y116840D02*
D03*
X289870D02*
D03*
D15*
X273050Y78400D02*
D03*
Y99400D02*
D03*
X288290D02*
D03*
Y78400D02*
D03*
X146050D02*
D03*
Y99400D02*
D03*
X161290D02*
D03*
Y78400D02*
D03*
X146050Y159680D02*
D03*
Y180680D02*
D03*
X161290D02*
D03*
Y159680D02*
D03*
X273050D02*
D03*
Y180680D02*
D03*
X288290D02*
D03*
Y159680D02*
D03*
X209550D02*
D03*
Y180680D02*
D03*
X224790D02*
D03*
Y159680D02*
D03*
X273050Y240960D02*
D03*
Y261960D02*
D03*
X288290D02*
D03*
Y240960D02*
D03*
X146050D02*
D03*
Y261960D02*
D03*
X161290D02*
D03*
Y240960D02*
D03*
X529590Y99400D02*
D03*
Y78400D02*
D03*
X387350D02*
D03*
Y99400D02*
D03*
X402590D02*
D03*
Y78400D02*
D03*
X387350Y240960D02*
D03*
Y261960D02*
D03*
X402590D02*
D03*
Y240960D02*
D03*
X529590Y180680D02*
D03*
Y159680D02*
D03*
X514350D02*
D03*
Y180680D02*
D03*
X529590Y263230D02*
D03*
Y242230D02*
D03*
X514350D02*
D03*
Y263230D02*
D03*
X450850Y159680D02*
D03*
Y180680D02*
D03*
X466090D02*
D03*
Y159680D02*
D03*
X387350D02*
D03*
Y180680D02*
D03*
X402590D02*
D03*
Y159680D02*
D03*
X514350Y78400D02*
D03*
Y99400D02*
D03*
M02*
