G04*
G04 #@! TF.GenerationSoftware,Altium Limited,Altium Designer,24.1.2 (44)*
G04*
G04 Layer_Color=128*
%FSLAX44Y44*%
%MOMM*%
G71*
G04*
G04 #@! TF.SameCoordinates,6A4311CB-8E8A-427E-B903-E888CF1DD548*
G04*
G04*
G04 #@! TF.FilePolarity,Positive*
G04*
G01*
G75*
%ADD14R,1.0300X1.4200*%
%ADD15R,1.2000X1.2000*%
%ADD32R,0.9300X0.8900*%
%ADD33R,0.8900X0.9300*%
G04:AMPARAMS|DCode=34|XSize=1.56mm|YSize=0.41mm|CornerRadius=0.1025mm|HoleSize=0mm|Usage=FLASHONLY|Rotation=0.000|XOffset=0mm|YOffset=0mm|HoleType=Round|Shape=RoundedRectangle|*
%AMROUNDEDRECTD34*
21,1,1.5600,0.2050,0,0,0.0*
21,1,1.3550,0.4100,0,0,0.0*
1,1,0.2050,0.6775,-0.1025*
1,1,0.2050,-0.6775,-0.1025*
1,1,0.2050,-0.6775,0.1025*
1,1,0.2050,0.6775,0.1025*
%
%ADD34ROUNDEDRECTD34*%
%ADD35R,1.1430X0.6096*%
%ADD36R,0.8000X1.0000*%
%ADD37R,1.5000X0.7000*%
%ADD38R,1.2000X1.8200*%
%ADD39R,1.4732X0.3556*%
%ADD40R,1.3500X0.4000*%
%ADD41R,1.5500X1.5000*%
%ADD42R,1.4200X1.0300*%
%ADD43R,1.5000X1.3000*%
G04:AMPARAMS|DCode=44|XSize=1.21mm|YSize=0.59mm|CornerRadius=0.1475mm|HoleSize=0mm|Usage=FLASHONLY|Rotation=270.000|XOffset=0mm|YOffset=0mm|HoleType=Round|Shape=RoundedRectangle|*
%AMROUNDEDRECTD44*
21,1,1.2100,0.2950,0,0,270.0*
21,1,0.9150,0.5900,0,0,270.0*
1,1,0.2950,-0.1475,-0.4575*
1,1,0.2950,-0.1475,0.4575*
1,1,0.2950,0.1475,0.4575*
1,1,0.2950,0.1475,-0.4575*
%
%ADD44ROUNDEDRECTD44*%
%ADD45R,1.3000X1.5000*%
%ADD46R,0.5500X1.2000*%
G36*
X563760Y107690D02*
X563780Y107430D01*
X563810Y107170D01*
X563860Y106910D01*
X563920Y106660D01*
X563990Y106400D01*
X564080Y106160D01*
X564180Y105920D01*
X564290Y105680D01*
X564420Y105450D01*
X564560Y105230D01*
X564700Y105010D01*
X564860Y104800D01*
X565030Y104600D01*
X565210Y104410D01*
X565400Y104230D01*
X565600Y104060D01*
X565810Y103900D01*
X566030Y103760D01*
X566250Y103620D01*
X566480Y103490D01*
X566720Y103380D01*
X566960Y103280D01*
X567200Y103190D01*
X567460Y103120D01*
X567710Y103060D01*
X567970Y103010D01*
X568230Y102980D01*
X568490Y102960D01*
X568750Y102950D01*
X574250D01*
X574510Y102960D01*
X574770Y102980D01*
X575030Y103010D01*
X575290Y103060D01*
X575540Y103120D01*
X575800Y103190D01*
X576040Y103280D01*
X576280Y103380D01*
X576520Y103490D01*
X576750Y103620D01*
X576970Y103760D01*
X577190Y103900D01*
X577400Y104060D01*
X577600Y104230D01*
X577790Y104410D01*
X577970Y104600D01*
X578140Y104800D01*
X578300Y105010D01*
X578440Y105230D01*
X578580Y105450D01*
X578710Y105680D01*
X578820Y105920D01*
X578920Y106160D01*
X579010Y106400D01*
X579080Y106660D01*
X579140Y106910D01*
X579190Y107170D01*
X579220Y107430D01*
X579240Y107690D01*
X579250Y107950D01*
Y119400D01*
X563750D01*
Y107950D01*
X563760Y107690D01*
D02*
G37*
G36*
X579250Y165400D02*
Y176850D01*
X579240Y177110D01*
X579220Y177370D01*
X579190Y177630D01*
X579140Y177890D01*
X579080Y178140D01*
X579010Y178400D01*
X578920Y178640D01*
X578820Y178880D01*
X578710Y179120D01*
X578580Y179350D01*
X578440Y179570D01*
X578300Y179790D01*
X578140Y180000D01*
X577970Y180200D01*
X577790Y180390D01*
X577600Y180570D01*
X577400Y180740D01*
X577190Y180900D01*
X576970Y181040D01*
X576750Y181180D01*
X576520Y181310D01*
X576280Y181420D01*
X576040Y181520D01*
X575800Y181610D01*
X575540Y181680D01*
X575290Y181740D01*
X575030Y181790D01*
X574770Y181820D01*
X574510Y181840D01*
X574250Y181850D01*
X568750D01*
X568490Y181840D01*
X568230Y181820D01*
X567970Y181790D01*
X567710Y181740D01*
X567460Y181680D01*
X567200Y181610D01*
X566960Y181520D01*
X566720Y181420D01*
X566480Y181310D01*
X566250Y181180D01*
X566030Y181040D01*
X565810Y180900D01*
X565600Y180740D01*
X565400Y180570D01*
X565210Y180390D01*
X565030Y180200D01*
X564860Y180000D01*
X564700Y179790D01*
X564560Y179570D01*
X564420Y179350D01*
X564290Y179120D01*
X564180Y178880D01*
X564080Y178640D01*
X563990Y178400D01*
X563920Y178140D01*
X563860Y177890D01*
X563810Y177630D01*
X563780Y177370D01*
X563760Y177110D01*
X563750Y176850D01*
Y165400D01*
X579250D01*
D02*
G37*
D14*
X485450Y196850D02*
D03*
X467050D02*
D03*
X268280Y195580D02*
D03*
X249880D02*
D03*
X268280Y213360D02*
D03*
X249880D02*
D03*
D15*
X463550Y256200D02*
D03*
Y277200D02*
D03*
X482600Y256200D02*
D03*
Y277200D02*
D03*
D32*
X279400Y242650D02*
D03*
Y227250D02*
D03*
X368300Y162480D02*
D03*
Y177880D02*
D03*
X304800Y180420D02*
D03*
Y165020D02*
D03*
X279400Y125650D02*
D03*
Y141050D02*
D03*
D33*
X344250Y284248D02*
D03*
X328850D02*
D03*
D34*
X307750Y212050D02*
D03*
Y218550D02*
D03*
Y225050D02*
D03*
Y231550D02*
D03*
Y238050D02*
D03*
Y244550D02*
D03*
Y251050D02*
D03*
Y257550D02*
D03*
Y264050D02*
D03*
Y270550D02*
D03*
X365350D02*
D03*
Y264050D02*
D03*
Y257550D02*
D03*
Y251050D02*
D03*
Y244550D02*
D03*
Y238050D02*
D03*
Y231550D02*
D03*
Y225050D02*
D03*
Y218550D02*
D03*
Y212050D02*
D03*
D35*
X350590Y168300D02*
D03*
X322510Y187300D02*
D03*
Y177800D02*
D03*
Y168300D02*
D03*
X350590Y177800D02*
D03*
Y187300D02*
D03*
D36*
X97450Y231050D02*
D03*
X118450D02*
D03*
X97450Y158050D02*
D03*
X118450D02*
D03*
D37*
X125450Y217050D02*
D03*
Y202050D02*
D03*
Y172050D02*
D03*
D38*
X154300Y254000D02*
D03*
X125100D02*
D03*
X493400Y171450D02*
D03*
X522600D02*
D03*
D39*
X365760Y117602D02*
D03*
Y111252D02*
D03*
Y85090D02*
D03*
Y91694D02*
D03*
Y98298D02*
D03*
Y104648D02*
D03*
Y124206D02*
D03*
X307340Y143764D02*
D03*
Y137160D02*
D03*
Y130810D02*
D03*
Y124206D02*
D03*
Y117602D02*
D03*
Y111252D02*
D03*
Y104648D02*
D03*
Y98298D02*
D03*
Y91694D02*
D03*
Y85090D02*
D03*
Y78740D02*
D03*
Y72136D02*
D03*
X365760D02*
D03*
Y78740D02*
D03*
Y130810D02*
D03*
Y137160D02*
D03*
Y143764D02*
D03*
D40*
X544750Y155400D02*
D03*
Y148900D02*
D03*
Y142400D02*
D03*
Y135900D02*
D03*
Y129400D02*
D03*
D41*
X571500Y152400D02*
D03*
Y132400D02*
D03*
D42*
X501650Y257500D02*
D03*
Y275900D02*
D03*
X444500Y257500D02*
D03*
Y275900D02*
D03*
D43*
X520700Y130200D02*
D03*
Y149200D02*
D03*
D44*
X142900Y209400D02*
D03*
X152400D02*
D03*
X161900D02*
D03*
Y184300D02*
D03*
X142900D02*
D03*
D45*
X168250Y165100D02*
D03*
X149250D02*
D03*
D46*
X514350Y196549D02*
D03*
X504850D02*
D03*
X523850D02*
D03*
Y222551D02*
D03*
X514350D02*
D03*
X504850D02*
D03*
M02*
