G04*
G04 #@! TF.GenerationSoftware,Altium Limited,Altium Designer,24.1.2 (44)*
G04*
G04 Layer_Color=16711935*
%FSLAX44Y44*%
%MOMM*%
G71*
G04*
G04 #@! TF.SameCoordinates,6A4311CB-8E8A-427E-B903-E888CF1DD548*
G04*
G04*
G04 #@! TF.FilePolarity,Negative*
G04*
G01*
G75*
%ADD16R,1.2332X1.6232*%
%ADD17R,1.4032X1.4032*%
%ADD18C,1.1032*%
%ADD19R,2.2352X2.2352*%
%ADD20C,2.2352*%
%ADD21O,1.0032X1.8032*%
%ADD22O,1.7032X0.9532*%
%ADD23C,2.0320*%
%ADD47R,1.1332X1.0932*%
%ADD48R,1.0932X1.1332*%
G04:AMPARAMS|DCode=49|XSize=1.7632mm|YSize=0.6132mm|CornerRadius=0.2041mm|HoleSize=0mm|Usage=FLASHONLY|Rotation=0.000|XOffset=0mm|YOffset=0mm|HoleType=Round|Shape=RoundedRectangle|*
%AMROUNDEDRECTD49*
21,1,1.7632,0.2050,0,0,0.0*
21,1,1.3550,0.6132,0,0,0.0*
1,1,0.4082,0.6775,-0.1025*
1,1,0.4082,-0.6775,-0.1025*
1,1,0.4082,-0.6775,0.1025*
1,1,0.4082,0.6775,0.1025*
%
%ADD49ROUNDEDRECTD49*%
%ADD50R,1.3462X0.8128*%
%ADD51R,1.0032X1.2032*%
%ADD52R,1.7032X0.9032*%
%ADD53R,1.4032X2.0232*%
%ADD54R,1.6764X0.5588*%
%ADD55R,1.5532X0.6032*%
%ADD56R,1.7532X1.7032*%
%ADD57R,1.6232X1.2332*%
%ADD58R,1.7032X1.5032*%
G04:AMPARAMS|DCode=59|XSize=1.4132mm|YSize=0.7932mm|CornerRadius=0.2491mm|HoleSize=0mm|Usage=FLASHONLY|Rotation=270.000|XOffset=0mm|YOffset=0mm|HoleType=Round|Shape=RoundedRectangle|*
%AMROUNDEDRECTD59*
21,1,1.4132,0.2950,0,0,270.0*
21,1,0.9150,0.7932,0,0,270.0*
1,1,0.4982,-0.1475,-0.4575*
1,1,0.4982,-0.1475,0.4575*
1,1,0.4982,0.1475,0.4575*
1,1,0.4982,0.1475,-0.4575*
%
%ADD59ROUNDEDRECTD59*%
%ADD60R,1.5032X1.7032*%
%ADD61R,0.7532X1.4032*%
G36*
X562760Y106690D02*
X562780Y106430D01*
X562810Y106170D01*
X562860Y105910D01*
X562920Y105660D01*
X562990Y105400D01*
X563080Y105160D01*
X563180Y104920D01*
X563290Y104680D01*
X563420Y104450D01*
X563560Y104230D01*
X563700Y104010D01*
X563860Y103800D01*
X564030Y103600D01*
X564210Y103410D01*
X564400Y103230D01*
X564600Y103060D01*
X564810Y102900D01*
X565030Y102760D01*
X565250Y102620D01*
X565480Y102490D01*
X565720Y102380D01*
X565960Y102280D01*
X566200Y102190D01*
X566460Y102120D01*
X566710Y102060D01*
X566970Y102010D01*
X567230Y101980D01*
X567490Y101960D01*
X567750Y101950D01*
X575250D01*
X575510Y101960D01*
X575770Y101980D01*
X576030Y102010D01*
X576290Y102060D01*
X576540Y102120D01*
X576800Y102190D01*
X577040Y102280D01*
X577280Y102380D01*
X577520Y102490D01*
X577750Y102620D01*
X577970Y102760D01*
X578190Y102900D01*
X578400Y103060D01*
X578600Y103230D01*
X578790Y103410D01*
X578970Y103600D01*
X579140Y103800D01*
X579300Y104010D01*
X579440Y104230D01*
X579580Y104450D01*
X579710Y104680D01*
X579820Y104920D01*
X579920Y105160D01*
X580010Y105400D01*
X580080Y105660D01*
X580140Y105910D01*
X580190Y106170D01*
X580220Y106430D01*
X580240Y106690D01*
X580250Y106950D01*
Y120400D01*
X562750D01*
Y106950D01*
X562760Y106690D01*
D02*
G37*
G36*
X580250Y164400D02*
Y177850D01*
X580240Y178110D01*
X580220Y178370D01*
X580190Y178630D01*
X580140Y178890D01*
X580080Y179140D01*
X580010Y179400D01*
X579920Y179640D01*
X579820Y179880D01*
X579710Y180120D01*
X579580Y180350D01*
X579440Y180570D01*
X579300Y180790D01*
X579140Y181000D01*
X578970Y181200D01*
X578790Y181390D01*
X578600Y181570D01*
X578400Y181740D01*
X578190Y181900D01*
X577970Y182040D01*
X577750Y182180D01*
X577520Y182310D01*
X577280Y182420D01*
X577040Y182520D01*
X576800Y182610D01*
X576540Y182680D01*
X576290Y182740D01*
X576030Y182790D01*
X575770Y182820D01*
X575510Y182840D01*
X575250Y182850D01*
X567750D01*
X567490Y182840D01*
X567230Y182820D01*
X566970Y182790D01*
X566710Y182740D01*
X566460Y182680D01*
X566200Y182610D01*
X565960Y182520D01*
X565720Y182420D01*
X565480Y182310D01*
X565250Y182180D01*
X565030Y182040D01*
X564810Y181900D01*
X564600Y181740D01*
X564400Y181570D01*
X564210Y181390D01*
X564030Y181200D01*
X563860Y181000D01*
X563700Y180790D01*
X563560Y180570D01*
X563420Y180350D01*
X563290Y180120D01*
X563180Y179880D01*
X563080Y179640D01*
X562990Y179400D01*
X562920Y179140D01*
X562860Y178890D01*
X562810Y178630D01*
X562780Y178370D01*
X562760Y178110D01*
X562750Y177850D01*
Y164400D01*
X580250D01*
D02*
G37*
D16*
X485450Y196850D02*
D03*
X467050D02*
D03*
X268280Y195580D02*
D03*
X249880D02*
D03*
X268280Y213360D02*
D03*
X249880D02*
D03*
D17*
X463550Y256200D02*
D03*
Y277200D02*
D03*
X482600Y256200D02*
D03*
Y277200D02*
D03*
D18*
X107950Y209550D02*
D03*
Y179550D02*
D03*
D19*
X558800Y234950D02*
D03*
D20*
Y209550D02*
D03*
D21*
X544500Y167400D02*
D03*
Y117400D02*
D03*
D22*
X571500Y177650D02*
D03*
Y107150D02*
D03*
D23*
X226060Y254000D02*
D03*
X201958Y229020D02*
D03*
X200660Y254000D02*
D03*
X226060Y228600D02*
D03*
D47*
X279400Y242650D02*
D03*
Y227250D02*
D03*
X368300Y162480D02*
D03*
Y177880D02*
D03*
X304800Y180420D02*
D03*
Y165020D02*
D03*
X279400Y125650D02*
D03*
Y141050D02*
D03*
D48*
X344250Y284248D02*
D03*
X328850D02*
D03*
D49*
X307750Y212050D02*
D03*
Y218550D02*
D03*
Y225050D02*
D03*
Y231550D02*
D03*
Y238050D02*
D03*
Y244550D02*
D03*
Y251050D02*
D03*
Y257550D02*
D03*
Y264050D02*
D03*
Y270550D02*
D03*
X365350D02*
D03*
Y264050D02*
D03*
Y257550D02*
D03*
Y251050D02*
D03*
Y244550D02*
D03*
Y238050D02*
D03*
Y231550D02*
D03*
Y225050D02*
D03*
Y218550D02*
D03*
Y212050D02*
D03*
D50*
X350590Y168300D02*
D03*
X322510Y187300D02*
D03*
Y177800D02*
D03*
Y168300D02*
D03*
X350590Y177800D02*
D03*
Y187300D02*
D03*
D51*
X97450Y231050D02*
D03*
X118450D02*
D03*
X97450Y158050D02*
D03*
X118450D02*
D03*
D52*
X125450Y217050D02*
D03*
Y202050D02*
D03*
Y172050D02*
D03*
D53*
X154300Y254000D02*
D03*
X125100D02*
D03*
X493400Y171450D02*
D03*
X522600D02*
D03*
D54*
X365760Y117602D02*
D03*
Y111252D02*
D03*
Y85090D02*
D03*
Y91694D02*
D03*
Y98298D02*
D03*
Y104648D02*
D03*
Y124206D02*
D03*
X307340Y143764D02*
D03*
Y137160D02*
D03*
Y130810D02*
D03*
Y124206D02*
D03*
Y117602D02*
D03*
Y111252D02*
D03*
Y104648D02*
D03*
Y98298D02*
D03*
Y91694D02*
D03*
Y85090D02*
D03*
Y78740D02*
D03*
Y72136D02*
D03*
X365760D02*
D03*
Y78740D02*
D03*
Y130810D02*
D03*
Y137160D02*
D03*
Y143764D02*
D03*
D55*
X544750Y155400D02*
D03*
Y148900D02*
D03*
Y142400D02*
D03*
Y135900D02*
D03*
Y129400D02*
D03*
D56*
X571500Y152400D02*
D03*
Y132400D02*
D03*
D57*
X501650Y257500D02*
D03*
Y275900D02*
D03*
X444500Y257500D02*
D03*
Y275900D02*
D03*
D58*
X520700Y130200D02*
D03*
Y149200D02*
D03*
D59*
X142900Y209400D02*
D03*
X152400D02*
D03*
X161900D02*
D03*
Y184300D02*
D03*
X142900D02*
D03*
D60*
X168250Y165100D02*
D03*
X149250D02*
D03*
D61*
X514350Y196549D02*
D03*
X504850D02*
D03*
X523850D02*
D03*
Y222551D02*
D03*
X514350D02*
D03*
X504850D02*
D03*
M02*
