G04*
G04 #@! TF.GenerationSoftware,Altium Limited,Altium Designer,24.1.2 (44)*
G04*
G04 Layer_Physical_Order=3*
G04 Layer_Color=16440176*
%FSLAX44Y44*%
%MOMM*%
G71*
G04*
G04 #@! TF.SameCoordinates,6A4311CB-8E8A-427E-B903-E888CF1DD548*
G04*
G04*
G04 #@! TF.FilePolarity,Positive*
G04*
G01*
G75*
%ADD23C,2.0320*%
%ADD25C,0.9000*%
%ADD26R,2.0320X2.0320*%
%ADD27O,0.8000X1.6000*%
%ADD28O,1.5000X0.7500*%
%ADD29C,0.6350*%
G36*
X564357Y285018D02*
X567824Y283582D01*
X570944Y281497D01*
X573597Y278844D01*
X575682Y275724D01*
X577118Y272257D01*
X577850Y268576D01*
Y266700D01*
Y187437D01*
X576580Y186381D01*
X575250Y186556D01*
X574040D01*
Y177650D01*
Y168744D01*
X575250D01*
X576580Y168919D01*
X577850Y167863D01*
Y116937D01*
X576580Y115881D01*
X575250Y116056D01*
X574040D01*
Y107150D01*
Y98244D01*
X575250D01*
X576580Y98419D01*
X577850Y97363D01*
Y74324D01*
X577118Y70643D01*
X575682Y67176D01*
X573597Y64056D01*
X570944Y61403D01*
X567824Y59318D01*
X564357Y57882D01*
X560676Y57150D01*
X531242D01*
X530990Y58420D01*
X531424Y58600D01*
X528320Y61704D01*
X525216Y58600D01*
X525650Y58420D01*
X525398Y57150D01*
X277242D01*
X276990Y58420D01*
X277424Y58600D01*
X274320Y61704D01*
X271216Y58600D01*
X271650Y58420D01*
X271398Y57150D01*
X112424D01*
X108743Y57882D01*
X105276Y59318D01*
X102156Y61403D01*
X99503Y64056D01*
X97418Y67176D01*
X95982Y70643D01*
X95250Y74324D01*
Y76200D01*
Y266700D01*
Y268576D01*
X95982Y272257D01*
X97418Y275724D01*
X99503Y278844D01*
X102156Y281497D01*
X105276Y283582D01*
X108743Y285018D01*
X112424Y285750D01*
X312357D01*
X312547Y285465D01*
Y283495D01*
X313301Y281674D01*
X314694Y280281D01*
X316515Y279527D01*
X318485D01*
X320306Y280281D01*
X321699Y281674D01*
X322453Y283495D01*
Y285465D01*
X322643Y285750D01*
X349796D01*
X349885Y285617D01*
Y283343D01*
X350700Y281376D01*
X354702Y285378D01*
X355600Y284480D01*
X356498Y285378D01*
X360500Y281376D01*
X361315Y283343D01*
Y285617D01*
X361404Y285750D01*
X560676D01*
X564357Y285018D01*
D02*
G37*
%LPC*%
G36*
X355600Y282684D02*
X352496Y279580D01*
X354463Y278765D01*
X356737D01*
X358704Y279580D01*
X355600Y282684D01*
D02*
G37*
G36*
X127985Y276733D02*
X126015D01*
X124194Y275979D01*
X122801Y274586D01*
X122047Y272765D01*
Y270795D01*
X122801Y268974D01*
X124194Y267581D01*
X126015Y266827D01*
X127985D01*
X129806Y267581D01*
X131199Y268974D01*
X131953Y270795D01*
Y272765D01*
X131199Y274586D01*
X129806Y275979D01*
X127985Y276733D01*
D02*
G37*
G36*
X544545Y266573D02*
X542575D01*
X540754Y265819D01*
X539361Y264426D01*
X538607Y262605D01*
Y260635D01*
X539361Y258814D01*
X540754Y257421D01*
X542575Y256667D01*
X544545D01*
X546366Y257421D01*
X547759Y258814D01*
X548513Y260635D01*
Y262605D01*
X547759Y264426D01*
X546366Y265819D01*
X544545Y266573D01*
D02*
G37*
G36*
X227632Y265938D02*
X224488D01*
X221452Y265124D01*
X218730Y263553D01*
X216507Y261330D01*
X214935Y258608D01*
X214412Y256653D01*
X213097D01*
X212495Y258902D01*
X210823Y261798D01*
X210538Y262082D01*
X202456Y254000D01*
X210538Y245918D01*
X210823Y246202D01*
X212495Y249098D01*
X213097Y251347D01*
X214412D01*
X214935Y249392D01*
X216507Y246670D01*
X218730Y244447D01*
X221452Y242875D01*
X224488Y242062D01*
X227632D01*
X230668Y242875D01*
X233390Y244447D01*
X235613Y246670D01*
X237185Y249392D01*
X237998Y252428D01*
Y255572D01*
X237185Y258608D01*
X235613Y261330D01*
X233390Y263553D01*
X230668Y265124D01*
X227632Y265938D01*
D02*
G37*
G36*
X202332Y266700D02*
X198988D01*
X195758Y265835D01*
X192862Y264163D01*
X192578Y263878D01*
X200660Y255796D01*
X208742Y263878D01*
X208458Y264163D01*
X205562Y265835D01*
X202332Y266700D01*
D02*
G37*
G36*
X351657Y252095D02*
X349383D01*
X347416Y251280D01*
X350520Y248176D01*
X353624Y251280D01*
X351657Y252095D01*
D02*
G37*
G36*
X190782Y262082D02*
X190497Y261798D01*
X188825Y258902D01*
X187960Y255672D01*
Y252328D01*
X188825Y249098D01*
X190497Y246202D01*
X190782Y245918D01*
X198864Y254000D01*
X190782Y262082D01*
D02*
G37*
G36*
X355420Y249484D02*
X352316Y246380D01*
X355420Y243276D01*
X356235Y245243D01*
Y247517D01*
X355420Y249484D01*
D02*
G37*
G36*
X345620Y249484D02*
X344805Y247517D01*
Y245243D01*
X345620Y243276D01*
X348724Y246380D01*
X345620Y249484D01*
D02*
G37*
G36*
X260217Y247015D02*
X257943D01*
X255976Y246200D01*
X259080Y243096D01*
X262184Y246200D01*
X260217Y247015D01*
D02*
G37*
G36*
X350520Y244584D02*
X347416Y241480D01*
X349383Y240665D01*
X351657D01*
X353624Y241480D01*
X350520Y244584D01*
D02*
G37*
G36*
X263980Y244404D02*
X260876Y241300D01*
X263980Y238196D01*
X264795Y240163D01*
Y242437D01*
X263980Y244404D01*
D02*
G37*
G36*
X254180Y244404D02*
X253365Y242437D01*
Y240163D01*
X254180Y238196D01*
X257284Y241300D01*
X254180Y244404D01*
D02*
G37*
G36*
X259080Y239504D02*
X255976Y236400D01*
X257943Y235585D01*
X260217D01*
X262184Y236400D01*
X259080Y239504D01*
D02*
G37*
G36*
X493897Y239395D02*
X491623D01*
X489656Y238580D01*
X492760Y235476D01*
X495864Y238580D01*
X493897Y239395D01*
D02*
G37*
G36*
X497660Y236784D02*
X494556Y233680D01*
X497660Y230576D01*
X498475Y232543D01*
Y234817D01*
X497660Y236784D01*
D02*
G37*
G36*
X487860Y236784D02*
X487045Y234817D01*
Y232543D01*
X487860Y230576D01*
X490964Y233680D01*
X487860Y236784D01*
D02*
G37*
G36*
X412617Y234315D02*
X410343D01*
X408376Y233500D01*
X411480Y230396D01*
X414584Y233500D01*
X412617Y234315D01*
D02*
G37*
G36*
X176397D02*
X174123D01*
X172156Y233500D01*
X175260Y230396D01*
X178364Y233500D01*
X176397Y234315D01*
D02*
G37*
G36*
X492760Y231884D02*
X489656Y228780D01*
X491623Y227965D01*
X493897D01*
X495864Y228780D01*
X492760Y231884D01*
D02*
G37*
G36*
X574040Y250190D02*
X543560D01*
Y227241D01*
X542290Y226715D01*
X541286Y227719D01*
X539465Y228473D01*
X537495D01*
X535674Y227719D01*
X534281Y226326D01*
X533527Y224505D01*
Y222535D01*
X534281Y220714D01*
X535674Y219321D01*
X537495Y218567D01*
X539465D01*
X541286Y219321D01*
X542290Y220325D01*
X543560Y219799D01*
Y219710D01*
X549340D01*
X549826Y218537D01*
X548638Y217348D01*
X546965Y214452D01*
X546100Y211222D01*
Y207878D01*
X546965Y204648D01*
X548638Y201752D01*
X548922Y201468D01*
X557902Y210448D01*
X558800Y209550D01*
X559698Y210448D01*
X568678Y201468D01*
X568963Y201752D01*
X570634Y204648D01*
X571500Y207878D01*
Y211222D01*
X570634Y214452D01*
X568963Y217348D01*
X567774Y218537D01*
X568260Y219710D01*
X574040D01*
Y250190D01*
D02*
G37*
G36*
X416380Y231704D02*
X413276Y228600D01*
X416380Y225496D01*
X417195Y227463D01*
Y229737D01*
X416380Y231704D01*
D02*
G37*
G36*
X180160D02*
X177056Y228600D01*
X180160Y225496D01*
X180975Y227463D01*
Y229737D01*
X180160Y231704D01*
D02*
G37*
G36*
X406580Y231704D02*
X405765Y229737D01*
Y227463D01*
X406580Y225496D01*
X409684Y228600D01*
X406580Y231704D01*
D02*
G37*
G36*
X170360D02*
X169545Y229737D01*
Y227463D01*
X170360Y225496D01*
X173464Y228600D01*
X170360Y231704D01*
D02*
G37*
G36*
X293085Y234960D02*
X291115D01*
X289294Y234206D01*
X287901Y232813D01*
X287147Y230992D01*
Y229022D01*
X287901Y227201D01*
X289294Y225808D01*
X291115Y225054D01*
X293085D01*
X294906Y225808D01*
X296299Y227201D01*
X297053Y229022D01*
Y230992D01*
X296299Y232813D01*
X294906Y234206D01*
X293085Y234960D01*
D02*
G37*
G36*
X252445Y233553D02*
X250475D01*
X248654Y232799D01*
X247261Y231406D01*
X246507Y229585D01*
Y227615D01*
X247261Y225794D01*
X248654Y224401D01*
X250475Y223647D01*
X252445D01*
X254266Y224401D01*
X255659Y225794D01*
X256413Y227615D01*
Y229585D01*
X255659Y231406D01*
X254266Y232799D01*
X252445Y233553D01*
D02*
G37*
G36*
X411480Y226804D02*
X408376Y223700D01*
X410343Y222885D01*
X412617D01*
X414584Y223700D01*
X411480Y226804D01*
D02*
G37*
G36*
X175260D02*
X172156Y223700D01*
X174123Y222885D01*
X176397D01*
X178364Y223700D01*
X175260Y226804D01*
D02*
G37*
G36*
X200660Y252204D02*
X192578Y244122D01*
X192862Y243838D01*
X195758Y242166D01*
X197871Y241599D01*
Y240285D01*
X197350Y240145D01*
X194628Y238573D01*
X192405Y236351D01*
X190833Y233628D01*
X190020Y230592D01*
Y227449D01*
X190833Y224413D01*
X192405Y221690D01*
X194628Y219468D01*
X197350Y217896D01*
X200386Y217082D01*
X203530D01*
X206566Y217896D01*
X209288Y219468D01*
X211511Y221690D01*
X213082Y224413D01*
X213295Y225207D01*
X214610D01*
X214935Y223992D01*
X216507Y221270D01*
X218730Y219047D01*
X221452Y217475D01*
X224488Y216662D01*
X227632D01*
X230668Y217475D01*
X233390Y219047D01*
X235613Y221270D01*
X237185Y223992D01*
X237998Y227028D01*
Y230172D01*
X237185Y233208D01*
X235613Y235930D01*
X233390Y238153D01*
X230668Y239725D01*
X227632Y240538D01*
X224488D01*
X221452Y239725D01*
X218730Y238153D01*
X216507Y235930D01*
X214935Y233208D01*
X214723Y232414D01*
X213408D01*
X213082Y233628D01*
X211511Y236351D01*
X209288Y238573D01*
X206566Y240145D01*
X204747Y240632D01*
Y241947D01*
X205562Y242166D01*
X208458Y243838D01*
X208742Y244122D01*
X200660Y252204D01*
D02*
G37*
G36*
X296017Y221245D02*
X294046D01*
X292226Y220490D01*
X290833Y219097D01*
X290079Y217277D01*
Y215306D01*
X290833Y213486D01*
X292226Y212093D01*
X294046Y211339D01*
X296017D01*
X297837Y212093D01*
X299230Y213486D01*
X299985Y215306D01*
Y217277D01*
X299230Y219097D01*
X297837Y220490D01*
X296017Y221245D01*
D02*
G37*
G36*
X260968Y218313D02*
X258998D01*
X257177Y217559D01*
X255784Y216166D01*
X255030Y214345D01*
Y212375D01*
X255784Y210554D01*
X257177Y209161D01*
X258998Y208407D01*
X260968D01*
X262789Y209161D01*
X264182Y210554D01*
X264936Y212375D01*
Y214345D01*
X264182Y216166D01*
X262789Y217559D01*
X260968Y218313D01*
D02*
G37*
G36*
X387065Y223393D02*
X385095D01*
X383274Y222639D01*
X381881Y221246D01*
X381127Y219425D01*
Y217455D01*
X381881Y215634D01*
X383139Y214376D01*
X381881Y213118D01*
X381127Y211297D01*
Y209327D01*
X381881Y207506D01*
X383274Y206113D01*
X385095Y205359D01*
X387065D01*
X388886Y206113D01*
X390279Y207506D01*
X391033Y209327D01*
Y211297D01*
X390279Y213118D01*
X389021Y214376D01*
X390279Y215634D01*
X391033Y217455D01*
Y219425D01*
X390279Y221246D01*
X388886Y222639D01*
X387065Y223393D01*
D02*
G37*
G36*
X109199Y215828D02*
X106701D01*
X104394Y214872D01*
X102628Y213106D01*
X101672Y210799D01*
Y208301D01*
X102628Y205994D01*
X104394Y204228D01*
X106701Y203272D01*
X109199D01*
X111506Y204228D01*
X113272Y205994D01*
X114228Y208301D01*
Y210799D01*
X113272Y213106D01*
X111506Y214872D01*
X109199Y215828D01*
D02*
G37*
G36*
X305937Y203835D02*
X303663D01*
X301696Y203020D01*
X304800Y199916D01*
X307904Y203020D01*
X305937Y203835D01*
D02*
G37*
G36*
X558800Y207754D02*
X550718Y199672D01*
X551002Y199387D01*
X553898Y197715D01*
X557128Y196850D01*
X560472D01*
X563702Y197715D01*
X566598Y199387D01*
X566882Y199672D01*
X558800Y207754D01*
D02*
G37*
G36*
X299900Y201224D02*
X299085Y199257D01*
Y196983D01*
X299955Y194883D01*
X300740Y194098D01*
X300771Y192333D01*
X300601Y192163D01*
X299847Y190342D01*
Y188372D01*
X300601Y186551D01*
X301994Y185158D01*
X303815Y184404D01*
X305785D01*
X307606Y185158D01*
X308999Y186551D01*
X309753Y188372D01*
Y190342D01*
X308999Y192163D01*
X308829Y192333D01*
X308860Y194098D01*
X309645Y194883D01*
X310515Y196983D01*
Y199257D01*
X309700Y201224D01*
X305698Y197222D01*
X304800Y198120D01*
X303902Y197222D01*
X299900Y201224D01*
D02*
G37*
G36*
X130525Y192913D02*
X128555D01*
X126734Y192159D01*
X125341Y190766D01*
X124587Y188945D01*
Y186975D01*
X125341Y185154D01*
X126734Y183761D01*
X128555Y183007D01*
X130525D01*
X132346Y183761D01*
X133739Y185154D01*
X134493Y186975D01*
Y188945D01*
X133739Y190766D01*
X132346Y192159D01*
X130525Y192913D01*
D02*
G37*
G36*
X568960Y186556D02*
X567750D01*
X565445Y186253D01*
X563297Y185363D01*
X561452Y183948D01*
X560037Y182103D01*
X559245Y180190D01*
X568960D01*
Y186556D01*
D02*
G37*
G36*
X109199Y185828D02*
X106701D01*
X104394Y184872D01*
X102628Y183106D01*
X101672Y180799D01*
Y178301D01*
X102628Y175994D01*
X104394Y174228D01*
X106701Y173272D01*
X109199D01*
X111506Y174228D01*
X113272Y175994D01*
X114228Y178301D01*
Y180799D01*
X113272Y183106D01*
X111506Y184872D01*
X109199Y185828D01*
D02*
G37*
G36*
X568960Y175110D02*
X559245D01*
X560037Y173197D01*
X561452Y171352D01*
X563297Y169937D01*
X565445Y169047D01*
X567750Y168744D01*
X568960D01*
Y175110D01*
D02*
G37*
G36*
X544500Y180558D02*
X542130Y180246D01*
X539921Y179331D01*
X538024Y177876D01*
X536569Y175979D01*
X535654Y173770D01*
X535342Y171400D01*
Y163400D01*
X535654Y161030D01*
X536569Y158821D01*
X538024Y156924D01*
X539921Y155469D01*
X542130Y154554D01*
X544500Y154242D01*
X546870Y154554D01*
X549079Y155469D01*
X550976Y156924D01*
X552431Y158821D01*
X553346Y161030D01*
X553658Y163400D01*
Y171400D01*
X553346Y173770D01*
X552431Y175979D01*
X550976Y177876D01*
X549079Y179331D01*
X546870Y180246D01*
X544500Y180558D01*
D02*
G37*
G36*
X350235Y163703D02*
X348265D01*
X346444Y162949D01*
X345051Y161556D01*
X344297Y159735D01*
Y157765D01*
X345051Y155944D01*
X346444Y154551D01*
X348265Y153797D01*
X350235D01*
X352056Y154551D01*
X353449Y155944D01*
X354203Y157765D01*
Y159735D01*
X353449Y161556D01*
X352056Y162949D01*
X350235Y163703D01*
D02*
G37*
G36*
X265297Y155575D02*
X263023D01*
X261056Y154760D01*
X264160Y151656D01*
X267264Y154760D01*
X265297Y155575D01*
D02*
G37*
G36*
X227197Y153035D02*
X224923D01*
X222956Y152220D01*
X226060Y149116D01*
X229164Y152220D01*
X227197Y153035D01*
D02*
G37*
G36*
X402457D02*
X400183D01*
X398216Y152220D01*
X401320Y149116D01*
X404424Y152220D01*
X402457Y153035D01*
D02*
G37*
G36*
X168777D02*
X166503D01*
X164536Y152220D01*
X167640Y149116D01*
X170744Y152220D01*
X168777Y153035D01*
D02*
G37*
G36*
X467227Y151765D02*
X464953D01*
X462986Y150950D01*
X466090Y147846D01*
X469194Y150950D01*
X467227Y151765D01*
D02*
G37*
G36*
X269060Y152964D02*
X265956Y149860D01*
X269060Y146756D01*
X269875Y148723D01*
Y150997D01*
X269060Y152964D01*
D02*
G37*
G36*
X259260Y152964D02*
X258445Y150997D01*
Y148723D01*
X259260Y146756D01*
X262364Y149860D01*
X259260Y152964D01*
D02*
G37*
G36*
X172540Y150424D02*
X169436Y147320D01*
X172540Y144216D01*
X173355Y146183D01*
Y148457D01*
X172540Y150424D01*
D02*
G37*
G36*
X406220D02*
X403116Y147320D01*
X406220Y144216D01*
X407035Y146183D01*
Y148457D01*
X406220Y150424D01*
D02*
G37*
G36*
X230960D02*
X227856Y147320D01*
X230960Y144216D01*
X231775Y146183D01*
Y148457D01*
X230960Y150424D01*
D02*
G37*
G36*
X162740Y150424D02*
X161925Y148457D01*
Y146183D01*
X162740Y144216D01*
X165844Y147320D01*
X162740Y150424D01*
D02*
G37*
G36*
X396420D02*
X395605Y148457D01*
Y146183D01*
X396420Y144216D01*
X399524Y147320D01*
X396420Y150424D01*
D02*
G37*
G36*
X221160D02*
X220345Y148457D01*
Y146183D01*
X221160Y144216D01*
X224264Y147320D01*
X221160Y150424D01*
D02*
G37*
G36*
X264160Y148064D02*
X261056Y144960D01*
X263023Y144145D01*
X265297D01*
X267264Y144960D01*
X264160Y148064D01*
D02*
G37*
G36*
X496437Y147955D02*
X494163D01*
X492196Y147140D01*
X495300Y144036D01*
X498404Y147140D01*
X496437Y147955D01*
D02*
G37*
G36*
X470990Y149154D02*
X467886Y146050D01*
X470990Y142946D01*
X471805Y144913D01*
Y147187D01*
X470990Y149154D01*
D02*
G37*
G36*
X461190Y149154D02*
X460375Y147187D01*
Y144913D01*
X461190Y142946D01*
X464294Y146050D01*
X461190Y149154D01*
D02*
G37*
G36*
X401320Y145524D02*
X398216Y142420D01*
X400183Y141605D01*
X402457D01*
X404424Y142420D01*
X401320Y145524D01*
D02*
G37*
G36*
X226060D02*
X222956Y142420D01*
X224923Y141605D01*
X227197D01*
X229164Y142420D01*
X226060Y145524D01*
D02*
G37*
G36*
X167640D02*
X164536Y142420D01*
X166503Y141605D01*
X168777D01*
X170744Y142420D01*
X167640Y145524D01*
D02*
G37*
G36*
X147035Y151003D02*
X145065D01*
X143244Y150249D01*
X141851Y148856D01*
X141097Y147035D01*
Y145065D01*
X141851Y143244D01*
X143244Y141851D01*
X145065Y141097D01*
X147035D01*
X148856Y141851D01*
X150249Y143244D01*
X151003Y145065D01*
Y147035D01*
X150249Y148856D01*
X148856Y150249D01*
X147035Y151003D01*
D02*
G37*
G36*
X466090Y144254D02*
X462986Y141150D01*
X464953Y140335D01*
X467227D01*
X469194Y141150D01*
X466090Y144254D01*
D02*
G37*
G36*
X490400Y145344D02*
X489585Y143377D01*
Y141103D01*
X490400Y139136D01*
X493504Y142240D01*
X490400Y145344D01*
D02*
G37*
G36*
X458185Y142113D02*
X456215D01*
X454394Y141359D01*
X453001Y139966D01*
X452247Y138145D01*
Y136175D01*
X452749Y134963D01*
X451777Y133991D01*
X450565Y134493D01*
X448595D01*
X446774Y133739D01*
X445381Y132346D01*
X444627Y130525D01*
Y128555D01*
X445129Y127343D01*
X444157Y126371D01*
X442945Y126873D01*
X440975D01*
X439154Y126119D01*
X437761Y124726D01*
X437007Y122905D01*
Y121450D01*
X435745Y120916D01*
X435622Y121039D01*
X433801Y121793D01*
X431831D01*
X430010Y121039D01*
X428617Y119646D01*
X427863Y117825D01*
Y115855D01*
X428617Y114034D01*
X430010Y112641D01*
X431831Y111887D01*
X433801D01*
X435622Y112641D01*
X437015Y114034D01*
X437769Y115855D01*
Y117310D01*
X439031Y117844D01*
X439154Y117721D01*
X440975Y116967D01*
X442945D01*
X444766Y117721D01*
X446159Y119114D01*
X446913Y120935D01*
Y122905D01*
X446411Y124117D01*
X447383Y125089D01*
X448595Y124587D01*
X450565D01*
X452386Y125341D01*
X453779Y126734D01*
X454533Y128555D01*
Y130525D01*
X454031Y131737D01*
X455003Y132709D01*
X456215Y132207D01*
X458185D01*
X459397Y132709D01*
X460369Y131737D01*
X459867Y130525D01*
Y128555D01*
X460621Y126734D01*
X462014Y125341D01*
X463835Y124587D01*
X465805D01*
X467017Y125089D01*
X467989Y124117D01*
X467487Y122905D01*
Y120935D01*
X468241Y119114D01*
X469634Y117721D01*
X471455Y116967D01*
X473425D01*
X475246Y117721D01*
X475369Y117844D01*
X476631Y117310D01*
Y115855D01*
X477385Y114034D01*
X478778Y112641D01*
X480599Y111887D01*
X482569D01*
X484390Y112641D01*
X485783Y114034D01*
X486537Y115855D01*
Y117825D01*
X485783Y119646D01*
X484390Y121039D01*
X482569Y121793D01*
X480599D01*
X478778Y121039D01*
X478655Y120916D01*
X477393Y121450D01*
Y122905D01*
X476639Y124726D01*
X475246Y126119D01*
X473425Y126873D01*
X471455D01*
X470243Y126371D01*
X469271Y127343D01*
X469773Y128555D01*
Y130525D01*
X469019Y132346D01*
X467626Y133739D01*
X465805Y134493D01*
X463835D01*
X462623Y133991D01*
X461651Y134963D01*
X462153Y136175D01*
Y138145D01*
X461399Y139966D01*
X460006Y141359D01*
X458185Y142113D01*
D02*
G37*
G36*
X505280Y137724D02*
X502176Y134620D01*
X505280Y131516D01*
X506095Y133483D01*
Y135757D01*
X505280Y137724D01*
D02*
G37*
G36*
X206725Y134493D02*
X204755D01*
X202934Y133739D01*
X201541Y132346D01*
X200787Y130525D01*
Y129859D01*
X199731Y129154D01*
X199105Y129413D01*
X197135D01*
X195314Y128659D01*
X193921Y127266D01*
X193167Y125445D01*
Y124779D01*
X192111Y124074D01*
X191485Y124333D01*
X189515D01*
X187694Y123579D01*
X186301Y122186D01*
X185547Y120365D01*
Y119699D01*
X184491Y118994D01*
X183865Y119253D01*
X181895D01*
X180074Y118499D01*
X178681Y117106D01*
X177927Y115285D01*
Y113315D01*
X178681Y111494D01*
X180074Y110101D01*
X181895Y109347D01*
X183865D01*
X185686Y110101D01*
X187079Y111494D01*
X187833Y113315D01*
Y113981D01*
X188889Y114686D01*
X189515Y114427D01*
X191485D01*
X193306Y115181D01*
X194699Y116574D01*
X195453Y118395D01*
Y119061D01*
X196509Y119766D01*
X197135Y119507D01*
X199105D01*
X200926Y120261D01*
X202319Y121654D01*
X203073Y123475D01*
Y124141D01*
X204129Y124846D01*
X204755Y124587D01*
X206725D01*
X207351Y124846D01*
X208407Y124141D01*
Y123475D01*
X209161Y121654D01*
X210554Y120261D01*
X212375Y119507D01*
X214345D01*
X214971Y119766D01*
X216027Y119061D01*
Y118395D01*
X216781Y116574D01*
X218174Y115181D01*
X219995Y114427D01*
X221965D01*
X222591Y114686D01*
X223647Y113981D01*
Y113315D01*
X224401Y111494D01*
X225794Y110101D01*
X227615Y109347D01*
X229585D01*
X231406Y110101D01*
X232799Y111494D01*
X233553Y113315D01*
Y115285D01*
X232799Y117106D01*
X231406Y118499D01*
X229585Y119253D01*
X227615D01*
X226989Y118994D01*
X225933Y119699D01*
Y120365D01*
X225179Y122186D01*
X223786Y123579D01*
X221965Y124333D01*
X219995D01*
X219369Y124074D01*
X218313Y124779D01*
Y125445D01*
X217559Y127266D01*
X216166Y128659D01*
X214345Y129413D01*
X212375D01*
X211749Y129154D01*
X210693Y129859D01*
Y130525D01*
X209939Y132346D01*
X208546Y133739D01*
X206725Y134493D01*
D02*
G37*
G36*
X500200Y145344D02*
X496198Y141342D01*
X492196Y137340D01*
X493884Y136641D01*
X494665Y135757D01*
Y134511D01*
X498738Y130438D01*
X496942Y128642D01*
X492869Y132715D01*
X491623D01*
X489656Y131900D01*
X493658Y127898D01*
X492760Y127000D01*
X493658Y126102D01*
X489656Y122100D01*
X491623Y121285D01*
X493897D01*
X495273Y121855D01*
X495480Y121356D01*
X499482Y125358D01*
X503664Y129540D01*
X499482Y133722D01*
X500380Y134620D01*
X499482Y135518D01*
X503484Y139520D01*
X501796Y140219D01*
X501015Y141103D01*
Y143377D01*
X500200Y145344D01*
D02*
G37*
G36*
X487860Y130104D02*
X487045Y128137D01*
Y125863D01*
X487860Y123896D01*
X490964Y127000D01*
X487860Y130104D01*
D02*
G37*
G36*
X252445Y131953D02*
X250475D01*
X248654Y131199D01*
X247261Y129806D01*
X246507Y127985D01*
Y126015D01*
X247261Y124194D01*
X248654Y122801D01*
X250475Y122047D01*
X252445D01*
X254266Y122801D01*
X255659Y124194D01*
X256413Y126015D01*
Y127985D01*
X255659Y129806D01*
X254266Y131199D01*
X252445Y131953D01*
D02*
G37*
G36*
X505280Y127564D02*
X502176Y124460D01*
X505280Y121356D01*
X506095Y123323D01*
Y125597D01*
X505280Y127564D01*
D02*
G37*
G36*
X500380Y122664D02*
X497276Y119560D01*
X499243Y118745D01*
X501517D01*
X503484Y119560D01*
X500380Y122664D01*
D02*
G37*
G36*
X568960Y116056D02*
X567750D01*
X565445Y115753D01*
X563297Y114863D01*
X561452Y113448D01*
X560037Y111603D01*
X559245Y109690D01*
X568960D01*
Y116056D01*
D02*
G37*
G36*
X544500Y130558D02*
X542130Y130246D01*
X539921Y129331D01*
X538024Y127876D01*
X536569Y125979D01*
X535654Y123770D01*
X535342Y121400D01*
Y113400D01*
X535654Y111030D01*
X536569Y108821D01*
X538024Y106924D01*
X539921Y105469D01*
X542130Y104554D01*
X544500Y104242D01*
X546870Y104554D01*
X549079Y105469D01*
X550976Y106924D01*
X552431Y108821D01*
X553346Y111030D01*
X553658Y113400D01*
Y121400D01*
X553346Y123770D01*
X552431Y125979D01*
X550976Y127876D01*
X549079Y129331D01*
X546870Y130246D01*
X544500Y130558D01*
D02*
G37*
G36*
X568960Y104610D02*
X559245D01*
X560037Y102697D01*
X561452Y100852D01*
X563297Y99437D01*
X565445Y98547D01*
X567750Y98244D01*
X568960D01*
Y104610D01*
D02*
G37*
G36*
X402457Y71755D02*
X400183D01*
X398216Y70940D01*
X401320Y67836D01*
X404424Y70940D01*
X402457Y71755D01*
D02*
G37*
G36*
X145917D02*
X143643D01*
X141676Y70940D01*
X144780Y67836D01*
X147884Y70940D01*
X145917Y71755D01*
D02*
G37*
G36*
X529457Y69215D02*
X527183D01*
X525216Y68400D01*
X528320Y65296D01*
X531424Y68400D01*
X529457Y69215D01*
D02*
G37*
G36*
X275457D02*
X273183D01*
X271216Y68400D01*
X274320Y65296D01*
X277424Y68400D01*
X275457Y69215D01*
D02*
G37*
G36*
X406220Y69144D02*
X403116Y66040D01*
X406220Y62936D01*
X407035Y64903D01*
Y67177D01*
X406220Y69144D01*
D02*
G37*
G36*
X149680D02*
X146576Y66040D01*
X149680Y62936D01*
X150495Y64903D01*
Y67177D01*
X149680Y69144D01*
D02*
G37*
G36*
X396420Y69144D02*
X395605Y67177D01*
Y64903D01*
X396420Y62936D01*
X399524Y66040D01*
X396420Y69144D01*
D02*
G37*
G36*
X139880D02*
X139065Y67177D01*
Y64903D01*
X139880Y62936D01*
X142984Y66040D01*
X139880Y69144D01*
D02*
G37*
G36*
X533220Y66604D02*
X530116Y63500D01*
X533220Y60396D01*
X534035Y62363D01*
Y64637D01*
X533220Y66604D01*
D02*
G37*
G36*
X279220D02*
X276116Y63500D01*
X279220Y60396D01*
X280035Y62363D01*
Y64637D01*
X279220Y66604D01*
D02*
G37*
G36*
X523420Y66604D02*
X522605Y64637D01*
Y62363D01*
X523420Y60396D01*
X526524Y63500D01*
X523420Y66604D01*
D02*
G37*
G36*
X269420D02*
X268605Y64637D01*
Y62363D01*
X269420Y60396D01*
X272524Y63500D01*
X269420Y66604D01*
D02*
G37*
G36*
X401320Y64244D02*
X398216Y61140D01*
X400183Y60325D01*
X402457D01*
X404424Y61140D01*
X401320Y64244D01*
D02*
G37*
G36*
X144780D02*
X141676Y61140D01*
X143643Y60325D01*
X145917D01*
X147884Y61140D01*
X144780Y64244D01*
D02*
G37*
%LPD*%
D23*
X558800Y209550D02*
D03*
X226060Y254000D02*
D03*
X201958Y229020D02*
D03*
X200660Y254000D02*
D03*
X226060Y228600D02*
D03*
D25*
X107950Y209550D02*
D03*
Y179550D02*
D03*
D26*
X558800Y234950D02*
D03*
D27*
X544500Y167400D02*
D03*
Y117400D02*
D03*
D28*
X571500Y177650D02*
D03*
Y107150D02*
D03*
D29*
X492760Y127000D02*
D03*
X500380Y124460D02*
D03*
Y134620D02*
D03*
X355600Y284480D02*
D03*
X292100Y230007D02*
D03*
X295032Y216292D02*
D03*
X317500Y284480D02*
D03*
X304800Y198120D02*
D03*
Y189357D02*
D03*
X259983Y213360D02*
D03*
X386080Y210312D02*
D03*
Y218440D02*
D03*
X350520Y246380D02*
D03*
X167640Y147320D02*
D03*
X349250Y158750D02*
D03*
X251460Y127000D02*
D03*
X226060Y147320D02*
D03*
X175260Y228600D02*
D03*
X146050Y146050D02*
D03*
X472440Y121920D02*
D03*
X543560Y261620D02*
D03*
X481584Y116840D02*
D03*
X457200Y137160D02*
D03*
X497840Y129540D02*
D03*
X432816Y116840D02*
D03*
X411480Y228600D02*
D03*
X492760Y233680D02*
D03*
X538480Y223520D02*
D03*
X401320Y147320D02*
D03*
X264160Y149860D02*
D03*
X401320Y66040D02*
D03*
X259080Y241300D02*
D03*
X251460Y228600D02*
D03*
X220980Y119380D02*
D03*
X228600Y114300D02*
D03*
X144780Y66040D02*
D03*
X464820Y129540D02*
D03*
X127000Y271780D02*
D03*
X441960Y121920D02*
D03*
X449580Y129540D02*
D03*
X466090Y146050D02*
D03*
X198120Y124460D02*
D03*
X495300Y142240D02*
D03*
X528320Y63500D02*
D03*
X274320D02*
D03*
X205740Y129540D02*
D03*
X213360Y124460D02*
D03*
X190500Y119380D02*
D03*
X182880Y114300D02*
D03*
X129540Y187960D02*
D03*
M02*
