M48
;Layer_Color=9474304
;FILE_FORMAT=4:4
METRIC,LZ
;TYPE=PLATED
T01F00S00C0.3810
T04F00S00C1.0160
;TYPE=NON_PLATED
T05F00S00C0.9000
%
T01
X0014478Y0006604
X0014605Y0014605
X0016764Y0014732
X0018288Y001143
X001905Y0011938
X0019812Y0012446
X0020574Y0012954
X0021336Y0012446
X0022098Y0011938
X002286Y001143
X0025146Y00127
X0026416Y0014986
X0022606Y0014732
X00259983Y0021336
X0025146Y002286
X0025908Y002413
X002921Y00230007
X00295032Y00216292
X003048Y0019812
Y00189357
X0034925Y0015875
X0038608Y00210312
Y0021844
X0035052Y0024638
X003556Y0028448
X003175
X0017526Y002286
X0012954Y0018796
X00127Y0027178
X0027432Y000635
X0040132Y0006604
Y0014732
X00432816Y0011684
X0044196Y0012192
X0044958Y0012954
X004572Y0013716
X0046482Y0012954
X0047244Y0012192
X00481584Y0011684
X0049276Y00127
X0049784Y0012954
X0050038Y0012446
Y0013462
X004953Y0014224
X0046609Y0014605
X0049276Y0023368
X0053848Y0022352
X0054356Y0026162
X0041148Y002286
X0052832Y000635
T04
X00201958Y0022902
X0022606Y002286
Y00254
X0020066
X005588Y0023495
Y0020955
T05
X0010795Y0017955
Y0020955
M30
