%TF.GenerationSoftware,KiCad,Pcbnew,10.0.4*%
%TF.CreationDate,2026-06-23T19:25:24-06:00*%
%TF.ProjectId,LED Dice,4c454420-4469-4636-952e-6b696361645f,rev?*%
%TF.SameCoordinates,Original*%
%TF.FileFunction,Paste,Top*%
%TF.FilePolarity,Positive*%
%FSLAX46Y46*%
G04 Gerber Fmt 4.6, Leading zero omitted, Abs format (unit mm)*
G04 Created by KiCad (PCBNEW 10.0.4) date 2026-06-23 19:25:24*
%MOMM*%
%LPD*%
G01*
G04 APERTURE LIST*
G04 Aperture macros list*
%AMRoundRect*
0 Rectangle with rounded corners*
0 $1 Rounding radius*
0 $2 $3 $4 $5 $6 $7 $8 $9 X,Y pos of 4 corners*
0 Add a 4 corners polygon primitive as box body*
4,1,4,$2,$3,$4,$5,$6,$7,$8,$9,$2,$3,0*
0 Add four circle primitives for the rounded corners*
1,1,$1+$1,$2,$3*
1,1,$1+$1,$4,$5*
1,1,$1+$1,$6,$7*
1,1,$1+$1,$8,$9*
0 Add four rect primitives between the rounded corners*
20,1,$1+$1,$2,$3,$4,$5,0*
20,1,$1+$1,$4,$5,$6,$7,0*
20,1,$1+$1,$6,$7,$8,$9,0*
20,1,$1+$1,$8,$9,$2,$3,0*%
G04 Aperture macros list end*
%ADD10RoundRect,0.090000X-0.660000X-0.360000X0.660000X-0.360000X0.660000X0.360000X-0.660000X0.360000X0*%
G04 APERTURE END LIST*
D10*
%TO.C,D6*%
X142330000Y-87250000D03*
X142330000Y-90550000D03*
X147230000Y-90550000D03*
X147230000Y-87250000D03*
%TD*%
%TO.C,D7*%
X142330000Y-96140000D03*
X142330000Y-99440000D03*
X147230000Y-99440000D03*
X147230000Y-96140000D03*
%TD*%
%TO.C,D11*%
X164645000Y-87250000D03*
X164645000Y-90550000D03*
X169545000Y-90550000D03*
X169545000Y-87250000D03*
%TD*%
%TO.C,D2*%
X128450000Y-87250000D03*
X128450000Y-90550000D03*
X133350000Y-90550000D03*
X133350000Y-87250000D03*
%TD*%
%TO.C,D12*%
X171540000Y-78360000D03*
X171540000Y-81660000D03*
X176440000Y-81660000D03*
X176440000Y-78360000D03*
%TD*%
%TO.C,D8*%
X157570000Y-78360000D03*
X157570000Y-81660000D03*
X162470000Y-81660000D03*
X162470000Y-78360000D03*
%TD*%
%TO.C,D1*%
X128360000Y-78360000D03*
X128360000Y-81660000D03*
X133260000Y-81660000D03*
X133260000Y-78360000D03*
%TD*%
%TO.C,D13*%
X171540000Y-87250000D03*
X171540000Y-90550000D03*
X176440000Y-90550000D03*
X176440000Y-87250000D03*
%TD*%
%TO.C,D9*%
X157570000Y-87250000D03*
X157570000Y-90550000D03*
X162470000Y-90550000D03*
X162470000Y-87250000D03*
%TD*%
%TO.C,D5*%
X142330000Y-78360000D03*
X142330000Y-81660000D03*
X147230000Y-81660000D03*
X147230000Y-78360000D03*
%TD*%
%TO.C,D3*%
X128360000Y-96140000D03*
X128360000Y-99440000D03*
X133260000Y-99440000D03*
X133260000Y-96140000D03*
%TD*%
%TO.C,D10*%
X157570000Y-96140000D03*
X157570000Y-99440000D03*
X162470000Y-99440000D03*
X162470000Y-96140000D03*
%TD*%
%TO.C,D4*%
X135345000Y-87250000D03*
X135345000Y-90550000D03*
X140245000Y-90550000D03*
X140245000Y-87250000D03*
%TD*%
%TO.C,D14*%
X171540000Y-96140000D03*
X171540000Y-99440000D03*
X176440000Y-99440000D03*
X176440000Y-96140000D03*
%TD*%
M02*
