M48
; DRILL file KiCad 10.0.4 date 2026-06-23T19:25:31
; FORMAT={-:-/ absolute / metric / decimal}
; #@! TF.CreationDate,2026-06-23T19:25:31-06:00
; #@! TF.GenerationSoftware,Kicad,Pcbnew,10.0.4
; #@! TF.FileFunction,Plated,1,4,PTH
FMAT,2
METRIC
; #@! TA.AperFunction,Plated,PTH,ViaDrill
T1C0.300
; #@! TA.AperFunction,Plated,PTH,ViaDrill
T2C0.381
; #@! TA.AperFunction,Plated,PTH,ComponentDrill
T3C0.600
; #@! TA.AperFunction,Plated,PTH,ComponentDrill
T4C1.000
%
G90
G05
T1
X134.747Y-91.694
X135.378Y-89.225
X135.509Y-84.836
X136.398Y-79.248
X136.409Y-88.381
X137.668Y-84.074
X138.938Y-87.376
X139.827Y-91.5
X143.51Y-98.552
X161.544Y-84.836
X162.306Y-91.948
X166.624Y-86.09
X169.164Y-94.996
X170.18Y-92.71
X173.228Y-85.09
X173.99Y-96.52
X174.498Y-96.52
X175.006Y-96.52
X176.022Y-84.582
T2
X129.54Y-78.232
X129.54Y-96.012
X129.794Y-87.122
X129.87Y-88.519
X131.572Y-85.598
X131.826Y-79.756
X132.08Y-90.678
X132.08Y-99.568
X134.747Y-86.233
X137.033Y-84.074
X137.104Y-96.068
X137.16Y-99.568
X138.557Y-93.091
X138.938Y-90.678
X140.208Y-93.914
X140.208Y-97.282
X141.478Y-95.25
X142.494Y-93.98
X143.51Y-78.222
X143.51Y-87.122
X143.764Y-85.09
X146.05Y-81.788
X146.05Y-90.678
X146.05Y-99.568
X146.558Y-97.536
X147.32Y-85.09
X147.811Y-88.218
X148.844Y-99.568
X149.345Y-96.52
X149.599Y-92.964
X150.622Y-94.488
X150.876Y-98.806
X151.892Y-98.044
X152.908Y-98.806
X155.702Y-96.52
X158.75Y-78.232
X158.75Y-87.122
X158.75Y-96.012
X161.036Y-80.518
X161.29Y-99.568
X161.798Y-89.662
X164.084Y-83.058
X164.464Y-88.264
X168.148Y-91.334
X172.212Y-97.028
X172.72Y-78.232
X172.72Y-87.122
X175.26Y-81.788
X175.26Y-90.678
X175.26Y-99.568
T4
X139.827Y-79.375
X139.827Y-81.915
X167.132Y-94.488
X167.132Y-97.028
X167.132Y-99.568
T3
G00X128.505Y-84.58
M15
G01X129.305Y-84.58
M16
G05
G00X128.505Y-93.22
M15
G01X129.305Y-93.22
M16
G05
G00X132.535Y-84.58
M15
G01X133.635Y-84.58
M16
G05
G00X132.535Y-93.22
M15
G01X133.635Y-93.22
M16
G05
M30
