%TF.GenerationSoftware,KiCad,Pcbnew,10.0.4*%
%TF.CreationDate,2026-06-23T19:25:24-06:00*%
%TF.ProjectId,LED Dice,4c454420-4469-4636-952e-6b696361645f,rev?*%
%TF.SameCoordinates,Original*%
%TF.FileFunction,Copper,L3,Inr*%
%TF.FilePolarity,Positive*%
%FSLAX46Y46*%
G04 Gerber Fmt 4.6, Leading zero omitted, Abs format (unit mm)*
G04 Created by KiCad (PCBNEW 10.0.4) date 2026-06-23 19:25:24*
%MOMM*%
%LPD*%
G01*
G04 APERTURE LIST*
%TA.AperFunction,ComponentPad*%
%ADD10O,1.800000X1.000000*%
%TD*%
%TA.AperFunction,ComponentPad*%
%ADD11O,2.100000X1.000000*%
%TD*%
%TA.AperFunction,ComponentPad*%
%ADD12R,2.032000X2.032000*%
%TD*%
%TA.AperFunction,ComponentPad*%
%ADD13C,2.032000*%
%TD*%
%TA.AperFunction,ViaPad*%
%ADD14C,0.600000*%
%TD*%
%TA.AperFunction,ViaPad*%
%ADD15C,0.635000*%
%TD*%
%TA.AperFunction,ViaPad*%
%ADD16C,0.500000*%
%TD*%
G04 APERTURE END LIST*
D10*
%TO.N,GND*%
%TO.C,J1*%
X128905000Y-93220000D03*
D11*
X133085000Y-93220000D03*
D10*
X128905000Y-84580000D03*
D11*
X133085000Y-84580000D03*
%TD*%
D12*
%TO.N,GND*%
%TO.C,J3*%
X139827000Y-81915000D03*
D13*
%TO.N,/Power and Comms/Batt+*%
X139827000Y-79375000D03*
%TD*%
%TO.N,/Microcontroller/SWDIO*%
%TO.C,J4*%
X167132000Y-94488000D03*
%TO.N,/Microcontroller/SWCLK*%
X167132000Y-97028000D03*
%TO.N,GND*%
X167132000Y-99568000D03*
%TD*%
D14*
%TO.N,+5V*%
X173990000Y-96520000D03*
D15*
X147320000Y-85090000D03*
X141478000Y-95250000D03*
X129794000Y-87122000D03*
X172212000Y-97028000D03*
X129540000Y-78232000D03*
X164464000Y-88264000D03*
X129870200Y-88519000D03*
X143510000Y-87122000D03*
D14*
X175006000Y-96520000D03*
X174498000Y-96520000D03*
D15*
X158750000Y-87122000D03*
X129540000Y-96012000D03*
D14*
X162306000Y-91948000D03*
D15*
X143510000Y-78222500D03*
X158750000Y-78232000D03*
X158750000Y-96012000D03*
X172720000Y-78232000D03*
X172720000Y-87122000D03*
D14*
%TO.N,GND*%
X135509000Y-84836000D03*
D15*
X132080000Y-90678000D03*
X140208000Y-97282000D03*
D14*
X170180000Y-92710000D03*
D15*
X131826000Y-79756000D03*
X146050000Y-99568000D03*
D14*
X169164000Y-94996000D03*
X136398000Y-79248000D03*
X138938000Y-87376000D03*
D15*
X175260000Y-81788000D03*
D16*
X173228000Y-85090000D03*
D14*
X161544000Y-84836000D03*
D15*
X146050000Y-90678000D03*
X175260000Y-90678000D03*
X161036000Y-80518000D03*
X132080000Y-99568000D03*
X138938000Y-90678000D03*
X146050000Y-81788000D03*
X137160000Y-99568000D03*
X151892000Y-98044000D03*
X161798000Y-89662000D03*
X161290000Y-99568000D03*
D14*
X176022000Y-84582000D03*
D15*
X150876000Y-98806000D03*
X149599000Y-92964000D03*
X175260000Y-99568000D03*
X149345000Y-96520000D03*
X147810543Y-88217500D03*
X168148000Y-91333500D03*
X152908000Y-98806000D03*
D14*
X166624000Y-86090500D03*
D15*
X143764000Y-85090000D03*
%TO.N,/LED Matrix 2/Din*%
X164084000Y-83058000D03*
X155702000Y-96520000D03*
%TO.N,/LED matrix 1/Din*%
X131572000Y-85598000D03*
D14*
%TO.N,/Microcontroller/Vsample*%
X139827000Y-91500000D03*
X143510000Y-98552000D03*
D15*
%TO.N,/Power and Comms/Vbus*%
X134747000Y-86233000D03*
X137033000Y-84074000D03*
D14*
X134747000Y-91694000D03*
X137668000Y-84074000D03*
D15*
%TO.N,+3.3V*%
X137104361Y-96067639D03*
X146558000Y-97536000D03*
X138557000Y-93091000D03*
X148844000Y-99568000D03*
D14*
%TO.N,/Microcontroller/USB D+*%
X136409166Y-88380834D03*
X135378000Y-89225000D03*
D15*
%TO.N,/Microcontroller/SWCLK*%
X140208000Y-93914000D03*
X142494000Y-93980000D03*
%TO.N,/Microcontroller/touchIn*%
X150622000Y-94488000D03*
%TD*%
%TA.AperFunction,Conductor*%
%TO.N,+5V*%
G36*
X165635743Y-76964621D02*
G01*
X165640497Y-76964149D01*
X165643649Y-76965758D01*
X165652444Y-76967023D01*
X165661074Y-76969557D01*
X165699672Y-76994362D01*
X165702725Y-76995921D01*
X165703100Y-76996565D01*
X165719852Y-77007331D01*
X165748877Y-77070887D01*
X165738933Y-77140046D01*
X165719288Y-77163981D01*
X165718404Y-77166570D01*
X165713413Y-77171139D01*
X165698659Y-77189117D01*
X165689634Y-77195624D01*
X165684820Y-77197321D01*
X165683845Y-77198215D01*
X165684415Y-77199068D01*
X165566455Y-77277886D01*
X165566454Y-77277887D01*
X165566448Y-77277892D01*
X165468892Y-77375448D01*
X165468887Y-77375454D01*
X165468886Y-77375455D01*
X165392232Y-77490175D01*
X165392222Y-77490192D01*
X165392217Y-77490201D01*
X165339429Y-77617644D01*
X165339416Y-77617683D01*
X165312500Y-77753000D01*
X165312500Y-77846626D01*
X165307237Y-77864546D01*
X165339416Y-78026315D01*
X165339417Y-78026319D01*
X165339418Y-78026322D01*
X165339421Y-78026332D01*
X165339424Y-78026340D01*
X165339429Y-78026354D01*
X165392217Y-78153797D01*
X165392222Y-78153806D01*
X165392232Y-78153823D01*
X165468886Y-78268543D01*
X165468887Y-78268544D01*
X165468892Y-78268550D01*
X165566448Y-78366106D01*
X165566454Y-78366111D01*
X165566458Y-78366114D01*
X165681182Y-78442771D01*
X165681195Y-78442778D01*
X165808667Y-78495578D01*
X165808672Y-78495580D01*
X165808676Y-78495580D01*
X165808677Y-78495581D01*
X165852957Y-78504389D01*
X165944002Y-78522500D01*
X166081995Y-78522500D01*
X166081996Y-78522500D01*
X166127518Y-78513444D01*
X166173041Y-78504389D01*
X166217328Y-78495580D01*
X166344811Y-78442775D01*
X166459542Y-78366114D01*
X166557114Y-78268542D01*
X166633775Y-78153811D01*
X166686580Y-78026328D01*
X166713500Y-77890993D01*
X166713500Y-77753007D01*
X166713500Y-77753004D01*
X166713500Y-77753001D01*
X166686341Y-77616469D01*
X166684254Y-77612057D01*
X166637189Y-77498430D01*
X166637185Y-77498422D01*
X166633782Y-77490205D01*
X166633780Y-77490201D01*
X166633778Y-77490195D01*
X166633771Y-77490182D01*
X166557114Y-77375458D01*
X166557111Y-77375454D01*
X166557106Y-77375448D01*
X166459550Y-77277892D01*
X166459544Y-77277887D01*
X166459543Y-77277886D01*
X166344857Y-77201255D01*
X166340380Y-77196905D01*
X166337000Y-77195548D01*
X166335944Y-77194706D01*
X166322323Y-77183730D01*
X166312996Y-77170298D01*
X166312669Y-77169980D01*
X166304033Y-77157827D01*
X166303732Y-77156956D01*
X166282473Y-77126339D01*
X166279978Y-77056514D01*
X166296709Y-77028313D01*
X166297786Y-77023894D01*
X166301334Y-77020516D01*
X166315629Y-76996424D01*
X166340773Y-76982986D01*
X166348401Y-76975728D01*
X166357687Y-76973947D01*
X166371627Y-76966497D01*
X166376622Y-76965317D01*
X166405112Y-76962000D01*
X168617509Y-76962000D01*
X168652444Y-76967023D01*
X168661074Y-76969557D01*
X168719852Y-77007331D01*
X168748877Y-77070887D01*
X168738933Y-77140046D01*
X168698659Y-77189117D01*
X168689634Y-77195624D01*
X168684388Y-77199028D01*
X168684415Y-77199068D01*
X168566455Y-77277886D01*
X168566454Y-77277887D01*
X168566448Y-77277892D01*
X168468892Y-77375448D01*
X168468887Y-77375454D01*
X168468886Y-77375455D01*
X168392232Y-77490175D01*
X168392222Y-77490192D01*
X168392217Y-77490201D01*
X168339429Y-77617644D01*
X168339416Y-77617683D01*
X168312500Y-77753000D01*
X168312500Y-77846626D01*
X168307237Y-77864546D01*
X168339416Y-78026315D01*
X168339417Y-78026319D01*
X168339418Y-78026322D01*
X168339421Y-78026332D01*
X168339424Y-78026340D01*
X168339429Y-78026354D01*
X168392217Y-78153797D01*
X168392222Y-78153806D01*
X168392232Y-78153823D01*
X168468886Y-78268543D01*
X168468887Y-78268544D01*
X168468892Y-78268550D01*
X168566448Y-78366106D01*
X168566454Y-78366111D01*
X168566458Y-78366114D01*
X168681182Y-78442771D01*
X168681195Y-78442778D01*
X168808667Y-78495578D01*
X168808672Y-78495580D01*
X168808676Y-78495580D01*
X168808677Y-78495581D01*
X168852957Y-78504389D01*
X168944002Y-78522500D01*
X169081995Y-78522500D01*
X169081996Y-78522500D01*
X169127518Y-78513444D01*
X169173041Y-78504389D01*
X169217328Y-78495580D01*
X169344811Y-78442775D01*
X169459542Y-78366114D01*
X169557114Y-78268542D01*
X169633775Y-78153811D01*
X169686580Y-78026328D01*
X169713500Y-77890993D01*
X169713500Y-77753007D01*
X169713500Y-77753004D01*
X169713500Y-77753001D01*
X169686341Y-77616469D01*
X169684254Y-77612057D01*
X169637189Y-77498430D01*
X169637185Y-77498422D01*
X169633782Y-77490205D01*
X169633780Y-77490201D01*
X169633778Y-77490195D01*
X169633771Y-77490182D01*
X169557114Y-77375458D01*
X169557111Y-77375454D01*
X169557106Y-77375448D01*
X169459550Y-77277892D01*
X169459544Y-77277887D01*
X169459543Y-77277886D01*
X169344857Y-77201255D01*
X169340380Y-77196905D01*
X169337000Y-77195548D01*
X169335944Y-77194706D01*
X169322323Y-77183730D01*
X169312996Y-77170298D01*
X169312669Y-77169980D01*
X169304033Y-77157827D01*
X169303732Y-77156956D01*
X169282473Y-77126339D01*
X169279978Y-77056514D01*
X169296709Y-77028313D01*
X169297786Y-77023894D01*
X169301334Y-77020516D01*
X169315629Y-76996424D01*
X169340773Y-76982986D01*
X169348401Y-76975728D01*
X169357687Y-76973947D01*
X169371627Y-76966497D01*
X169376622Y-76965317D01*
X169405112Y-76962000D01*
X175168976Y-76962000D01*
X175203908Y-76967021D01*
X175229152Y-76974434D01*
X175281898Y-77005730D01*
X176967242Y-78691074D01*
X176988391Y-78719325D01*
X177000999Y-78742414D01*
X177016168Y-78801843D01*
X177016168Y-98990808D01*
X177011144Y-99025745D01*
X177003732Y-99050986D01*
X176972437Y-99103730D01*
X175287094Y-100789073D01*
X175262283Y-100807647D01*
X175258843Y-100810222D01*
X175235755Y-100822830D01*
X175176325Y-100838000D01*
X167804484Y-100838000D01*
X167769540Y-100832974D01*
X167759285Y-100829962D01*
X167700510Y-100792183D01*
X167671490Y-100728626D01*
X167681439Y-100659468D01*
X167717803Y-100613341D01*
X167720922Y-100610900D01*
X167741029Y-100598078D01*
X167749692Y-100593664D01*
X167750100Y-100593494D01*
X167757793Y-100589536D01*
X167757948Y-100589458D01*
X167757947Y-100589458D01*
X167757950Y-100589457D01*
X167757952Y-100589454D01*
X167758330Y-100589262D01*
X167806030Y-100564958D01*
X167821439Y-100543426D01*
X167824903Y-100540812D01*
X167910034Y-100478961D01*
X168042961Y-100346034D01*
X168153457Y-100193950D01*
X168238801Y-100026452D01*
X168238802Y-100026449D01*
X168296891Y-99847670D01*
X168296891Y-99847669D01*
X168296892Y-99847666D01*
X168326300Y-99661993D01*
X168326300Y-99502727D01*
X174764200Y-99502727D01*
X174764200Y-99633273D01*
X174797988Y-99759372D01*
X174863261Y-99872428D01*
X174955572Y-99964739D01*
X175068628Y-100030012D01*
X175194727Y-100063800D01*
X175194729Y-100063800D01*
X175325271Y-100063800D01*
X175325273Y-100063800D01*
X175451372Y-100030012D01*
X175564428Y-99964739D01*
X175656739Y-99872428D01*
X175722012Y-99759372D01*
X175755800Y-99633273D01*
X175755800Y-99502727D01*
X175722012Y-99376628D01*
X175656739Y-99263572D01*
X175564428Y-99171261D01*
X175459066Y-99110430D01*
X175451374Y-99105989D01*
X175451373Y-99105988D01*
X175451372Y-99105988D01*
X175427755Y-99099659D01*
X175427753Y-99099659D01*
X175371081Y-99084474D01*
X175325273Y-99072200D01*
X175325272Y-99072200D01*
X175194727Y-99072200D01*
X175068635Y-99105985D01*
X175068624Y-99105989D01*
X175068623Y-99105990D01*
X174955572Y-99171260D01*
X174955563Y-99171267D01*
X174863267Y-99263563D01*
X174863260Y-99263572D01*
X174797990Y-99376623D01*
X174797989Y-99376624D01*
X174797985Y-99376635D01*
X174769802Y-99481819D01*
X174764200Y-99502727D01*
X168326300Y-99502727D01*
X168326300Y-99474007D01*
X168296892Y-99288334D01*
X168296891Y-99288330D01*
X168296891Y-99288329D01*
X168238802Y-99109550D01*
X168238798Y-99109543D01*
X168238798Y-99109541D01*
X168236986Y-99105985D01*
X168236986Y-99105986D01*
X168235836Y-99103730D01*
X168219771Y-99072200D01*
X168153457Y-98942050D01*
X168042961Y-98789966D01*
X167910034Y-98657039D01*
X167757950Y-98546543D01*
X167669689Y-98501572D01*
X167669671Y-98501563D01*
X167590449Y-98461196D01*
X167590446Y-98461195D01*
X167468090Y-98421440D01*
X167453604Y-98411649D01*
X167437522Y-98406614D01*
X167436421Y-98405870D01*
X167427084Y-98399486D01*
X167416547Y-98386601D01*
X167411264Y-98383030D01*
X167404021Y-98374364D01*
X167401153Y-98367776D01*
X167382853Y-98345398D01*
X167379788Y-98318702D01*
X167376132Y-98310302D01*
X167377708Y-98300573D01*
X167374886Y-98275985D01*
X167385037Y-98255335D01*
X167387306Y-98241331D01*
X167397501Y-98229979D01*
X167405705Y-98213291D01*
X167407805Y-98211002D01*
X167423750Y-98200754D01*
X167433994Y-98189350D01*
X167447081Y-98185759D01*
X167460842Y-98176914D01*
X167585840Y-98136299D01*
X167595189Y-98133663D01*
X167595211Y-98133657D01*
X167599738Y-98131782D01*
X167607723Y-98129187D01*
X167616970Y-98121289D01*
X167757950Y-98049457D01*
X167910034Y-97938961D01*
X168042961Y-97806034D01*
X168153457Y-97653950D01*
X168238801Y-97486452D01*
X168284024Y-97347270D01*
X168296891Y-97307670D01*
X168296891Y-97307669D01*
X168296892Y-97307666D01*
X168326300Y-97121993D01*
X168326300Y-96934007D01*
X168296892Y-96748334D01*
X168296891Y-96748330D01*
X168296891Y-96748329D01*
X168238802Y-96569550D01*
X168237339Y-96566679D01*
X168235689Y-96563439D01*
X168235689Y-96563440D01*
X168235688Y-96563438D01*
X168153457Y-96402050D01*
X168042961Y-96249966D01*
X167910034Y-96117039D01*
X167852796Y-96075453D01*
X167757954Y-96006545D01*
X167757951Y-96006544D01*
X167757952Y-96006544D01*
X167757950Y-96006543D01*
X167749752Y-96002366D01*
X167749749Y-96002364D01*
X167590449Y-95921196D01*
X167590446Y-95921195D01*
X167468090Y-95881440D01*
X167453604Y-95871649D01*
X167437522Y-95866614D01*
X167436421Y-95865870D01*
X167427084Y-95859486D01*
X167416547Y-95846601D01*
X167411264Y-95843030D01*
X167404021Y-95834364D01*
X167401153Y-95827776D01*
X167382853Y-95805398D01*
X167379788Y-95778702D01*
X167376132Y-95770302D01*
X167377708Y-95760573D01*
X167374886Y-95735985D01*
X167385037Y-95715335D01*
X167387306Y-95701331D01*
X167397501Y-95689979D01*
X167405705Y-95673291D01*
X167407805Y-95671002D01*
X167423750Y-95660754D01*
X167433994Y-95649350D01*
X167447081Y-95645759D01*
X167460842Y-95636914D01*
X167585840Y-95596299D01*
X167595189Y-95593663D01*
X167595211Y-95593657D01*
X167599738Y-95591782D01*
X167607723Y-95589187D01*
X167616970Y-95581289D01*
X167757950Y-95509457D01*
X167910034Y-95398961D01*
X168042961Y-95266034D01*
X168153457Y-95113950D01*
X168192686Y-95036958D01*
X168679801Y-95036958D01*
X168718297Y-95180621D01*
X168725507Y-95193110D01*
X168725531Y-95193149D01*
X168781262Y-95289679D01*
X168781264Y-95289682D01*
X168781265Y-95289683D01*
X168791483Y-95299901D01*
X168870317Y-95378735D01*
X168871007Y-95379233D01*
X168873520Y-95380584D01*
X168924850Y-95410219D01*
X168979383Y-95441704D01*
X169101031Y-95474300D01*
X169101034Y-95474300D01*
X169226966Y-95474300D01*
X169226969Y-95474300D01*
X169348617Y-95441704D01*
X169457683Y-95378735D01*
X169546735Y-95289683D01*
X169609704Y-95180617D01*
X169642300Y-95058969D01*
X169642300Y-94933031D01*
X169609704Y-94811383D01*
X169546735Y-94702317D01*
X169457683Y-94613265D01*
X169457682Y-94613264D01*
X169457679Y-94613262D01*
X169361145Y-94557529D01*
X169361113Y-94557509D01*
X169348619Y-94550296D01*
X169318205Y-94542147D01*
X169318204Y-94542146D01*
X169251415Y-94524250D01*
X169226969Y-94517700D01*
X169226968Y-94517700D01*
X169101029Y-94517700D01*
X169028040Y-94537257D01*
X169028039Y-94537256D01*
X168979380Y-94550295D01*
X168965253Y-94558451D01*
X168965238Y-94558462D01*
X168870320Y-94613261D01*
X168870316Y-94613265D01*
X168870306Y-94613273D01*
X168781273Y-94702306D01*
X168781267Y-94702313D01*
X168781262Y-94702319D01*
X168781261Y-94702320D01*
X168726462Y-94797238D01*
X168726457Y-94797242D01*
X168726458Y-94797243D01*
X168718296Y-94811380D01*
X168701998Y-94872206D01*
X168685700Y-94933031D01*
X168685700Y-95016872D01*
X168679801Y-95036958D01*
X168192686Y-95036958D01*
X168238801Y-94946452D01*
X168247905Y-94918432D01*
X168258254Y-94886584D01*
X168258254Y-94886583D01*
X168296786Y-94767992D01*
X168296889Y-94767680D01*
X168296890Y-94767672D01*
X168296891Y-94767670D01*
X168296891Y-94767669D01*
X168296892Y-94767666D01*
X168326300Y-94581993D01*
X168326300Y-94394007D01*
X168298418Y-94217966D01*
X168296892Y-94208332D01*
X168288844Y-94183563D01*
X168238802Y-94029550D01*
X168238800Y-94029547D01*
X168238800Y-94029545D01*
X168158645Y-93872233D01*
X168158643Y-93872228D01*
X168153462Y-93862059D01*
X168153460Y-93862056D01*
X168153457Y-93862050D01*
X168042961Y-93709966D01*
X167910034Y-93577039D01*
X167757950Y-93466543D01*
X167662390Y-93417853D01*
X167590449Y-93381197D01*
X167497717Y-93351066D01*
X167411670Y-93323108D01*
X167272411Y-93301052D01*
X167225993Y-93293700D01*
X167225992Y-93293700D01*
X167038003Y-93293700D01*
X166976116Y-93303502D01*
X166861973Y-93321581D01*
X166861965Y-93321581D01*
X166861966Y-93321582D01*
X166852327Y-93323108D01*
X166673545Y-93381198D01*
X166506048Y-93466543D01*
X166436248Y-93517257D01*
X166436247Y-93517258D01*
X166436246Y-93517259D01*
X166365836Y-93568415D01*
X166358456Y-93572547D01*
X166216546Y-93714457D01*
X166212416Y-93721833D01*
X166194228Y-93746868D01*
X166194226Y-93746871D01*
X166110542Y-93862049D01*
X166025198Y-94029545D01*
X165967108Y-94208327D01*
X165965582Y-94217966D01*
X165965581Y-94217965D01*
X165965581Y-94217972D01*
X165937700Y-94394001D01*
X165937700Y-94581997D01*
X165965581Y-94758026D01*
X165965582Y-94758033D01*
X165967108Y-94767671D01*
X166025198Y-94946453D01*
X166044228Y-94983800D01*
X166082527Y-95058966D01*
X166110543Y-95113950D01*
X166221039Y-95266034D01*
X166353966Y-95398961D01*
X166506050Y-95509457D01*
X166673548Y-95594801D01*
X166673550Y-95594802D01*
X166795911Y-95634560D01*
X166810397Y-95644352D01*
X166826492Y-95649394D01*
X166827502Y-95650076D01*
X166836921Y-95656518D01*
X166847463Y-95669410D01*
X166852747Y-95672982D01*
X166859988Y-95681648D01*
X166862852Y-95688231D01*
X166881148Y-95710606D01*
X166884212Y-95737313D01*
X166887868Y-95745714D01*
X166886291Y-95755436D01*
X166889112Y-95780021D01*
X166878956Y-95800675D01*
X166876685Y-95814683D01*
X166866488Y-95826032D01*
X166858283Y-95842721D01*
X166858272Y-95842733D01*
X166856177Y-95845015D01*
X166840226Y-95855264D01*
X166829990Y-95866658D01*
X166816913Y-95870243D01*
X166803151Y-95879087D01*
X166673552Y-95921195D01*
X166673549Y-95921196D01*
X166506049Y-96006542D01*
X166481747Y-96024200D01*
X166365837Y-96108414D01*
X166358456Y-96112547D01*
X166216546Y-96254457D01*
X166212415Y-96261834D01*
X166110547Y-96402043D01*
X166110543Y-96402049D01*
X166110541Y-96402051D01*
X166110539Y-96402056D01*
X166025198Y-96569545D01*
X165967108Y-96748327D01*
X165965582Y-96757966D01*
X165965581Y-96757965D01*
X165965581Y-96757972D01*
X165937700Y-96934001D01*
X165937700Y-97121997D01*
X165964069Y-97288484D01*
X165964070Y-97288488D01*
X165967108Y-97307667D01*
X165967108Y-97307670D01*
X166025197Y-97486449D01*
X166025199Y-97486452D01*
X166032961Y-97501685D01*
X166032963Y-97501692D01*
X166107134Y-97647259D01*
X166110543Y-97653950D01*
X166221039Y-97806034D01*
X166353966Y-97938961D01*
X166506050Y-98049457D01*
X166673548Y-98134801D01*
X166673550Y-98134802D01*
X166795911Y-98174560D01*
X166810397Y-98184352D01*
X166826492Y-98189394D01*
X166827502Y-98190076D01*
X166836921Y-98196518D01*
X166847463Y-98209410D01*
X166852747Y-98212982D01*
X166859988Y-98221648D01*
X166862852Y-98228231D01*
X166881148Y-98250606D01*
X166884212Y-98277313D01*
X166887868Y-98285714D01*
X166886291Y-98295436D01*
X166889112Y-98320021D01*
X166878956Y-98340675D01*
X166876685Y-98354683D01*
X166866488Y-98366032D01*
X166858283Y-98382721D01*
X166858272Y-98382733D01*
X166856177Y-98385015D01*
X166840226Y-98395264D01*
X166829990Y-98406658D01*
X166816913Y-98410243D01*
X166803151Y-98419087D01*
X166673552Y-98461195D01*
X166673549Y-98461196D01*
X166506045Y-98546545D01*
X166419278Y-98609585D01*
X166365833Y-98648415D01*
X166358458Y-98652545D01*
X166216546Y-98794457D01*
X166212414Y-98801836D01*
X166180561Y-98845678D01*
X166120614Y-98928187D01*
X166110543Y-98942049D01*
X166110541Y-98942051D01*
X166110539Y-98942056D01*
X166025198Y-99109545D01*
X165967108Y-99288327D01*
X165965582Y-99297966D01*
X165965581Y-99297965D01*
X165965581Y-99297972D01*
X165937700Y-99474001D01*
X165937700Y-99661997D01*
X165965581Y-99838026D01*
X165965582Y-99838033D01*
X165967108Y-99847671D01*
X166025198Y-100026453D01*
X166110543Y-100193950D01*
X166221039Y-100346034D01*
X166353966Y-100478961D01*
X166385875Y-100502144D01*
X166506051Y-100589458D01*
X166525359Y-100599296D01*
X166532348Y-100604165D01*
X166535205Y-100607722D01*
X166546601Y-100615755D01*
X166554375Y-100623098D01*
X166572514Y-100654175D01*
X166576100Y-100658640D01*
X166576317Y-100660690D01*
X166589595Y-100683440D01*
X166586600Y-100753245D01*
X166546341Y-100810350D01*
X166493010Y-100834941D01*
X166489136Y-100835698D01*
X166465356Y-100838000D01*
X129587360Y-100838000D01*
X129587359Y-100837999D01*
X129587359Y-100838000D01*
X129552424Y-100832977D01*
X129527182Y-100825565D01*
X129474437Y-100794269D01*
X128182895Y-99502727D01*
X131584200Y-99502727D01*
X131584200Y-99633273D01*
X131617988Y-99759372D01*
X131683261Y-99872428D01*
X131775572Y-99964739D01*
X131888628Y-100030012D01*
X132014727Y-100063800D01*
X132014729Y-100063800D01*
X132145271Y-100063800D01*
X132145273Y-100063800D01*
X132271372Y-100030012D01*
X132384428Y-99964739D01*
X132476739Y-99872428D01*
X132542012Y-99759372D01*
X132575800Y-99633273D01*
X132575800Y-99502727D01*
X132542012Y-99376628D01*
X132476739Y-99263572D01*
X132384428Y-99171261D01*
X132279066Y-99110430D01*
X132271374Y-99105989D01*
X132271373Y-99105988D01*
X132271372Y-99105988D01*
X132247755Y-99099659D01*
X132247753Y-99099659D01*
X132191081Y-99084474D01*
X132145273Y-99072200D01*
X132145272Y-99072200D01*
X132014727Y-99072200D01*
X131888635Y-99105985D01*
X131888624Y-99105989D01*
X131888623Y-99105990D01*
X131775572Y-99171260D01*
X131775563Y-99171267D01*
X131683267Y-99263563D01*
X131683260Y-99263572D01*
X131617990Y-99376623D01*
X131617989Y-99376624D01*
X131617985Y-99376635D01*
X131589802Y-99481819D01*
X131584200Y-99502727D01*
X128182895Y-99502727D01*
X127789094Y-99108926D01*
X127789089Y-99108921D01*
X127767942Y-99080670D01*
X127755335Y-99057581D01*
X127740168Y-98998156D01*
X127740168Y-95809358D01*
X135960700Y-95809358D01*
X135960700Y-97230639D01*
X135961749Y-97250223D01*
X135961752Y-97250262D01*
X135964583Y-97276586D01*
X135964585Y-97276597D01*
X135985955Y-97344840D01*
X135985955Y-97344841D01*
X136019441Y-97406167D01*
X136050698Y-97447922D01*
X136050701Y-97447926D01*
X136050706Y-97447932D01*
X136050711Y-97447937D01*
X137530961Y-98928187D01*
X137540195Y-98945099D01*
X137553495Y-98959047D01*
X137556595Y-98975133D01*
X137564446Y-98989510D01*
X137563071Y-99008730D01*
X137566719Y-99027654D01*
X137560630Y-99042862D01*
X137559462Y-99059202D01*
X137547912Y-99074629D01*
X137540751Y-99092519D01*
X137527406Y-99102021D01*
X137517590Y-99115135D01*
X137499536Y-99121868D01*
X137483838Y-99133048D01*
X137467473Y-99133827D01*
X137452126Y-99139552D01*
X137433296Y-99135455D01*
X137414047Y-99136373D01*
X137386119Y-99125193D01*
X137383853Y-99124700D01*
X137381281Y-99123256D01*
X137367215Y-99115135D01*
X137365511Y-99114151D01*
X137358978Y-99109138D01*
X137343766Y-99102837D01*
X137335604Y-99101763D01*
X137327752Y-99099659D01*
X137225273Y-99072200D01*
X137225272Y-99072200D01*
X137094727Y-99072200D01*
X136968635Y-99105985D01*
X136968624Y-99105989D01*
X136968623Y-99105990D01*
X136855572Y-99171260D01*
X136855563Y-99171267D01*
X136763267Y-99263563D01*
X136763260Y-99263572D01*
X136697990Y-99376623D01*
X136697989Y-99376624D01*
X136697985Y-99376635D01*
X136669802Y-99481819D01*
X136664200Y-99502727D01*
X136664200Y-99633273D01*
X136697988Y-99759372D01*
X136763261Y-99872428D01*
X136855572Y-99964739D01*
X136968628Y-100030012D01*
X137094727Y-100063800D01*
X137094729Y-100063800D01*
X137225271Y-100063800D01*
X137225273Y-100063800D01*
X137351372Y-100030012D01*
X137464428Y-99964739D01*
X137556739Y-99872428D01*
X137622012Y-99759372D01*
X137655800Y-99633273D01*
X137655800Y-99502727D01*
X137622012Y-99376628D01*
X137604743Y-99346718D01*
X137588271Y-99278819D01*
X137611123Y-99212792D01*
X137666045Y-99169601D01*
X137735598Y-99162960D01*
X137797701Y-99194976D01*
X137799812Y-99197038D01*
X138129631Y-99526857D01*
X139026068Y-100423294D01*
X139026076Y-100423301D01*
X139026096Y-100423320D01*
X139040666Y-100436406D01*
X139053292Y-100446579D01*
X139061310Y-100453041D01*
X139061316Y-100453044D01*
X139124680Y-100486190D01*
X139124681Y-100486191D01*
X139174809Y-100500909D01*
X139191719Y-100505875D01*
X139243362Y-100513300D01*
X139243365Y-100513300D01*
X148893138Y-100513300D01*
X148893139Y-100513300D01*
X148894919Y-100513204D01*
X148912733Y-100512250D01*
X148912758Y-100512247D01*
X148912762Y-100512247D01*
X148917502Y-100511737D01*
X148939091Y-100509416D01*
X149007343Y-100488044D01*
X149068666Y-100454559D01*
X149110432Y-100423294D01*
X149953294Y-99580432D01*
X149966407Y-99565832D01*
X149983041Y-99545190D01*
X150005253Y-99502727D01*
X160794200Y-99502727D01*
X160794200Y-99633273D01*
X160827988Y-99759372D01*
X160893261Y-99872428D01*
X160985572Y-99964739D01*
X161098628Y-100030012D01*
X161224727Y-100063800D01*
X161224729Y-100063800D01*
X161355271Y-100063800D01*
X161355273Y-100063800D01*
X161481372Y-100030012D01*
X161594428Y-99964739D01*
X161686739Y-99872428D01*
X161752012Y-99759372D01*
X161785800Y-99633273D01*
X161785800Y-99502727D01*
X161752012Y-99376628D01*
X161686739Y-99263572D01*
X161594428Y-99171261D01*
X161489066Y-99110430D01*
X161481374Y-99105989D01*
X161481373Y-99105988D01*
X161481372Y-99105988D01*
X161457755Y-99099659D01*
X161457753Y-99099659D01*
X161401081Y-99084474D01*
X161355273Y-99072200D01*
X161355272Y-99072200D01*
X161224727Y-99072200D01*
X161098635Y-99105985D01*
X161098624Y-99105989D01*
X161098623Y-99105990D01*
X160985572Y-99171260D01*
X160985563Y-99171267D01*
X160893267Y-99263563D01*
X160893260Y-99263572D01*
X160827990Y-99376623D01*
X160827989Y-99376624D01*
X160827985Y-99376635D01*
X160799802Y-99481819D01*
X160794200Y-99502727D01*
X150005253Y-99502727D01*
X150016190Y-99481820D01*
X150016191Y-99481818D01*
X150022696Y-99459665D01*
X150029181Y-99437575D01*
X150035875Y-99414781D01*
X150043300Y-99363138D01*
X150043300Y-98740727D01*
X150380200Y-98740727D01*
X150380200Y-98871273D01*
X150413114Y-98994108D01*
X150413988Y-98997371D01*
X150413989Y-98997374D01*
X150414179Y-98997703D01*
X150479261Y-99110428D01*
X150571572Y-99202739D01*
X150684628Y-99268012D01*
X150810727Y-99301800D01*
X150810729Y-99301800D01*
X150941271Y-99301800D01*
X150941273Y-99301800D01*
X151067372Y-99268012D01*
X151180428Y-99202739D01*
X151272739Y-99110428D01*
X151338012Y-98997372D01*
X151371800Y-98871273D01*
X151371800Y-98740727D01*
X152412200Y-98740727D01*
X152412200Y-98871273D01*
X152445114Y-98994108D01*
X152445988Y-98997371D01*
X152445989Y-98997374D01*
X152446179Y-98997703D01*
X152511261Y-99110428D01*
X152603572Y-99202739D01*
X152716628Y-99268012D01*
X152842727Y-99301800D01*
X152842729Y-99301800D01*
X152973271Y-99301800D01*
X152973273Y-99301800D01*
X153099372Y-99268012D01*
X153212428Y-99202739D01*
X153304739Y-99110428D01*
X153370012Y-98997372D01*
X153403800Y-98871273D01*
X153403800Y-98740727D01*
X153370012Y-98614628D01*
X153304739Y-98501572D01*
X153212428Y-98409261D01*
X153137057Y-98365745D01*
X153137056Y-98365744D01*
X153120547Y-98356212D01*
X153120540Y-98356209D01*
X153099374Y-98343989D01*
X153099373Y-98343988D01*
X153099372Y-98343988D01*
X153075756Y-98337660D01*
X153041366Y-98328445D01*
X152973273Y-98310200D01*
X152973272Y-98310200D01*
X152842727Y-98310200D01*
X152716635Y-98343985D01*
X152716624Y-98343989D01*
X152716623Y-98343990D01*
X152603572Y-98409260D01*
X152603563Y-98409267D01*
X152511267Y-98501563D01*
X152511260Y-98501572D01*
X152445990Y-98614623D01*
X152445989Y-98614624D01*
X152445985Y-98614635D01*
X152412200Y-98740727D01*
X151371800Y-98740727D01*
X151338012Y-98614628D01*
X151272739Y-98501572D01*
X151180428Y-98409261D01*
X151105057Y-98365745D01*
X151105056Y-98365744D01*
X151088547Y-98356212D01*
X151088540Y-98356209D01*
X151067374Y-98343989D01*
X151067373Y-98343988D01*
X151067372Y-98343988D01*
X151043756Y-98337660D01*
X151009366Y-98328445D01*
X150941273Y-98310200D01*
X150941272Y-98310200D01*
X150810727Y-98310200D01*
X150684635Y-98343985D01*
X150684624Y-98343989D01*
X150684623Y-98343990D01*
X150571572Y-98409260D01*
X150571563Y-98409267D01*
X150479267Y-98501563D01*
X150479260Y-98501572D01*
X150413990Y-98614623D01*
X150413989Y-98614624D01*
X150413985Y-98614635D01*
X150380200Y-98740727D01*
X150043300Y-98740727D01*
X150043300Y-97978727D01*
X151396200Y-97978727D01*
X151396200Y-98109273D01*
X151429988Y-98235372D01*
X151495261Y-98348428D01*
X151587572Y-98440739D01*
X151700628Y-98506012D01*
X151826727Y-98539800D01*
X151826729Y-98539800D01*
X151957271Y-98539800D01*
X151957273Y-98539800D01*
X152083372Y-98506012D01*
X152196428Y-98440739D01*
X152288739Y-98348428D01*
X152354012Y-98235372D01*
X152387800Y-98109273D01*
X152387800Y-97978727D01*
X152354012Y-97852628D01*
X152288739Y-97739572D01*
X152196428Y-97647261D01*
X152091066Y-97586430D01*
X152083374Y-97581989D01*
X152083373Y-97581988D01*
X152083372Y-97581988D01*
X152059755Y-97575659D01*
X152059753Y-97575659D01*
X152003081Y-97560474D01*
X151957273Y-97548200D01*
X151957272Y-97548200D01*
X151826727Y-97548200D01*
X151700635Y-97581985D01*
X151700624Y-97581989D01*
X151700623Y-97581990D01*
X151587572Y-97647260D01*
X151587563Y-97647267D01*
X151495267Y-97739563D01*
X151495260Y-97739572D01*
X151429990Y-97852623D01*
X151429989Y-97852624D01*
X151429985Y-97852635D01*
X151404225Y-97948776D01*
X151396200Y-97978727D01*
X150043300Y-97978727D01*
X150043300Y-97968362D01*
X150042250Y-97948767D01*
X150039416Y-97922409D01*
X150018044Y-97854157D01*
X149984559Y-97792834D01*
X149953294Y-97751068D01*
X149410520Y-97208294D01*
X149377035Y-97146971D01*
X149382019Y-97077279D01*
X149423891Y-97021346D01*
X149466105Y-97000839D01*
X149536372Y-96982012D01*
X149649428Y-96916739D01*
X149741739Y-96824428D01*
X149807012Y-96711372D01*
X149840800Y-96585273D01*
X149840800Y-96454727D01*
X155206200Y-96454727D01*
X155206200Y-96585273D01*
X155239988Y-96711372D01*
X155305261Y-96824428D01*
X155397572Y-96916739D01*
X155510628Y-96982012D01*
X155636727Y-97015800D01*
X155636729Y-97015800D01*
X155767271Y-97015800D01*
X155767273Y-97015800D01*
X155893372Y-96982012D01*
X156006428Y-96916739D01*
X156098739Y-96824428D01*
X156164012Y-96711372D01*
X156197800Y-96585273D01*
X156197800Y-96454727D01*
X156164012Y-96328628D01*
X156098739Y-96215572D01*
X156006428Y-96123261D01*
X155931057Y-96079745D01*
X155893374Y-96057989D01*
X155893373Y-96057988D01*
X155893372Y-96057988D01*
X155767273Y-96024200D01*
X155767272Y-96024200D01*
X155636727Y-96024200D01*
X155510635Y-96057985D01*
X155510624Y-96057989D01*
X155510623Y-96057990D01*
X155397572Y-96123260D01*
X155397563Y-96123267D01*
X155305267Y-96215563D01*
X155305260Y-96215572D01*
X155239990Y-96328623D01*
X155239989Y-96328624D01*
X155239985Y-96328635D01*
X155208829Y-96444915D01*
X155206200Y-96454727D01*
X149840800Y-96454727D01*
X149807012Y-96328628D01*
X149741739Y-96215572D01*
X149649428Y-96123261D01*
X149574057Y-96079745D01*
X149536374Y-96057989D01*
X149536373Y-96057988D01*
X149536372Y-96057988D01*
X149410273Y-96024200D01*
X149410272Y-96024200D01*
X149279727Y-96024200D01*
X149153635Y-96057985D01*
X149153624Y-96057989D01*
X149153623Y-96057990D01*
X149040572Y-96123260D01*
X149040563Y-96123267D01*
X148948267Y-96215563D01*
X148948260Y-96215572D01*
X148882990Y-96328623D01*
X148882989Y-96328624D01*
X148882985Y-96328635D01*
X148849200Y-96454727D01*
X148849200Y-96474112D01*
X148829515Y-96541151D01*
X148776711Y-96586906D01*
X148707898Y-96596899D01*
X148664931Y-96590844D01*
X148664926Y-96590844D01*
X147381653Y-96594424D01*
X145071754Y-96600868D01*
X145052159Y-96601974D01*
X145052119Y-96601978D01*
X145025825Y-96604881D01*
X145025817Y-96604882D01*
X144957644Y-96626439D01*
X144957634Y-96626443D01*
X144896408Y-96660097D01*
X144854735Y-96691473D01*
X144854732Y-96691475D01*
X144613551Y-96934007D01*
X144493516Y-97054714D01*
X144486135Y-97062136D01*
X144424905Y-97095792D01*
X144398209Y-97098700D01*
X141088592Y-97098700D01*
X141021553Y-97079015D01*
X141019697Y-97077800D01*
X141000280Y-97064825D01*
X140985148Y-97054713D01*
X140921592Y-97025688D01*
X140906664Y-97019649D01*
X140819359Y-97010990D01*
X140750200Y-97020934D01*
X140727167Y-97025285D01*
X140720068Y-97024580D01*
X140713395Y-97027094D01*
X140685760Y-97021175D01*
X140657639Y-97018384D01*
X140650389Y-97013599D01*
X140645075Y-97012461D01*
X140632825Y-97002007D01*
X140616753Y-96991400D01*
X140607299Y-96982006D01*
X140604739Y-96977572D01*
X140512428Y-96885261D01*
X140506472Y-96881822D01*
X140495846Y-96871264D01*
X140482672Y-96847321D01*
X140466556Y-96825248D01*
X140466074Y-96817153D01*
X140462165Y-96810049D01*
X140464027Y-96782781D01*
X140462403Y-96755502D01*
X140465273Y-96745115D01*
X140465508Y-96744387D01*
X140473853Y-96718609D01*
X140478837Y-96648917D01*
X140479279Y-96632822D01*
X140456882Y-96547995D01*
X140456881Y-96547993D01*
X140456880Y-96547990D01*
X140423397Y-96486672D01*
X140392139Y-96444915D01*
X140392137Y-96444912D01*
X140392132Y-96444906D01*
X138849932Y-94902706D01*
X138849922Y-94902697D01*
X138849903Y-94902679D01*
X138835333Y-94889593D01*
X138814691Y-94872960D01*
X138814692Y-94872960D01*
X138814690Y-94872959D01*
X138814686Y-94872957D01*
X138814683Y-94872955D01*
X138751319Y-94839809D01*
X138751318Y-94839808D01*
X138684286Y-94820126D01*
X138684272Y-94820123D01*
X138632641Y-94812700D01*
X138632638Y-94812700D01*
X136957362Y-94812700D01*
X136957361Y-94812700D01*
X136937776Y-94813749D01*
X136937737Y-94813752D01*
X136911413Y-94816583D01*
X136911402Y-94816585D01*
X136843159Y-94837955D01*
X136843158Y-94837955D01*
X136781832Y-94871441D01*
X136740077Y-94902698D01*
X136740062Y-94902711D01*
X136050715Y-95592058D01*
X136050679Y-95592096D01*
X136037593Y-95606666D01*
X136020960Y-95627308D01*
X136020955Y-95627316D01*
X135987809Y-95690680D01*
X135987808Y-95690681D01*
X135968126Y-95757713D01*
X135968123Y-95757727D01*
X135960700Y-95809358D01*
X127740168Y-95809358D01*
X127740168Y-93722858D01*
X127744167Y-93707694D01*
X127743440Y-93694562D01*
X127745189Y-93687931D01*
X127748375Y-93677078D01*
X127754938Y-93666862D01*
X127756302Y-93661695D01*
X127761771Y-93652050D01*
X127764322Y-93649579D01*
X127765322Y-93646174D01*
X127771888Y-93640483D01*
X127786145Y-93618297D01*
X127805978Y-93609237D01*
X127811962Y-93603443D01*
X127815442Y-93602744D01*
X127818126Y-93600419D01*
X127828575Y-93598916D01*
X127849699Y-93589268D01*
X127868850Y-93592019D01*
X127880464Y-93589687D01*
X127883769Y-93590980D01*
X127887284Y-93590475D01*
X127900674Y-93596590D01*
X127918839Y-93599199D01*
X127920967Y-93600171D01*
X127932623Y-93610098D01*
X127945529Y-93615149D01*
X127947611Y-93618025D01*
X127950840Y-93619500D01*
X127972537Y-93644094D01*
X127972651Y-93644191D01*
X127972736Y-93644318D01*
X127978130Y-93652392D01*
X127978134Y-93652397D01*
X128072595Y-93746858D01*
X128072601Y-93746863D01*
X128072605Y-93746867D01*
X128072608Y-93746869D01*
X128072609Y-93746870D01*
X128183704Y-93821102D01*
X128307147Y-93872233D01*
X128339237Y-93878616D01*
X128372220Y-93885177D01*
X128438189Y-93898300D01*
X128438190Y-93898300D01*
X128438193Y-93898300D01*
X129371808Y-93898300D01*
X129371809Y-93898300D01*
X129437777Y-93885177D01*
X129502853Y-93872233D01*
X129626296Y-93821102D01*
X129737391Y-93746870D01*
X129831870Y-93652391D01*
X129906102Y-93541296D01*
X129957233Y-93417853D01*
X129979979Y-93303502D01*
X129983300Y-93286809D01*
X129983300Y-93153188D01*
X129962324Y-93047742D01*
X129958650Y-93029271D01*
X129957233Y-93022147D01*
X129906102Y-92898704D01*
X129906100Y-92898701D01*
X129906100Y-92898700D01*
X129831868Y-92787606D01*
X129831867Y-92787605D01*
X129831862Y-92787599D01*
X129737399Y-92693136D01*
X129737393Y-92693131D01*
X129737392Y-92693130D01*
X129668400Y-92647031D01*
X129626298Y-92618899D01*
X129626296Y-92618898D01*
X129626292Y-92618896D01*
X129502855Y-92567767D01*
X129502828Y-92567761D01*
X129371811Y-92541700D01*
X129371809Y-92541700D01*
X129371807Y-92541700D01*
X128438193Y-92541700D01*
X128438191Y-92541700D01*
X128438187Y-92541700D01*
X128307178Y-92567759D01*
X128307143Y-92567767D01*
X128183706Y-92618896D01*
X128183702Y-92618898D01*
X128072606Y-92693130D01*
X128072605Y-92693131D01*
X128072599Y-92693136D01*
X127978144Y-92787591D01*
X127978127Y-92787610D01*
X127978119Y-92787620D01*
X127977163Y-92789052D01*
X127976813Y-92789367D01*
X127976164Y-92790237D01*
X127976024Y-92790132D01*
X127976023Y-92790135D01*
X127975992Y-92790109D01*
X127966364Y-92798815D01*
X127960761Y-92808809D01*
X127953580Y-92815301D01*
X127944905Y-92822550D01*
X127935667Y-92826570D01*
X127932271Y-92829641D01*
X127922370Y-92834904D01*
X127911269Y-92837188D01*
X127880840Y-92850432D01*
X127861867Y-92847356D01*
X127853935Y-92848989D01*
X127840889Y-92843956D01*
X127811871Y-92839252D01*
X127799205Y-92827873D01*
X127788748Y-92823839D01*
X127777323Y-92808215D01*
X127759895Y-92792558D01*
X127759880Y-92792534D01*
X127758654Y-92790548D01*
X127755006Y-92777694D01*
X127747507Y-92767439D01*
X127746270Y-92746913D01*
X127740168Y-92725412D01*
X127740168Y-85082858D01*
X127745189Y-85047931D01*
X127748375Y-85037078D01*
X127786145Y-84978297D01*
X127849699Y-84949268D01*
X127918854Y-84959206D01*
X127920986Y-84960179D01*
X127972575Y-85004079D01*
X127978129Y-85012391D01*
X127978135Y-85012398D01*
X128072599Y-85106862D01*
X128072605Y-85106867D01*
X128072609Y-85106870D01*
X128183704Y-85181102D01*
X128307147Y-85232233D01*
X128339237Y-85238616D01*
X128372220Y-85245177D01*
X128438189Y-85258300D01*
X128438190Y-85258300D01*
X128438193Y-85258300D01*
X129371808Y-85258300D01*
X129371809Y-85258300D01*
X129437777Y-85245177D01*
X129502853Y-85232233D01*
X129626296Y-85181102D01*
X129737391Y-85106870D01*
X129831870Y-85012391D01*
X129906102Y-84901296D01*
X129957233Y-84777853D01*
X129958193Y-84773031D01*
X129974060Y-84693261D01*
X129974060Y-84693259D01*
X129983300Y-84646810D01*
X129983300Y-84513188D01*
X129960476Y-84398451D01*
X129957609Y-84384038D01*
X129957316Y-84382435D01*
X129957234Y-84382150D01*
X129955693Y-84378430D01*
X129906102Y-84258704D01*
X129906101Y-84258702D01*
X129906100Y-84258700D01*
X129831868Y-84147606D01*
X129831867Y-84147605D01*
X129831862Y-84147599D01*
X129737399Y-84053136D01*
X129737393Y-84053131D01*
X129737392Y-84053130D01*
X129636837Y-83985941D01*
X129626298Y-83978899D01*
X129626296Y-83978898D01*
X129626292Y-83978896D01*
X129502855Y-83927767D01*
X129502828Y-83927761D01*
X129371811Y-83901700D01*
X129371809Y-83901700D01*
X129371807Y-83901700D01*
X128438193Y-83901700D01*
X128438191Y-83901700D01*
X128438187Y-83901700D01*
X128307178Y-83927759D01*
X128307143Y-83927767D01*
X128183706Y-83978896D01*
X128183702Y-83978898D01*
X128072606Y-84053130D01*
X128072605Y-84053131D01*
X128072599Y-84053136D01*
X127978144Y-84147591D01*
X127978127Y-84147610D01*
X127978119Y-84147620D01*
X127977163Y-84149052D01*
X127976813Y-84149367D01*
X127976164Y-84150237D01*
X127976024Y-84150132D01*
X127976023Y-84150135D01*
X127975992Y-84150109D01*
X127966364Y-84158815D01*
X127960761Y-84168809D01*
X127953580Y-84175301D01*
X127944905Y-84182550D01*
X127935667Y-84186570D01*
X127932271Y-84189641D01*
X127922370Y-84194904D01*
X127911269Y-84197188D01*
X127880840Y-84210432D01*
X127861867Y-84207356D01*
X127853935Y-84208989D01*
X127840889Y-84203956D01*
X127811871Y-84199252D01*
X127799205Y-84187873D01*
X127788748Y-84183839D01*
X127777323Y-84168215D01*
X127759895Y-84152558D01*
X127759880Y-84152534D01*
X127758654Y-84150548D01*
X127755006Y-84137694D01*
X127747507Y-84127439D01*
X127746270Y-84106913D01*
X127740168Y-84085412D01*
X127740168Y-83617358D01*
X130626700Y-83617358D01*
X130626700Y-91388639D01*
X130627749Y-91408223D01*
X130627752Y-91408262D01*
X130630583Y-91434586D01*
X130630585Y-91434597D01*
X130651955Y-91502840D01*
X130651955Y-91502841D01*
X130685441Y-91564167D01*
X130716698Y-91605922D01*
X130716701Y-91605926D01*
X130716706Y-91605932D01*
X131660068Y-92549294D01*
X131660076Y-92549301D01*
X131660096Y-92549320D01*
X131674666Y-92562406D01*
X131687292Y-92572579D01*
X131695310Y-92579041D01*
X131695316Y-92579044D01*
X131758680Y-92612190D01*
X131758681Y-92612191D01*
X131808809Y-92626909D01*
X131825719Y-92631875D01*
X131877362Y-92639300D01*
X131877372Y-92639300D01*
X131881782Y-92639616D01*
X131881669Y-92641188D01*
X131942277Y-92658985D01*
X131988032Y-92711789D01*
X131997976Y-92780947D01*
X131978340Y-92832191D01*
X131933898Y-92898702D01*
X131933896Y-92898706D01*
X131882767Y-93022143D01*
X131882761Y-93022170D01*
X131856700Y-93153187D01*
X131856700Y-93242440D01*
X131851437Y-93260360D01*
X131882760Y-93417824D01*
X131882763Y-93417838D01*
X131882765Y-93417846D01*
X131882767Y-93417853D01*
X131882766Y-93417853D01*
X131924244Y-93517989D01*
X131933898Y-93541296D01*
X131933899Y-93541298D01*
X131941726Y-93553012D01*
X132008130Y-93652392D01*
X132008131Y-93652393D01*
X132008136Y-93652399D01*
X132102595Y-93746858D01*
X132102601Y-93746863D01*
X132102605Y-93746867D01*
X132102608Y-93746869D01*
X132102609Y-93746870D01*
X132213704Y-93821102D01*
X132337147Y-93872233D01*
X132369237Y-93878616D01*
X132402220Y-93885177D01*
X132468189Y-93898300D01*
X132468190Y-93898300D01*
X132468193Y-93898300D01*
X133701808Y-93898300D01*
X133701809Y-93898300D01*
X133767777Y-93885177D01*
X133832853Y-93872233D01*
X133889602Y-93848727D01*
X139712200Y-93848727D01*
X139712200Y-93979273D01*
X139745988Y-94105372D01*
X139811261Y-94218428D01*
X139903572Y-94310739D01*
X140016628Y-94376012D01*
X140142727Y-94409800D01*
X140142729Y-94409800D01*
X140273271Y-94409800D01*
X140273273Y-94409800D01*
X140399372Y-94376012D01*
X140512428Y-94310739D01*
X140604739Y-94218428D01*
X140670012Y-94105372D01*
X140703800Y-93979273D01*
X140703800Y-93914727D01*
X141998200Y-93914727D01*
X141998200Y-94045273D01*
X142031988Y-94171372D01*
X142097261Y-94284428D01*
X142189572Y-94376739D01*
X142302628Y-94442012D01*
X142428727Y-94475800D01*
X142428729Y-94475800D01*
X142559271Y-94475800D01*
X142559273Y-94475800D01*
X142685372Y-94442012D01*
X142718775Y-94422727D01*
X150126200Y-94422727D01*
X150126200Y-94553273D01*
X150159988Y-94679372D01*
X150225261Y-94792428D01*
X150317572Y-94884739D01*
X150430628Y-94950012D01*
X150556727Y-94983800D01*
X150556729Y-94983800D01*
X150687271Y-94983800D01*
X150687273Y-94983800D01*
X150813372Y-94950012D01*
X150926428Y-94884739D01*
X151018739Y-94792428D01*
X151084012Y-94679372D01*
X151117800Y-94553273D01*
X151117800Y-94422727D01*
X151084012Y-94296628D01*
X151018739Y-94183572D01*
X150926428Y-94091261D01*
X150819533Y-94029545D01*
X150813374Y-94025989D01*
X150813373Y-94025988D01*
X150813372Y-94025988D01*
X150687273Y-93992200D01*
X150687272Y-93992200D01*
X150556727Y-93992200D01*
X150430635Y-94025985D01*
X150430624Y-94025989D01*
X150430623Y-94025990D01*
X150317572Y-94091260D01*
X150317563Y-94091267D01*
X150225267Y-94183563D01*
X150225260Y-94183572D01*
X150159990Y-94296623D01*
X150159989Y-94296624D01*
X150159985Y-94296635D01*
X150138717Y-94376011D01*
X150126200Y-94422727D01*
X142718775Y-94422727D01*
X142798428Y-94376739D01*
X142890739Y-94284428D01*
X142956012Y-94171372D01*
X142989800Y-94045273D01*
X142989800Y-93914727D01*
X142956012Y-93788628D01*
X142890739Y-93675572D01*
X142798428Y-93583261D01*
X142723057Y-93539745D01*
X142685374Y-93517989D01*
X142685373Y-93517988D01*
X142685372Y-93517988D01*
X142559273Y-93484200D01*
X142559272Y-93484200D01*
X142428727Y-93484200D01*
X142302635Y-93517985D01*
X142302624Y-93517989D01*
X142302623Y-93517990D01*
X142189572Y-93583260D01*
X142189563Y-93583267D01*
X142097267Y-93675563D01*
X142097260Y-93675572D01*
X142031990Y-93788623D01*
X142031989Y-93788624D01*
X142031985Y-93788635D01*
X141998200Y-93914727D01*
X140703800Y-93914727D01*
X140703800Y-93848727D01*
X140670012Y-93722628D01*
X140604739Y-93609572D01*
X140512428Y-93517261D01*
X140461296Y-93487740D01*
X140399374Y-93451989D01*
X140399373Y-93451988D01*
X140399372Y-93451988D01*
X140273273Y-93418200D01*
X140273272Y-93418200D01*
X140142727Y-93418200D01*
X140016635Y-93451985D01*
X140016624Y-93451989D01*
X140016623Y-93451990D01*
X139903572Y-93517260D01*
X139903563Y-93517267D01*
X139811267Y-93609563D01*
X139811260Y-93609572D01*
X139745990Y-93722623D01*
X139745989Y-93722624D01*
X139745985Y-93722635D01*
X139719602Y-93821101D01*
X139712200Y-93848727D01*
X133889602Y-93848727D01*
X133956296Y-93821102D01*
X134067391Y-93746870D01*
X134161870Y-93652391D01*
X134236102Y-93541296D01*
X134287233Y-93417853D01*
X134309979Y-93303502D01*
X134313300Y-93286809D01*
X134313300Y-93153188D01*
X134301274Y-93092733D01*
X134291141Y-93041792D01*
X134291141Y-93041791D01*
X134287946Y-93025727D01*
X138061200Y-93025727D01*
X138061200Y-93156273D01*
X138069782Y-93188300D01*
X138089527Y-93261991D01*
X138089529Y-93261996D01*
X138091253Y-93268430D01*
X138094988Y-93282371D01*
X138094989Y-93282374D01*
X138097550Y-93286809D01*
X138102346Y-93295117D01*
X138102347Y-93295118D01*
X138160258Y-93395424D01*
X138160260Y-93395427D01*
X138160261Y-93395428D01*
X138252572Y-93487739D01*
X138365628Y-93553012D01*
X138491727Y-93586800D01*
X138491729Y-93586800D01*
X138622271Y-93586800D01*
X138622273Y-93586800D01*
X138748372Y-93553012D01*
X138861428Y-93487739D01*
X138953739Y-93395428D01*
X139019012Y-93282372D01*
X139052800Y-93156273D01*
X139052800Y-93025727D01*
X139019012Y-92899628D01*
X139018492Y-92898727D01*
X149103200Y-92898727D01*
X149103200Y-93029273D01*
X149106553Y-93041785D01*
X149134371Y-93145606D01*
X149134373Y-93145611D01*
X149136404Y-93153190D01*
X149136988Y-93155371D01*
X149136989Y-93155374D01*
X149137508Y-93156273D01*
X149202261Y-93268428D01*
X149294572Y-93360739D01*
X149407628Y-93426012D01*
X149533727Y-93459800D01*
X149533729Y-93459800D01*
X149664271Y-93459800D01*
X149664273Y-93459800D01*
X149790372Y-93426012D01*
X149903428Y-93360739D01*
X149995739Y-93268428D01*
X150061012Y-93155372D01*
X150094800Y-93029273D01*
X150094800Y-92898727D01*
X150061012Y-92772628D01*
X150048501Y-92750958D01*
X169695801Y-92750958D01*
X169734297Y-92894621D01*
X169741507Y-92907110D01*
X169741531Y-92907149D01*
X169797262Y-93003679D01*
X169797264Y-93003682D01*
X169797265Y-93003683D01*
X169886317Y-93092735D01*
X169995383Y-93155704D01*
X170117031Y-93188300D01*
X170117034Y-93188300D01*
X170242966Y-93188300D01*
X170242969Y-93188300D01*
X170364617Y-93155704D01*
X170473683Y-93092735D01*
X170562735Y-93003683D01*
X170625704Y-92894617D01*
X170658300Y-92772969D01*
X170658300Y-92647031D01*
X170625704Y-92525383D01*
X170562735Y-92416317D01*
X170473683Y-92327265D01*
X170473682Y-92327264D01*
X170473679Y-92327262D01*
X170377145Y-92271529D01*
X170377113Y-92271509D01*
X170364619Y-92264296D01*
X170313186Y-92250515D01*
X170308178Y-92249173D01*
X170242969Y-92231700D01*
X170242967Y-92231700D01*
X170117032Y-92231700D01*
X170117031Y-92231700D01*
X170046825Y-92250512D01*
X169995381Y-92264296D01*
X169995380Y-92264297D01*
X169971635Y-92278005D01*
X169971632Y-92278007D01*
X169886320Y-92327261D01*
X169886316Y-92327265D01*
X169886306Y-92327273D01*
X169797273Y-92416306D01*
X169797267Y-92416313D01*
X169797262Y-92416319D01*
X169797261Y-92416320D01*
X169747742Y-92502091D01*
X169747740Y-92502094D01*
X169734297Y-92525380D01*
X169734296Y-92525381D01*
X169722939Y-92567767D01*
X169721466Y-92573263D01*
X169721462Y-92573275D01*
X169701700Y-92647031D01*
X169701700Y-92730872D01*
X169695801Y-92750958D01*
X150048501Y-92750958D01*
X149995739Y-92659572D01*
X149903428Y-92567261D01*
X149828057Y-92523745D01*
X149790374Y-92501989D01*
X149790373Y-92501988D01*
X149790372Y-92501988D01*
X149664273Y-92468200D01*
X149664272Y-92468200D01*
X149533727Y-92468200D01*
X149407635Y-92501985D01*
X149407624Y-92501989D01*
X149407623Y-92501990D01*
X149294572Y-92567260D01*
X149294563Y-92567267D01*
X149202267Y-92659563D01*
X149202260Y-92659572D01*
X149136990Y-92772623D01*
X149136989Y-92772624D01*
X149136985Y-92772635D01*
X149104301Y-92894617D01*
X149103200Y-92898727D01*
X139018492Y-92898727D01*
X138953739Y-92786572D01*
X138861428Y-92694261D01*
X138753374Y-92631876D01*
X138748374Y-92628989D01*
X138748373Y-92628988D01*
X138748372Y-92628988D01*
X138622273Y-92595200D01*
X138622272Y-92595200D01*
X138491727Y-92595200D01*
X138365635Y-92628985D01*
X138365624Y-92628989D01*
X138365623Y-92628990D01*
X138252572Y-92694260D01*
X138252563Y-92694267D01*
X138160267Y-92786563D01*
X138160260Y-92786572D01*
X138095160Y-92899327D01*
X138095159Y-92899330D01*
X138094989Y-92899625D01*
X138094989Y-92899626D01*
X138094988Y-92899628D01*
X138061200Y-93025727D01*
X134287946Y-93025727D01*
X134287235Y-93022155D01*
X134287232Y-93022145D01*
X134246038Y-92922693D01*
X134236102Y-92898704D01*
X134189678Y-92829226D01*
X134187877Y-92826164D01*
X134180198Y-92795591D01*
X134170781Y-92765514D01*
X134171754Y-92761966D01*
X134170858Y-92758398D01*
X134180926Y-92728530D01*
X134189265Y-92698134D01*
X134192002Y-92695675D01*
X134193177Y-92692190D01*
X134217791Y-92672509D01*
X134241244Y-92651443D01*
X134245287Y-92650525D01*
X134247748Y-92648558D01*
X134259180Y-92647373D01*
X134294761Y-92639300D01*
X134695639Y-92639300D01*
X134697821Y-92639183D01*
X134715233Y-92638250D01*
X134715258Y-92638247D01*
X134715262Y-92638247D01*
X134720002Y-92637737D01*
X134741591Y-92635416D01*
X134809843Y-92614044D01*
X134871166Y-92580559D01*
X134912932Y-92549294D01*
X135602294Y-91859932D01*
X135615407Y-91845332D01*
X135632041Y-91824690D01*
X135665190Y-91761320D01*
X135684875Y-91694281D01*
X135692300Y-91642638D01*
X135692300Y-91540958D01*
X139342801Y-91540958D01*
X139381297Y-91684621D01*
X139388507Y-91697110D01*
X139388531Y-91697149D01*
X139444262Y-91793679D01*
X139444264Y-91793682D01*
X139444265Y-91793683D01*
X139533317Y-91882735D01*
X139642383Y-91945704D01*
X139764031Y-91978300D01*
X139764034Y-91978300D01*
X139889966Y-91978300D01*
X139889969Y-91978300D01*
X140011617Y-91945704D01*
X140120683Y-91882735D01*
X140209735Y-91793683D01*
X140272704Y-91684617D01*
X140305300Y-91562969D01*
X140305300Y-91437031D01*
X140272704Y-91315383D01*
X140245479Y-91268227D01*
X167652200Y-91268227D01*
X167652200Y-91398773D01*
X167685988Y-91524872D01*
X167751261Y-91637928D01*
X167843572Y-91730239D01*
X167956628Y-91795512D01*
X168082727Y-91829300D01*
X168082729Y-91829300D01*
X168213271Y-91829300D01*
X168213273Y-91829300D01*
X168339372Y-91795512D01*
X168452428Y-91730239D01*
X168544739Y-91637928D01*
X168610012Y-91524872D01*
X168643800Y-91398773D01*
X168643800Y-91268227D01*
X168610012Y-91142128D01*
X168544739Y-91029072D01*
X168452428Y-90936761D01*
X168377057Y-90893245D01*
X168339374Y-90871489D01*
X168339373Y-90871488D01*
X168339372Y-90871488D01*
X168213273Y-90837700D01*
X168213272Y-90837700D01*
X168082727Y-90837700D01*
X167956635Y-90871485D01*
X167956624Y-90871489D01*
X167956623Y-90871490D01*
X167843572Y-90936760D01*
X167843563Y-90936767D01*
X167751267Y-91029063D01*
X167751260Y-91029072D01*
X167685990Y-91142123D01*
X167685989Y-91142124D01*
X167685985Y-91142135D01*
X167658954Y-91243020D01*
X167652200Y-91268227D01*
X140245479Y-91268227D01*
X140233972Y-91248297D01*
X140230925Y-91243020D01*
X140209740Y-91206325D01*
X140209736Y-91206319D01*
X140209733Y-91206315D01*
X140209731Y-91206313D01*
X140209725Y-91206306D01*
X140120692Y-91117273D01*
X140120685Y-91117267D01*
X140120679Y-91117262D01*
X140098884Y-91104679D01*
X140011619Y-91054297D01*
X140011618Y-91054296D01*
X139981205Y-91046147D01*
X139974847Y-91044443D01*
X139974841Y-91044441D01*
X139912434Y-91027719D01*
X139889969Y-91021700D01*
X139889968Y-91021700D01*
X139764029Y-91021700D01*
X139691040Y-91041257D01*
X139691039Y-91041256D01*
X139642380Y-91054295D01*
X139628242Y-91062457D01*
X139628243Y-91062458D01*
X139555114Y-91104679D01*
X139536430Y-91115465D01*
X139536431Y-91115466D01*
X139533311Y-91117267D01*
X139531590Y-91118589D01*
X139529882Y-91119249D01*
X139526294Y-91121322D01*
X139525970Y-91120761D01*
X139466421Y-91143781D01*
X139439714Y-91138302D01*
X139440443Y-91153592D01*
X139445890Y-91177261D01*
X139442164Y-91189677D01*
X139442615Y-91199124D01*
X139429499Y-91231891D01*
X139424073Y-91241290D01*
X139424070Y-91241294D01*
X139381295Y-91315381D01*
X139381296Y-91315381D01*
X139381296Y-91315382D01*
X139348700Y-91437031D01*
X139348700Y-91520872D01*
X139342801Y-91540958D01*
X135692300Y-91540958D01*
X135692300Y-90612727D01*
X138442200Y-90612727D01*
X138442200Y-90743273D01*
X138475988Y-90869372D01*
X138541261Y-90982428D01*
X138633572Y-91074739D01*
X138746628Y-91140012D01*
X138872727Y-91173800D01*
X138872729Y-91173800D01*
X139003271Y-91173800D01*
X139003273Y-91173800D01*
X139129372Y-91140012D01*
X139242428Y-91074739D01*
X139242439Y-91074727D01*
X139246616Y-91071524D01*
X139257127Y-91067459D01*
X139265284Y-91059682D01*
X139289132Y-91055084D01*
X139311784Y-91046326D01*
X139322823Y-91048589D01*
X139333891Y-91046456D01*
X139340685Y-91049175D01*
X139332327Y-91012834D01*
X139348718Y-90958214D01*
X139400012Y-90869372D01*
X139433800Y-90743273D01*
X139433800Y-90612727D01*
X145554200Y-90612727D01*
X145554200Y-90743273D01*
X145587988Y-90869372D01*
X145653261Y-90982428D01*
X145745572Y-91074739D01*
X145858628Y-91140012D01*
X145984727Y-91173800D01*
X145984729Y-91173800D01*
X146115271Y-91173800D01*
X146115273Y-91173800D01*
X146241372Y-91140012D01*
X146354428Y-91074739D01*
X146446739Y-90982428D01*
X146512012Y-90869372D01*
X146545800Y-90743273D01*
X146545800Y-90612727D01*
X174764200Y-90612727D01*
X174764200Y-90743273D01*
X174797988Y-90869372D01*
X174863261Y-90982428D01*
X174955572Y-91074739D01*
X175068628Y-91140012D01*
X175194727Y-91173800D01*
X175194729Y-91173800D01*
X175325271Y-91173800D01*
X175325273Y-91173800D01*
X175451372Y-91140012D01*
X175564428Y-91074739D01*
X175656739Y-90982428D01*
X175722012Y-90869372D01*
X175755800Y-90743273D01*
X175755800Y-90612727D01*
X175722012Y-90486628D01*
X175656739Y-90373572D01*
X175564428Y-90281261D01*
X175489057Y-90237745D01*
X175451374Y-90215989D01*
X175451373Y-90215988D01*
X175451372Y-90215988D01*
X175325273Y-90182200D01*
X175325272Y-90182200D01*
X175194727Y-90182200D01*
X175068635Y-90215985D01*
X175068624Y-90215989D01*
X175068623Y-90215990D01*
X174955572Y-90281260D01*
X174955563Y-90281267D01*
X174863267Y-90373563D01*
X174863260Y-90373572D01*
X174797990Y-90486623D01*
X174797989Y-90486624D01*
X174797985Y-90486635D01*
X174764200Y-90612727D01*
X146545800Y-90612727D01*
X146512012Y-90486628D01*
X146446739Y-90373572D01*
X146354428Y-90281261D01*
X146279057Y-90237745D01*
X146241374Y-90215989D01*
X146241373Y-90215988D01*
X146241372Y-90215988D01*
X146115273Y-90182200D01*
X146115272Y-90182200D01*
X145984727Y-90182200D01*
X145858635Y-90215985D01*
X145858624Y-90215989D01*
X145858623Y-90215990D01*
X145745572Y-90281260D01*
X145745563Y-90281267D01*
X145653267Y-90373563D01*
X145653260Y-90373572D01*
X145587990Y-90486623D01*
X145587989Y-90486624D01*
X145587985Y-90486635D01*
X145554200Y-90612727D01*
X139433800Y-90612727D01*
X139400012Y-90486628D01*
X139334739Y-90373572D01*
X139242428Y-90281261D01*
X139167057Y-90237745D01*
X139129374Y-90215989D01*
X139129373Y-90215988D01*
X139129372Y-90215988D01*
X139003273Y-90182200D01*
X139003272Y-90182200D01*
X138872727Y-90182200D01*
X138746635Y-90215985D01*
X138746624Y-90215989D01*
X138746623Y-90215990D01*
X138633572Y-90281260D01*
X138633563Y-90281267D01*
X138541267Y-90373563D01*
X138541260Y-90373572D01*
X138475990Y-90486623D01*
X138475989Y-90486624D01*
X138475985Y-90486635D01*
X138442200Y-90612727D01*
X135692300Y-90612727D01*
X135692300Y-89827300D01*
X135688111Y-89788335D01*
X135676905Y-89736824D01*
X135676239Y-89733880D01*
X135673078Y-89727694D01*
X135668669Y-89704358D01*
X135659987Y-89682249D01*
X135662300Y-89670655D01*
X135660106Y-89659040D01*
X135669014Y-89637022D01*
X135673663Y-89613731D01*
X135684279Y-89599291D01*
X135685317Y-89596727D01*
X161302200Y-89596727D01*
X161302200Y-89727273D01*
X161335988Y-89853372D01*
X161401261Y-89966428D01*
X161493572Y-90058739D01*
X161606628Y-90124012D01*
X161732727Y-90157800D01*
X161732729Y-90157800D01*
X161863271Y-90157800D01*
X161863273Y-90157800D01*
X161989372Y-90124012D01*
X162102428Y-90058739D01*
X162194739Y-89966428D01*
X162260012Y-89853372D01*
X162293800Y-89727273D01*
X162293800Y-89596727D01*
X162260012Y-89470628D01*
X162194739Y-89357572D01*
X162102428Y-89265261D01*
X162027057Y-89221745D01*
X161989374Y-89199989D01*
X161989373Y-89199988D01*
X161989372Y-89199988D01*
X161863273Y-89166200D01*
X161863272Y-89166200D01*
X161732727Y-89166200D01*
X161606635Y-89199985D01*
X161606624Y-89199989D01*
X161606623Y-89199990D01*
X161493572Y-89265260D01*
X161493563Y-89265267D01*
X161401267Y-89357563D01*
X161401260Y-89357572D01*
X161335990Y-89470623D01*
X161335989Y-89470624D01*
X161335985Y-89470635D01*
X161305311Y-89585117D01*
X161302200Y-89596727D01*
X135685317Y-89596727D01*
X135686311Y-89594271D01*
X135694325Y-89585117D01*
X135695010Y-89584407D01*
X135760735Y-89518683D01*
X135823704Y-89409617D01*
X135856300Y-89287969D01*
X135856300Y-89162031D01*
X135823704Y-89040383D01*
X135760735Y-88931317D01*
X135695789Y-88866371D01*
X135688248Y-88852562D01*
X135676747Y-88841826D01*
X135671847Y-88822524D01*
X135662304Y-88805048D01*
X135663426Y-88789354D01*
X135659555Y-88774105D01*
X135664493Y-88743753D01*
X135665188Y-88741384D01*
X135665190Y-88741382D01*
X135684875Y-88674343D01*
X135692300Y-88622700D01*
X135692300Y-88495336D01*
X135696788Y-88480048D01*
X135696293Y-88464123D01*
X135706430Y-88447213D01*
X135711985Y-88428297D01*
X135724025Y-88417863D01*
X135732219Y-88404197D01*
X135749890Y-88395451D01*
X135764789Y-88382542D01*
X135774451Y-88381152D01*
X135767488Y-88380320D01*
X135767008Y-88379924D01*
X135854753Y-88379924D01*
X135864274Y-88380992D01*
X135879568Y-88393432D01*
X135897503Y-88401623D01*
X135906766Y-88415555D01*
X135918477Y-88425081D01*
X135930647Y-88451471D01*
X135934132Y-88456713D01*
X135935189Y-88459940D01*
X135963462Y-88565452D01*
X135963463Y-88565453D01*
X136026428Y-88674513D01*
X136026430Y-88674516D01*
X136026431Y-88674517D01*
X136115483Y-88763569D01*
X136224549Y-88826538D01*
X136346197Y-88859134D01*
X136346200Y-88859134D01*
X136472132Y-88859134D01*
X136472135Y-88859134D01*
X136593783Y-88826538D01*
X136702849Y-88763569D01*
X136791901Y-88674517D01*
X136854870Y-88565451D01*
X136887466Y-88443803D01*
X136887466Y-88317865D01*
X136854870Y-88196217D01*
X136829472Y-88152227D01*
X147314743Y-88152227D01*
X147314743Y-88282773D01*
X147348531Y-88408872D01*
X147413804Y-88521928D01*
X147506115Y-88614239D01*
X147619171Y-88679512D01*
X147745270Y-88713300D01*
X147745272Y-88713300D01*
X147875814Y-88713300D01*
X147875816Y-88713300D01*
X148001915Y-88679512D01*
X148114971Y-88614239D01*
X148207282Y-88521928D01*
X148272555Y-88408872D01*
X148306343Y-88282773D01*
X148306343Y-88152227D01*
X148272555Y-88026128D01*
X148207282Y-87913072D01*
X148114971Y-87820761D01*
X148039600Y-87777245D01*
X148039599Y-87777244D01*
X148023090Y-87767712D01*
X148023083Y-87767709D01*
X148001917Y-87755489D01*
X148001916Y-87755488D01*
X148001915Y-87755488D01*
X147978299Y-87749160D01*
X147943909Y-87739945D01*
X147875816Y-87721700D01*
X147875815Y-87721700D01*
X147745270Y-87721700D01*
X147619178Y-87755485D01*
X147619167Y-87755489D01*
X147619166Y-87755490D01*
X147506115Y-87820760D01*
X147506106Y-87820767D01*
X147413810Y-87913063D01*
X147413803Y-87913072D01*
X147348533Y-88026123D01*
X147348532Y-88026124D01*
X147348528Y-88026135D01*
X147332179Y-88087153D01*
X147314743Y-88152227D01*
X136829472Y-88152227D01*
X136791901Y-88087151D01*
X136702849Y-87998099D01*
X136702848Y-87998098D01*
X136702845Y-87998096D01*
X136606311Y-87942363D01*
X136606279Y-87942343D01*
X136593785Y-87935130D01*
X136563371Y-87926981D01*
X136563370Y-87926980D01*
X136496581Y-87909084D01*
X136472135Y-87902534D01*
X136472134Y-87902534D01*
X136346195Y-87902534D01*
X136273206Y-87922091D01*
X136273205Y-87922090D01*
X136224546Y-87935129D01*
X136210419Y-87943285D01*
X136210404Y-87943296D01*
X136115486Y-87998095D01*
X136115482Y-87998099D01*
X136115472Y-87998107D01*
X136026439Y-88087140D01*
X136026433Y-88087147D01*
X136026428Y-88087153D01*
X136026427Y-88087154D01*
X135977400Y-88172073D01*
X135977399Y-88172075D01*
X135963463Y-88196214D01*
X135963462Y-88196215D01*
X135947164Y-88257041D01*
X135945943Y-88261595D01*
X135945941Y-88261603D01*
X135936075Y-88298425D01*
X135899710Y-88358086D01*
X135854753Y-88379924D01*
X135767008Y-88379924D01*
X135713610Y-88335835D01*
X135692335Y-88269283D01*
X135692300Y-88266332D01*
X135692300Y-87416958D01*
X138453801Y-87416958D01*
X138492297Y-87560621D01*
X138499507Y-87573110D01*
X138499531Y-87573149D01*
X138555262Y-87669679D01*
X138555264Y-87669682D01*
X138555265Y-87669683D01*
X138644317Y-87758735D01*
X138644318Y-87758736D01*
X138644320Y-87758737D01*
X138676377Y-87777245D01*
X138753383Y-87821704D01*
X138875031Y-87854300D01*
X138875034Y-87854300D01*
X139000966Y-87854300D01*
X139000969Y-87854300D01*
X139122617Y-87821704D01*
X139231683Y-87758735D01*
X139320735Y-87669683D01*
X139383704Y-87560617D01*
X139416300Y-87438969D01*
X139416300Y-87313031D01*
X139383704Y-87191383D01*
X139320735Y-87082317D01*
X139231683Y-86993265D01*
X139231682Y-86993264D01*
X139231679Y-86993262D01*
X139135145Y-86937529D01*
X139135113Y-86937509D01*
X139122619Y-86930296D01*
X139092205Y-86922147D01*
X139092204Y-86922146D01*
X139025415Y-86904250D01*
X139000969Y-86897700D01*
X139000968Y-86897700D01*
X138875029Y-86897700D01*
X138802040Y-86917257D01*
X138802039Y-86917256D01*
X138753380Y-86930295D01*
X138739253Y-86938451D01*
X138739238Y-86938462D01*
X138644320Y-86993261D01*
X138644316Y-86993265D01*
X138644306Y-86993273D01*
X138555273Y-87082306D01*
X138555267Y-87082313D01*
X138555262Y-87082319D01*
X138555261Y-87082320D01*
X138500462Y-87177238D01*
X138500453Y-87177251D01*
X138492296Y-87191380D01*
X138475998Y-87252206D01*
X138459700Y-87313031D01*
X138459700Y-87396872D01*
X138453801Y-87416958D01*
X135692300Y-87416958D01*
X135692300Y-86131458D01*
X166139801Y-86131458D01*
X166178297Y-86275121D01*
X166185507Y-86287610D01*
X166185531Y-86287649D01*
X166241262Y-86384179D01*
X166241264Y-86384182D01*
X166241265Y-86384183D01*
X166330317Y-86473235D01*
X166439383Y-86536204D01*
X166561031Y-86568800D01*
X166561034Y-86568800D01*
X166686966Y-86568800D01*
X166686969Y-86568800D01*
X166808617Y-86536204D01*
X166917683Y-86473235D01*
X167006735Y-86384183D01*
X167069704Y-86275117D01*
X167102300Y-86153469D01*
X167102300Y-86027531D01*
X167069704Y-85905883D01*
X167006735Y-85796817D01*
X166917683Y-85707765D01*
X166917682Y-85707764D01*
X166917679Y-85707762D01*
X166821145Y-85652029D01*
X166821113Y-85652009D01*
X166808619Y-85644796D01*
X166778205Y-85636647D01*
X166778204Y-85636646D01*
X166711415Y-85618750D01*
X166686969Y-85612200D01*
X166686968Y-85612200D01*
X166561029Y-85612200D01*
X166488040Y-85631757D01*
X166488039Y-85631756D01*
X166439380Y-85644795D01*
X166425253Y-85652951D01*
X166425238Y-85652962D01*
X166330320Y-85707761D01*
X166330316Y-85707765D01*
X166330306Y-85707773D01*
X166241273Y-85796806D01*
X166241267Y-85796813D01*
X166241262Y-85796819D01*
X166241261Y-85796820D01*
X166186462Y-85891738D01*
X166186453Y-85891751D01*
X166178296Y-85905880D01*
X166161998Y-85966706D01*
X166145700Y-86027531D01*
X166145700Y-86111372D01*
X166139801Y-86131458D01*
X135692300Y-86131458D01*
X135692300Y-85426310D01*
X135691664Y-85411077D01*
X135691664Y-85411068D01*
X135689947Y-85390505D01*
X135689943Y-85390492D01*
X135688948Y-85384877D01*
X135690119Y-85384669D01*
X135691254Y-85320883D01*
X135730069Y-85262786D01*
X135747586Y-85250544D01*
X135802683Y-85218735D01*
X135891735Y-85129683D01*
X135952331Y-85024727D01*
X143268200Y-85024727D01*
X143268200Y-85155273D01*
X143275121Y-85181101D01*
X143295806Y-85258300D01*
X143297634Y-85265120D01*
X143301988Y-85281371D01*
X143301989Y-85281374D01*
X143302179Y-85281703D01*
X143307600Y-85291092D01*
X143307601Y-85291095D01*
X143343332Y-85352982D01*
X143367261Y-85394428D01*
X143459572Y-85486739D01*
X143572628Y-85552012D01*
X143698727Y-85585800D01*
X143698729Y-85585800D01*
X143829271Y-85585800D01*
X143829273Y-85585800D01*
X143955372Y-85552012D01*
X144068428Y-85486739D01*
X144160739Y-85394428D01*
X144226012Y-85281372D01*
X144259800Y-85155273D01*
X144259800Y-85024727D01*
X144226012Y-84898628D01*
X144213501Y-84876958D01*
X161059801Y-84876958D01*
X161085085Y-84971316D01*
X161098294Y-85020612D01*
X161098297Y-85020621D01*
X161105507Y-85033110D01*
X161105531Y-85033149D01*
X161161262Y-85129679D01*
X161161264Y-85129682D01*
X161161265Y-85129683D01*
X161171483Y-85139901D01*
X161250317Y-85218735D01*
X161251013Y-85219237D01*
X161253539Y-85220596D01*
X161273694Y-85232232D01*
X161273696Y-85232233D01*
X161359383Y-85281704D01*
X161481031Y-85314300D01*
X161481034Y-85314300D01*
X161606966Y-85314300D01*
X161606969Y-85314300D01*
X161728617Y-85281704D01*
X161837683Y-85218735D01*
X161926735Y-85129683D01*
X161982201Y-85033613D01*
X172799700Y-85033613D01*
X172799700Y-85146387D01*
X172828888Y-85255318D01*
X172885275Y-85352983D01*
X172965017Y-85432725D01*
X173062682Y-85489112D01*
X173171613Y-85518300D01*
X173171615Y-85518300D01*
X173284384Y-85518300D01*
X173284387Y-85518300D01*
X173393318Y-85489112D01*
X173490983Y-85432725D01*
X173570725Y-85352983D01*
X173627112Y-85255318D01*
X173656300Y-85146387D01*
X173656300Y-85033613D01*
X173627112Y-84924682D01*
X173570725Y-84827017D01*
X173490983Y-84747275D01*
X173453060Y-84725380D01*
X173453059Y-84725379D01*
X173393321Y-84690889D01*
X173393322Y-84690889D01*
X173369698Y-84684559D01*
X173284387Y-84661700D01*
X173284385Y-84661700D01*
X173171613Y-84661700D01*
X173086300Y-84684559D01*
X173086296Y-84684560D01*
X173062682Y-84690888D01*
X173062680Y-84690888D01*
X173062680Y-84690889D01*
X173041510Y-84703111D01*
X173041504Y-84703114D01*
X172965013Y-84747277D01*
X172965008Y-84747281D01*
X172885281Y-84827008D01*
X172885277Y-84827013D01*
X172885271Y-84827022D01*
X172828889Y-84924678D01*
X172828888Y-84924682D01*
X172799700Y-85033613D01*
X161982201Y-85033613D01*
X161989704Y-85020617D01*
X162022300Y-84898969D01*
X162022300Y-84773031D01*
X161989704Y-84651383D01*
X161973293Y-84622958D01*
X175537801Y-84622958D01*
X175576297Y-84766621D01*
X175583507Y-84779110D01*
X175583531Y-84779149D01*
X175639262Y-84875679D01*
X175639264Y-84875682D01*
X175639265Y-84875683D01*
X175649483Y-84885901D01*
X175728317Y-84964735D01*
X175729011Y-84965235D01*
X175731538Y-84966595D01*
X175762563Y-84984507D01*
X175837383Y-85027704D01*
X175959031Y-85060300D01*
X175959034Y-85060300D01*
X176084966Y-85060300D01*
X176084969Y-85060300D01*
X176206617Y-85027704D01*
X176315683Y-84964735D01*
X176404735Y-84875683D01*
X176467704Y-84766617D01*
X176500300Y-84644969D01*
X176500300Y-84519031D01*
X176467704Y-84397383D01*
X176404735Y-84288317D01*
X176315683Y-84199265D01*
X176315682Y-84199264D01*
X176315679Y-84199262D01*
X176219145Y-84143529D01*
X176219113Y-84143509D01*
X176206619Y-84136296D01*
X176174813Y-84127774D01*
X176174812Y-84127773D01*
X176109042Y-84110150D01*
X176084969Y-84103700D01*
X176084968Y-84103700D01*
X175959029Y-84103700D01*
X175886040Y-84123257D01*
X175886039Y-84123256D01*
X175837380Y-84136295D01*
X175823253Y-84144451D01*
X175823239Y-84144460D01*
X175814742Y-84149367D01*
X175728320Y-84199261D01*
X175728316Y-84199265D01*
X175728306Y-84199273D01*
X175639273Y-84288306D01*
X175639267Y-84288313D01*
X175639262Y-84288319D01*
X175639255Y-84288329D01*
X175589908Y-84373801D01*
X175589904Y-84373811D01*
X175576297Y-84397380D01*
X175576296Y-84397381D01*
X175563459Y-84445292D01*
X175562073Y-84450461D01*
X175562070Y-84450472D01*
X175543700Y-84519032D01*
X175543700Y-84602872D01*
X175537801Y-84622958D01*
X161973293Y-84622958D01*
X161926735Y-84542317D01*
X161837683Y-84453265D01*
X161837682Y-84453264D01*
X161837679Y-84453262D01*
X161741145Y-84397529D01*
X161741113Y-84397509D01*
X161728619Y-84390296D01*
X161684333Y-84378430D01*
X161679952Y-84377256D01*
X161606969Y-84357700D01*
X161606968Y-84357700D01*
X161481029Y-84357700D01*
X161408040Y-84377257D01*
X161408039Y-84377256D01*
X161359380Y-84390295D01*
X161345253Y-84398451D01*
X161345238Y-84398462D01*
X161250320Y-84453261D01*
X161250316Y-84453265D01*
X161250306Y-84453273D01*
X161161273Y-84542306D01*
X161161267Y-84542313D01*
X161161262Y-84542319D01*
X161161261Y-84542320D01*
X161106462Y-84637238D01*
X161106453Y-84637251D01*
X161098296Y-84651380D01*
X161087074Y-84693262D01*
X161065700Y-84773031D01*
X161065700Y-84856872D01*
X161059801Y-84876958D01*
X144213501Y-84876958D01*
X144160739Y-84785572D01*
X144068428Y-84693261D01*
X143971416Y-84637251D01*
X143955374Y-84627989D01*
X143955373Y-84627988D01*
X143955372Y-84627988D01*
X143829273Y-84594200D01*
X143829272Y-84594200D01*
X143698727Y-84594200D01*
X143572635Y-84627985D01*
X143572624Y-84627989D01*
X143572623Y-84627990D01*
X143459572Y-84693260D01*
X143459563Y-84693267D01*
X143367267Y-84785563D01*
X143367260Y-84785572D01*
X143301990Y-84898623D01*
X143301989Y-84898624D01*
X143301985Y-84898635D01*
X143269303Y-85020612D01*
X143268200Y-85024727D01*
X135952331Y-85024727D01*
X135954704Y-85020617D01*
X135964422Y-84984350D01*
X136000715Y-84924646D01*
X136063526Y-84894042D01*
X136084235Y-84892300D01*
X137489639Y-84892300D01*
X137491419Y-84892204D01*
X137509233Y-84891250D01*
X137509258Y-84891247D01*
X137509262Y-84891247D01*
X137514002Y-84890737D01*
X137535591Y-84888416D01*
X137603843Y-84867044D01*
X137665166Y-84833559D01*
X137706932Y-84802294D01*
X138523294Y-83985932D01*
X138536407Y-83971332D01*
X138553041Y-83950690D01*
X138586190Y-83887320D01*
X138605875Y-83820281D01*
X138613300Y-83768638D01*
X138613300Y-83224562D01*
X138619234Y-83204350D01*
X138620361Y-83183317D01*
X138628880Y-83171500D01*
X138632985Y-83157523D01*
X138648902Y-83143730D01*
X138661223Y-83126642D01*
X138674780Y-83121306D01*
X138685789Y-83111768D01*
X138706636Y-83108770D01*
X138726240Y-83101056D01*
X138751049Y-83102384D01*
X138754947Y-83101824D01*
X138761466Y-83102940D01*
X138772569Y-83105148D01*
X138772579Y-83105153D01*
X138772579Y-83105150D01*
X138793439Y-83109300D01*
X140860560Y-83109299D01*
X140912569Y-83098955D01*
X140971547Y-83059547D01*
X141010955Y-83000569D01*
X141010956Y-83000566D01*
X141012515Y-82992727D01*
X163588200Y-82992727D01*
X163588200Y-83123273D01*
X163621988Y-83249372D01*
X163687261Y-83362428D01*
X163779572Y-83454739D01*
X163892628Y-83520012D01*
X164018727Y-83553800D01*
X164018729Y-83553800D01*
X164149271Y-83553800D01*
X164149273Y-83553800D01*
X164275372Y-83520012D01*
X164388428Y-83454739D01*
X164480739Y-83362428D01*
X164546012Y-83249372D01*
X164579800Y-83123273D01*
X164579800Y-82992727D01*
X164546012Y-82866628D01*
X164480739Y-82753572D01*
X164388428Y-82661261D01*
X164284680Y-82601362D01*
X164275374Y-82595989D01*
X164275373Y-82595988D01*
X164275372Y-82595988D01*
X164149273Y-82562200D01*
X164149272Y-82562200D01*
X164018727Y-82562200D01*
X163892635Y-82595985D01*
X163892624Y-82595989D01*
X163892623Y-82595990D01*
X163779572Y-82661260D01*
X163779563Y-82661267D01*
X163687267Y-82753563D01*
X163687260Y-82753572D01*
X163621990Y-82866623D01*
X163621989Y-82866624D01*
X163621985Y-82866635D01*
X163588200Y-82992727D01*
X141012515Y-82992727D01*
X141018938Y-82960438D01*
X141018943Y-82960410D01*
X141021300Y-82948561D01*
X141021299Y-81722727D01*
X145554200Y-81722727D01*
X145554200Y-81853273D01*
X145587988Y-81979372D01*
X145653261Y-82092428D01*
X145745572Y-82184739D01*
X145858628Y-82250012D01*
X145984727Y-82283800D01*
X145984729Y-82283800D01*
X146115271Y-82283800D01*
X146115273Y-82283800D01*
X146241372Y-82250012D01*
X146354428Y-82184739D01*
X146446739Y-82092428D01*
X146512012Y-81979372D01*
X146545800Y-81853273D01*
X146545800Y-81722727D01*
X174764200Y-81722727D01*
X174764200Y-81853273D01*
X174797988Y-81979372D01*
X174863261Y-82092428D01*
X174955572Y-82184739D01*
X175068628Y-82250012D01*
X175194727Y-82283800D01*
X175194729Y-82283800D01*
X175325271Y-82283800D01*
X175325273Y-82283800D01*
X175451372Y-82250012D01*
X175564428Y-82184739D01*
X175656739Y-82092428D01*
X175722012Y-81979372D01*
X175755800Y-81853273D01*
X175755800Y-81722727D01*
X175722012Y-81596628D01*
X175656739Y-81483572D01*
X175564428Y-81391261D01*
X175489057Y-81347745D01*
X175451374Y-81325989D01*
X175451373Y-81325988D01*
X175451372Y-81325988D01*
X175325273Y-81292200D01*
X175325272Y-81292200D01*
X175194727Y-81292200D01*
X175068635Y-81325985D01*
X175068624Y-81325989D01*
X175068623Y-81325990D01*
X174955572Y-81391260D01*
X174955563Y-81391267D01*
X174863267Y-81483563D01*
X174863260Y-81483572D01*
X174797990Y-81596623D01*
X174797989Y-81596624D01*
X174797985Y-81596635D01*
X174764200Y-81722727D01*
X146545800Y-81722727D01*
X146512012Y-81596628D01*
X146446739Y-81483572D01*
X146354428Y-81391261D01*
X146279057Y-81347745D01*
X146241374Y-81325989D01*
X146241373Y-81325988D01*
X146241372Y-81325988D01*
X146115273Y-81292200D01*
X146115272Y-81292200D01*
X145984727Y-81292200D01*
X145858635Y-81325985D01*
X145858624Y-81325989D01*
X145858623Y-81325990D01*
X145745572Y-81391260D01*
X145745563Y-81391267D01*
X145653267Y-81483563D01*
X145653260Y-81483572D01*
X145587990Y-81596623D01*
X145587989Y-81596624D01*
X145587985Y-81596635D01*
X145554200Y-81722727D01*
X141021299Y-81722727D01*
X141021299Y-80881440D01*
X141010955Y-80829431D01*
X140971547Y-80770453D01*
X140912569Y-80731045D01*
X140912568Y-80731044D01*
X140912567Y-80731044D01*
X140912566Y-80731043D01*
X140910937Y-80730719D01*
X140908919Y-80729482D01*
X140900598Y-80728662D01*
X140860565Y-80720700D01*
X140860563Y-80720700D01*
X140349919Y-80720700D01*
X140347565Y-80720008D01*
X140345185Y-80720610D01*
X140314983Y-80715677D01*
X140306350Y-80713142D01*
X140291350Y-80703502D01*
X140282880Y-80701015D01*
X140277098Y-80694342D01*
X140247572Y-80675367D01*
X140218548Y-80611810D01*
X140228492Y-80542652D01*
X140268762Y-80493585D01*
X140276547Y-80487972D01*
X140285159Y-80482716D01*
X140286056Y-80481758D01*
X140287205Y-80481467D01*
X140292763Y-80478075D01*
X140342513Y-80452727D01*
X160540200Y-80452727D01*
X160540200Y-80583273D01*
X160572683Y-80704499D01*
X160573988Y-80709371D01*
X160573989Y-80709374D01*
X160586500Y-80731043D01*
X160639261Y-80822428D01*
X160731572Y-80914739D01*
X160844628Y-80980012D01*
X160970727Y-81013800D01*
X160970729Y-81013800D01*
X161101271Y-81013800D01*
X161101273Y-81013800D01*
X161227372Y-80980012D01*
X161340428Y-80914739D01*
X161432739Y-80822428D01*
X161498012Y-80709372D01*
X161531800Y-80583273D01*
X161531800Y-80452727D01*
X161498012Y-80326628D01*
X161432739Y-80213572D01*
X161340428Y-80121261D01*
X161235066Y-80060430D01*
X161227374Y-80055989D01*
X161227373Y-80055988D01*
X161227372Y-80055988D01*
X161203755Y-80049659D01*
X161203753Y-80049659D01*
X161147081Y-80034474D01*
X161101273Y-80022200D01*
X161101272Y-80022200D01*
X160970727Y-80022200D01*
X160844635Y-80055985D01*
X160844624Y-80055989D01*
X160844623Y-80055990D01*
X160731572Y-80121260D01*
X160731563Y-80121267D01*
X160639267Y-80213563D01*
X160639260Y-80213572D01*
X160573990Y-80326623D01*
X160573989Y-80326624D01*
X160573985Y-80326635D01*
X160555277Y-80396457D01*
X160540200Y-80452727D01*
X140342513Y-80452727D01*
X140452950Y-80396457D01*
X140605034Y-80285961D01*
X140737961Y-80153034D01*
X140848457Y-80000950D01*
X140933801Y-79833452D01*
X140979208Y-79693703D01*
X140979209Y-79693702D01*
X140991772Y-79655036D01*
X140991889Y-79654678D01*
X140991889Y-79654674D01*
X140991891Y-79654670D01*
X140991891Y-79654669D01*
X140991892Y-79654666D01*
X141021300Y-79468993D01*
X141021300Y-79281007D01*
X140993418Y-79104966D01*
X140991892Y-79095332D01*
X140946073Y-78954317D01*
X140933802Y-78916550D01*
X140933800Y-78916547D01*
X140933800Y-78916545D01*
X140907671Y-78865265D01*
X140907670Y-78865264D01*
X140907668Y-78865261D01*
X140878064Y-78807157D01*
X140848458Y-78749051D01*
X140810109Y-78696269D01*
X140737961Y-78596966D01*
X140605034Y-78464039D01*
X140452950Y-78353543D01*
X140285446Y-78268195D01*
X140106670Y-78210108D01*
X139967411Y-78188052D01*
X139920993Y-78180700D01*
X139920992Y-78180700D01*
X139733003Y-78180700D01*
X139671116Y-78190502D01*
X139556973Y-78208581D01*
X139556965Y-78208581D01*
X139556966Y-78208582D01*
X139547327Y-78210108D01*
X139368545Y-78268198D01*
X139201045Y-78353545D01*
X139114278Y-78416585D01*
X139060833Y-78455415D01*
X139053458Y-78459545D01*
X138911545Y-78601458D01*
X138907415Y-78608833D01*
X138868585Y-78662278D01*
X138805545Y-78749045D01*
X138720198Y-78916545D01*
X138662108Y-79095327D01*
X138660582Y-79104966D01*
X138660581Y-79104965D01*
X138660581Y-79104972D01*
X138632700Y-79281001D01*
X138632700Y-79468997D01*
X138659069Y-79635484D01*
X138659070Y-79635488D01*
X138662108Y-79654667D01*
X138662108Y-79654670D01*
X138720197Y-79833449D01*
X138720199Y-79833452D01*
X138727961Y-79848685D01*
X138727963Y-79848692D01*
X138805543Y-80000950D01*
X138916039Y-80153034D01*
X139048966Y-80285961D01*
X139201050Y-80396457D01*
X139281666Y-80437533D01*
X139281665Y-80437533D01*
X139324740Y-80459480D01*
X139358140Y-80476498D01*
X139366367Y-80484267D01*
X139379648Y-80490428D01*
X139390244Y-80498966D01*
X139406084Y-80521777D01*
X139408936Y-80524471D01*
X139409229Y-80524976D01*
X139413791Y-80532876D01*
X139430095Y-80556356D01*
X139432592Y-80626182D01*
X139409944Y-80664355D01*
X139408469Y-80668620D01*
X139406492Y-80670174D01*
X139396942Y-80686272D01*
X139362851Y-80704499D01*
X139353551Y-80711814D01*
X139348216Y-80712323D01*
X139340982Y-80716192D01*
X139335997Y-80717371D01*
X139307457Y-80720700D01*
X138793441Y-80720700D01*
X138741440Y-80731043D01*
X138741430Y-80731045D01*
X138702022Y-80757376D01*
X138702022Y-80757377D01*
X138699671Y-80758947D01*
X138698337Y-80759839D01*
X138698336Y-80759839D01*
X138682455Y-80770452D01*
X138682452Y-80770454D01*
X138646769Y-80823856D01*
X138644549Y-80826613D01*
X138643044Y-80829431D01*
X138643044Y-80829432D01*
X138643043Y-80829433D01*
X138632700Y-80881434D01*
X138632700Y-80881436D01*
X138632700Y-82194112D01*
X138613015Y-82261151D01*
X138560211Y-82306906D01*
X138491053Y-82316850D01*
X138427497Y-82287825D01*
X138421019Y-82281793D01*
X138087941Y-81948715D01*
X138087937Y-81948711D01*
X138087932Y-81948706D01*
X138087922Y-81948697D01*
X138087903Y-81948679D01*
X138073333Y-81935593D01*
X138052691Y-81918960D01*
X138052692Y-81918960D01*
X138052690Y-81918959D01*
X138052686Y-81918957D01*
X138052683Y-81918955D01*
X137989319Y-81885809D01*
X137989318Y-81885808D01*
X137922286Y-81866126D01*
X137922272Y-81866123D01*
X137870641Y-81858700D01*
X137870638Y-81858700D01*
X132385362Y-81858700D01*
X132385361Y-81858700D01*
X132365776Y-81859749D01*
X132365737Y-81859752D01*
X132339413Y-81862583D01*
X132339402Y-81862585D01*
X132271159Y-81883955D01*
X132271158Y-81883955D01*
X132209832Y-81917441D01*
X132168077Y-81948698D01*
X132168062Y-81948711D01*
X130716715Y-83400058D01*
X130716679Y-83400096D01*
X130703593Y-83414666D01*
X130686960Y-83435308D01*
X130686955Y-83435316D01*
X130653809Y-83498680D01*
X130653808Y-83498681D01*
X130634126Y-83565713D01*
X130634123Y-83565727D01*
X130626700Y-83617358D01*
X127740168Y-83617358D01*
X127740168Y-79690727D01*
X131330200Y-79690727D01*
X131330200Y-79821273D01*
X131363988Y-79947372D01*
X131429261Y-80060428D01*
X131521572Y-80152739D01*
X131634628Y-80218012D01*
X131760727Y-80251800D01*
X131760729Y-80251800D01*
X131891271Y-80251800D01*
X131891273Y-80251800D01*
X132017372Y-80218012D01*
X132130428Y-80152739D01*
X132222739Y-80060428D01*
X132288012Y-79947372D01*
X132321800Y-79821273D01*
X132321800Y-79690727D01*
X132288012Y-79564628D01*
X132222739Y-79451572D01*
X132142842Y-79371675D01*
X132142840Y-79371672D01*
X132130430Y-79359262D01*
X132090977Y-79336483D01*
X132090977Y-79336482D01*
X132017375Y-79293989D01*
X132017376Y-79293989D01*
X132017373Y-79293988D01*
X131998600Y-79288958D01*
X135913801Y-79288958D01*
X135952297Y-79432621D01*
X135959507Y-79445110D01*
X135959531Y-79445149D01*
X136015262Y-79541679D01*
X136015264Y-79541682D01*
X136015265Y-79541683D01*
X136104317Y-79630735D01*
X136104318Y-79630736D01*
X136104320Y-79630737D01*
X136145767Y-79654666D01*
X136213383Y-79693704D01*
X136335031Y-79726300D01*
X136335034Y-79726300D01*
X136460966Y-79726300D01*
X136460969Y-79726300D01*
X136582617Y-79693704D01*
X136691683Y-79630735D01*
X136780735Y-79541683D01*
X136843704Y-79432617D01*
X136876300Y-79310969D01*
X136876300Y-79185031D01*
X136843704Y-79063383D01*
X136780735Y-78954317D01*
X136691683Y-78865265D01*
X136691682Y-78865264D01*
X136691679Y-78865262D01*
X136595145Y-78809529D01*
X136595113Y-78809509D01*
X136582619Y-78802296D01*
X136541811Y-78791362D01*
X136533951Y-78789256D01*
X136460969Y-78769700D01*
X136460967Y-78769700D01*
X136335029Y-78769700D01*
X136262040Y-78789257D01*
X136262039Y-78789256D01*
X136213380Y-78802295D01*
X136199253Y-78810451D01*
X136199238Y-78810462D01*
X136104320Y-78865261D01*
X136104317Y-78865264D01*
X136104306Y-78865273D01*
X136015273Y-78954306D01*
X136015267Y-78954313D01*
X136015262Y-78954319D01*
X136015261Y-78954320D01*
X135960462Y-79049238D01*
X135960453Y-79049251D01*
X135952296Y-79063380D01*
X135935998Y-79124206D01*
X135919700Y-79185031D01*
X135919700Y-79268872D01*
X135913801Y-79288958D01*
X131998600Y-79288958D01*
X131954322Y-79277094D01*
X131954319Y-79277093D01*
X131923637Y-79268872D01*
X131891273Y-79260200D01*
X131891272Y-79260200D01*
X131760727Y-79260200D01*
X131634635Y-79293985D01*
X131634624Y-79293989D01*
X131634623Y-79293990D01*
X131521572Y-79359260D01*
X131521563Y-79359267D01*
X131429267Y-79451563D01*
X131429260Y-79451572D01*
X131363990Y-79564623D01*
X131363989Y-79564624D01*
X131363985Y-79564635D01*
X131339861Y-79654670D01*
X131330200Y-79690727D01*
X127740168Y-79690727D01*
X127740168Y-78809191D01*
X127745190Y-78774258D01*
X127752602Y-78749013D01*
X127783896Y-78696271D01*
X129469244Y-77010923D01*
X129497494Y-76989775D01*
X129520586Y-76977167D01*
X129580011Y-76962000D01*
X165617509Y-76962000D01*
X165635743Y-76964621D01*
G37*
%TD.AperFunction*%
%TD*%
%TA.AperFunction,Conductor*%
%TO.N,/Power and Comms/Vbus*%
G36*
X137937677Y-82061685D02*
G01*
X137958319Y-82078319D01*
X138393681Y-82513681D01*
X138427166Y-82575004D01*
X138430000Y-82601362D01*
X138430000Y-83768638D01*
X138410315Y-83835677D01*
X138393681Y-83856319D01*
X137577319Y-84672681D01*
X137515996Y-84706166D01*
X137489638Y-84709000D01*
X136059561Y-84709000D01*
X135992522Y-84689315D01*
X135952174Y-84647000D01*
X135891737Y-84542320D01*
X135891733Y-84542315D01*
X135802684Y-84453266D01*
X135802679Y-84453262D01*
X135693619Y-84390297D01*
X135693618Y-84390296D01*
X135663198Y-84382145D01*
X135571969Y-84357700D01*
X135446031Y-84357700D01*
X135373042Y-84377257D01*
X135324381Y-84390296D01*
X135324380Y-84390297D01*
X135215320Y-84453262D01*
X135215315Y-84453266D01*
X135126266Y-84542315D01*
X135126262Y-84542320D01*
X135063297Y-84651380D01*
X135063296Y-84651381D01*
X135057589Y-84672681D01*
X135030700Y-84773031D01*
X135030700Y-84773033D01*
X135030700Y-84898966D01*
X135030699Y-84898966D01*
X135063296Y-85020618D01*
X135063297Y-85020619D01*
X135126262Y-85129679D01*
X135126264Y-85129682D01*
X135126265Y-85129683D01*
X135215317Y-85218735D01*
X135215318Y-85218736D01*
X135215320Y-85218737D01*
X135238696Y-85232233D01*
X135324383Y-85281704D01*
X135417095Y-85306546D01*
X135476754Y-85342910D01*
X135507283Y-85405757D01*
X135509000Y-85426320D01*
X135509000Y-88622700D01*
X135489315Y-88689739D01*
X135436511Y-88735494D01*
X135385000Y-88746700D01*
X135315031Y-88746700D01*
X135252076Y-88763569D01*
X135193381Y-88779296D01*
X135193380Y-88779297D01*
X135084320Y-88842262D01*
X135084315Y-88842266D01*
X134995266Y-88931315D01*
X134995262Y-88931320D01*
X134932297Y-89040380D01*
X134932296Y-89040381D01*
X134915998Y-89101207D01*
X134899700Y-89162031D01*
X134899700Y-89162033D01*
X134899700Y-89287966D01*
X134899699Y-89287966D01*
X134932296Y-89409618D01*
X134932297Y-89409619D01*
X134995262Y-89518679D01*
X134995264Y-89518682D01*
X134995265Y-89518683D01*
X135084317Y-89607735D01*
X135193383Y-89670704D01*
X135315031Y-89703300D01*
X135315034Y-89703300D01*
X135385000Y-89703300D01*
X135452039Y-89722985D01*
X135497794Y-89775789D01*
X135509000Y-89827300D01*
X135509000Y-91642638D01*
X135489315Y-91709677D01*
X135472681Y-91730319D01*
X134783319Y-92419681D01*
X134721996Y-92453166D01*
X134695638Y-92456000D01*
X133032242Y-92456000D01*
X132965203Y-92436315D01*
X132919448Y-92383511D01*
X132909504Y-92314353D01*
X132938529Y-92250797D01*
X132944561Y-92244319D01*
X133045515Y-92143365D01*
X133121281Y-92012135D01*
X133160500Y-91865766D01*
X133160500Y-91714234D01*
X133121281Y-91567865D01*
X133045515Y-91436635D01*
X132938365Y-91329485D01*
X132872750Y-91291602D01*
X132807136Y-91253719D01*
X132733950Y-91234109D01*
X132660766Y-91214500D01*
X132544029Y-91214500D01*
X132476990Y-91194815D01*
X132431235Y-91142011D01*
X132421291Y-91072853D01*
X132450316Y-91009297D01*
X132456348Y-91002819D01*
X132476739Y-90982428D01*
X132542012Y-90869372D01*
X132575800Y-90743273D01*
X132575800Y-90612727D01*
X132542012Y-90486628D01*
X132476739Y-90373572D01*
X132384428Y-90281261D01*
X132271372Y-90215988D01*
X132145273Y-90182200D01*
X132014727Y-90182200D01*
X131888628Y-90215988D01*
X131888625Y-90215989D01*
X131775575Y-90281259D01*
X131775569Y-90281263D01*
X131683263Y-90373569D01*
X131683259Y-90373575D01*
X131617989Y-90486625D01*
X131617988Y-90486628D01*
X131584200Y-90612727D01*
X131584200Y-90743273D01*
X131617988Y-90869372D01*
X131683261Y-90982428D01*
X131775572Y-91074739D01*
X131888628Y-91140012D01*
X132014727Y-91173800D01*
X132014729Y-91173800D01*
X132087958Y-91173800D01*
X132154997Y-91193485D01*
X132200752Y-91246289D01*
X132210696Y-91315447D01*
X132181671Y-91379003D01*
X132175639Y-91385481D01*
X132124487Y-91436632D01*
X132124485Y-91436635D01*
X132048719Y-91567863D01*
X132009500Y-91714234D01*
X132009500Y-91865765D01*
X132048719Y-92012136D01*
X132086602Y-92077750D01*
X132124485Y-92143365D01*
X132124487Y-92143367D01*
X132225439Y-92244319D01*
X132258924Y-92305642D01*
X132253940Y-92375334D01*
X132212068Y-92431267D01*
X132146604Y-92455684D01*
X132137758Y-92456000D01*
X131877362Y-92456000D01*
X131810323Y-92436315D01*
X131789681Y-92419681D01*
X130846319Y-91476319D01*
X130812834Y-91414996D01*
X130810000Y-91388638D01*
X130810000Y-85532727D01*
X131076200Y-85532727D01*
X131076200Y-85663273D01*
X131109988Y-85789372D01*
X131175261Y-85902428D01*
X131267572Y-85994739D01*
X131380628Y-86060012D01*
X131506727Y-86093800D01*
X131506729Y-86093800D01*
X131637271Y-86093800D01*
X131637273Y-86093800D01*
X131763372Y-86060012D01*
X131830600Y-86021197D01*
X131898499Y-86004725D01*
X131964526Y-86027577D01*
X132007716Y-86082498D01*
X132012374Y-86096492D01*
X132048719Y-86232136D01*
X132086602Y-86297750D01*
X132124485Y-86363365D01*
X132231635Y-86470515D01*
X132362865Y-86546281D01*
X132509234Y-86585500D01*
X132509236Y-86585500D01*
X132660764Y-86585500D01*
X132660766Y-86585500D01*
X132807135Y-86546281D01*
X132938365Y-86470515D01*
X133045515Y-86363365D01*
X133121281Y-86232135D01*
X133160500Y-86085766D01*
X133160500Y-85934234D01*
X133121281Y-85787865D01*
X133045515Y-85656635D01*
X132938365Y-85549485D01*
X132834791Y-85489686D01*
X132786577Y-85439120D01*
X132773355Y-85370512D01*
X132799323Y-85305648D01*
X132856237Y-85265120D01*
X132896793Y-85258300D01*
X133701809Y-85258300D01*
X133767777Y-85245177D01*
X133832853Y-85232233D01*
X133956296Y-85181102D01*
X134067391Y-85106870D01*
X134161870Y-85012391D01*
X134236102Y-84901296D01*
X134287233Y-84777853D01*
X134304845Y-84689315D01*
X134313300Y-84646809D01*
X134313300Y-84513190D01*
X134287234Y-84382153D01*
X134287233Y-84382147D01*
X134236102Y-84258704D01*
X134161870Y-84147609D01*
X134161867Y-84147605D01*
X134067394Y-84053132D01*
X134067390Y-84053129D01*
X133956298Y-83978899D01*
X133956296Y-83978898D01*
X133832854Y-83927767D01*
X133832846Y-83927765D01*
X133701809Y-83901700D01*
X133701807Y-83901700D01*
X132468193Y-83901700D01*
X132468191Y-83901700D01*
X132337153Y-83927765D01*
X132337145Y-83927767D01*
X132213703Y-83978898D01*
X132213701Y-83978899D01*
X132102609Y-84053129D01*
X132102605Y-84053132D01*
X132008132Y-84147605D01*
X132008129Y-84147609D01*
X131933899Y-84258701D01*
X131933898Y-84258703D01*
X131882767Y-84382145D01*
X131882765Y-84382153D01*
X131856700Y-84513190D01*
X131856700Y-84513193D01*
X131856700Y-84646807D01*
X131856700Y-84646809D01*
X131856699Y-84646809D01*
X131882765Y-84777846D01*
X131882767Y-84777854D01*
X131933898Y-84901296D01*
X131933899Y-84901299D01*
X132000849Y-85001496D01*
X132021727Y-85068174D01*
X132003242Y-85135554D01*
X131951264Y-85182244D01*
X131882294Y-85193420D01*
X131835747Y-85177774D01*
X131763374Y-85135989D01*
X131763373Y-85135988D01*
X131763372Y-85135988D01*
X131637273Y-85102200D01*
X131506727Y-85102200D01*
X131380628Y-85135988D01*
X131380625Y-85135989D01*
X131267575Y-85201259D01*
X131267569Y-85201263D01*
X131175263Y-85293569D01*
X131175259Y-85293575D01*
X131109989Y-85406625D01*
X131109988Y-85406628D01*
X131076200Y-85532727D01*
X130810000Y-85532727D01*
X130810000Y-83617362D01*
X130829685Y-83550323D01*
X130846319Y-83529681D01*
X132297681Y-82078319D01*
X132359004Y-82044834D01*
X132385362Y-82042000D01*
X137870638Y-82042000D01*
X137937677Y-82061685D01*
G37*
%TD.AperFunction*%
%TD*%
%TA.AperFunction,Conductor*%
%TO.N,+3.3V*%
G36*
X138699677Y-95015685D02*
G01*
X138720319Y-95032319D01*
X140262519Y-96574519D01*
X140296004Y-96635842D01*
X140291020Y-96705534D01*
X140249148Y-96761467D01*
X140183684Y-96785884D01*
X140174838Y-96786200D01*
X140142727Y-96786200D01*
X140016628Y-96819988D01*
X140016625Y-96819989D01*
X139903575Y-96885259D01*
X139903569Y-96885263D01*
X139811263Y-96977569D01*
X139811259Y-96977575D01*
X139745989Y-97090625D01*
X139745988Y-97090628D01*
X139712200Y-97216727D01*
X139712200Y-97347273D01*
X139745988Y-97473372D01*
X139811261Y-97586428D01*
X139903572Y-97678739D01*
X140016628Y-97744012D01*
X140142727Y-97777800D01*
X140142729Y-97777800D01*
X140273271Y-97777800D01*
X140273273Y-97777800D01*
X140399372Y-97744012D01*
X140512428Y-97678739D01*
X140604739Y-97586428D01*
X140670012Y-97473372D01*
X140703800Y-97347273D01*
X140703800Y-97315162D01*
X140723485Y-97248123D01*
X140776289Y-97202368D01*
X140845447Y-97192424D01*
X140909003Y-97221449D01*
X140915481Y-97227481D01*
X140970000Y-97282000D01*
X144526000Y-97282000D01*
X144984704Y-96820729D01*
X145045931Y-96787075D01*
X145072274Y-96784167D01*
X148665437Y-96774143D01*
X148732529Y-96793641D01*
X148753462Y-96810462D01*
X149823681Y-97880681D01*
X149857166Y-97942004D01*
X149860000Y-97968362D01*
X149860000Y-99363138D01*
X149840315Y-99430177D01*
X149823681Y-99450819D01*
X148980819Y-100293681D01*
X148919496Y-100327166D01*
X148893138Y-100330000D01*
X139243362Y-100330000D01*
X139176323Y-100310315D01*
X139155681Y-100293681D01*
X138364727Y-99502727D01*
X145554200Y-99502727D01*
X145554200Y-99633273D01*
X145587988Y-99759372D01*
X145653261Y-99872428D01*
X145745572Y-99964739D01*
X145858628Y-100030012D01*
X145984727Y-100063800D01*
X145984729Y-100063800D01*
X146115271Y-100063800D01*
X146115273Y-100063800D01*
X146241372Y-100030012D01*
X146354428Y-99964739D01*
X146446739Y-99872428D01*
X146512012Y-99759372D01*
X146545800Y-99633273D01*
X146545800Y-99502727D01*
X146512012Y-99376628D01*
X146446739Y-99263572D01*
X146354428Y-99171261D01*
X146279057Y-99127745D01*
X146241374Y-99105989D01*
X146241373Y-99105988D01*
X146241372Y-99105988D01*
X146115273Y-99072200D01*
X145984727Y-99072200D01*
X145858628Y-99105988D01*
X145858625Y-99105989D01*
X145745575Y-99171259D01*
X145745569Y-99171263D01*
X145653263Y-99263569D01*
X145653259Y-99263575D01*
X145587989Y-99376625D01*
X145587988Y-99376628D01*
X145554200Y-99502727D01*
X138364727Y-99502727D01*
X137476966Y-98614966D01*
X143031699Y-98614966D01*
X143064296Y-98736618D01*
X143064297Y-98736619D01*
X143127262Y-98845679D01*
X143127264Y-98845682D01*
X143127265Y-98845683D01*
X143216317Y-98934735D01*
X143325383Y-98997704D01*
X143447031Y-99030300D01*
X143447034Y-99030300D01*
X143572966Y-99030300D01*
X143572969Y-99030300D01*
X143694617Y-98997704D01*
X143803683Y-98934735D01*
X143892735Y-98845683D01*
X143955704Y-98736617D01*
X143988300Y-98614969D01*
X143988300Y-98489031D01*
X143955704Y-98367383D01*
X143892735Y-98258317D01*
X143803683Y-98169265D01*
X143803682Y-98169264D01*
X143803679Y-98169262D01*
X143694619Y-98106297D01*
X143694618Y-98106296D01*
X143664205Y-98098147D01*
X143572969Y-98073700D01*
X143447031Y-98073700D01*
X143374042Y-98093257D01*
X143325381Y-98106296D01*
X143325380Y-98106297D01*
X143216320Y-98169262D01*
X143216315Y-98169266D01*
X143127266Y-98258315D01*
X143127262Y-98258320D01*
X143064297Y-98367380D01*
X143064296Y-98367381D01*
X143047998Y-98428207D01*
X143031700Y-98489031D01*
X143031700Y-98489033D01*
X143031700Y-98614966D01*
X143031699Y-98614966D01*
X137476966Y-98614966D01*
X136180319Y-97318319D01*
X136146834Y-97256996D01*
X136144000Y-97230638D01*
X136144000Y-95809362D01*
X136163685Y-95742323D01*
X136180319Y-95721681D01*
X136869681Y-95032319D01*
X136931004Y-94998834D01*
X136957362Y-94996000D01*
X138632638Y-94996000D01*
X138699677Y-95015685D01*
G37*
%TD.AperFunction*%
%TD*%
M02*
